<svg width="21.500000" height="19.500000" viewBox="0 0 21.5 19.5" fill="none" xmlns="http://www.w3.org/2000/svg" xmlns:xlink="http://www.w3.org/1999/xlink">
	<desc>
			Created with Pixso.
	</desc>
	<defs/>
	<path id="Combined-Shape" d="M15.65 0C18.98 0 21.5 2.71 21.5 6.32L21.5 13.18C21.5 15.03 20.84 16.69 19.66 17.88C18.6 18.93 17.22 19.5 15.67 19.5L5.82 19.5C4.27 19.5 2.9 18.93 1.83 17.88C0.65 16.69 0 15.03 0 13.18L0 6.32C0 2.71 2.51 0 5.84 0L15.65 0ZM15.65 1.5L5.84 1.5C3.32 1.5 1.5 3.52 1.5 6.32L1.5 13.18C1.5 14.63 1.99 15.91 2.89 16.81C3.67 17.59 4.68 18 5.82 18L15.65 18C15.66 17.99 15.66 18 15.67 18C16.81 18 17.82 17.59 18.6 16.81C19.5 15.91 20 14.63 20 13.18L20 6.32C20 3.52 18.17 1.5 15.65 1.5ZM17.23 6.12C17.49 6.44 17.44 6.92 17.12 7.18L12.68 10.79C12.12 11.24 11.44 11.46 10.77 11.46C10.1 11.46 9.44 11.24 8.88 10.8L4.39 7.18C4.07 6.92 4.02 6.45 4.28 6.13C4.54 5.81 5.01 5.75 5.33 6.01L9.82 9.62C10.38 10.07 11.17 10.07 11.74 9.62L16.17 6.01C16.5 5.75 16.97 5.8 17.23 6.12Z" fill="#FFFFFF" fill-opacity="1.000000" fill-rule="evenodd"/>
</svg>
