<svg width="13.333313" height="13.333984" viewBox="0 0 13.3333 13.334" fill="none" xmlns="http://www.w3.org/2000/svg" xmlns:xlink="http://www.w3.org/1999/xlink">
	<desc>
			Created with Pixso.
	</desc>
	<defs/>
	<path id="Vector" d="M12.95 0.38C12.62 0.04 12.12 -0.09 11.66 0.05L0.93 3.17C0.45 3.3 0.1 3.69 0.01 4.18C-0.08 4.68 0.25 5.32 0.68 5.58L4.03 7.65C4.38 7.86 4.82 7.81 5.11 7.52L8.95 3.65C9.14 3.45 9.46 3.45 9.66 3.65C9.85 3.85 9.85 4.16 9.66 4.36L5.81 8.23C5.52 8.52 5.47 8.96 5.68 9.31L7.73 12.7C7.97 13.1 8.38 13.33 8.84 13.33C8.89 13.33 8.95 13.33 9 13.32C9.52 13.25 9.94 12.9 10.09 12.4L13.27 1.68C13.41 1.22 13.29 0.73 12.95 0.38Z" fill="#FFFFFF" fill-opacity="1.000000" fill-rule="nonzero"/>
</svg>
