<svg width="28" height="28" viewBox="0 0 28 28" fill="none" xmlns="http://www.w3.org/2000/svg">
<path d="M19.1875 13.2664C19.7708 13.5924 19.7708 14.4076 19.1875 14.7336L11.3125 19.1352C10.7292 19.4613 10 19.0537 10 18.4016L10 9.59836C10 8.94626 10.7292 8.53871 11.3125 8.86475L19.1875 13.2664Z" fill="white"/>
<path fill-rule="evenodd" clip-rule="evenodd" d="M14 27C21.1797 27 27 21.1797 27 14C27 6.8203 21.1797 1 14 1C6.8203 1 1 6.8203 1 14C1 21.1797 6.8203 27 14 27ZM14 28C21.732 28 28 21.732 28 14C28 6.26801 21.732 0 14 0C6.26801 0 0 6.26801 0 14C0 21.732 6.26801 28 14 28Z" fill="white"/>
</svg>
