<svg width="59.000000" height="16.000000" viewBox="0 0 59 16" fill="none" xmlns="http://www.w3.org/2000/svg" xmlns:xlink="http://www.w3.org/1999/xlink">
	<desc>
			Created with Pixso.
	</desc>
	<defs>
		<linearGradient x1="-0.000000" y1="6.500000" x2="61.999985" y2="13.500000" id="paint_linear_21_12729_0" gradientUnits="userSpaceOnUse">
			<stop stop-color="#FFFFFF"/>
			<stop offset="1.000000" stop-color="#FFFFFF" stop-opacity="0.000000"/>
		</linearGradient>
	</defs>
	<path id="VRNas" d="M0 0L2.62 0L6.66 12.84L6.71 12.84L10.75 0L22.68 0L24.91 2.35L24.91 7.26L23.32 8.93L25 10.83L25 16L22.46 16L22.46 11.47L20.89 9.66L15.9 9.66L15.9 16L13.37 16L13.37 0.02L7.95 16L5.42 16L0 0ZM28.41 0L26.09 0L26.09 16L28.52 16L28.52 4.38L28.56 4.38L35.78 16L38.1 16L38.1 0L35.67 0L35.67 11.63L35.63 11.63L28.41 0ZM15.9 7.47L21.54 7.47L22.42 6.55L22.42 3.15L21.54 2.24L15.9 2.24L15.9 7.47ZM38.87 13.96L38.87 11.26L40.82 9.25L46.44 9.25L46.44 7.56L45.63 6.71L42.19 6.71L41.39 7.56L41.39 8.29L38.96 8.29L38.96 6.97L41.19 4.61L46.63 4.61L48.86 6.97L48.86 16L46.61 16L46.61 14.24L44.86 16L40.82 16L38.87 13.96ZM49.2 12.48L49.2 13.87L51.21 16L57.01 16L59 13.91L59 11.29L57.03 9.21L52.35 9.21L51.71 8.54L51.71 7.4L52.33 6.74L55.74 6.74L56.35 7.4L56.35 8.13L58.78 8.13L58.78 6.74L56.76 4.61L51.28 4.61L49.29 6.69L49.29 9.25L51.23 11.31L55.93 11.31L56.57 11.97L56.57 13.21L55.96 13.87L52.24 13.87L51.63 13.21L51.63 12.48L49.2 12.48ZM44.62 13.96L46.44 12.13L46.44 11.17L42 11.17L41.3 11.88L41.3 13.28L41.95 13.96L44.62 13.96Z" fill="url(#paint_linear_21_12729_0)" fill-opacity="1.000000" fill-rule="evenodd"/>
</svg>
