<svg width="18.000000" height="19.000000" viewBox="0 0 18 19" fill="none" xmlns="http://www.w3.org/2000/svg" xmlns:xlink="http://www.w3.org/1999/xlink">
	<desc>
			Created with Pixso.
	</desc>
	<defs/>
	<rect id="Rectangle 113" x="5.179688" y="1.000000" rx="3.319165" width="6.638330" height="8.411078" stroke="#00093C" stroke-opacity="1.000000" stroke-width="2.000000"/>
	<path id="Rectangle 9" d="M4 11.41C1.79 11.41 0 13.2 0 15.41L0 16.32C0 17.42 0.89 18.32 2 18.32L15.27 18.32C16.38 18.32 17.27 17.42 17.27 16.32L17.27 15.41C17.27 13.2 15.48 11.41 13.27 11.41L4 11.41ZM4 13.41L13.27 13.41Q13.52 13.41 13.76 13.46Q13.91 13.5 14.05 13.56Q14.21 13.63 14.35 13.72Q14.53 13.83 14.69 13.99Q14.84 14.15 14.96 14.33Q15.05 14.47 15.12 14.63Q15.18 14.77 15.22 14.92Q15.27 15.16 15.27 15.41L15.27 16.32L2 16.32L2 15.41Q2 15.16 2.05 14.92Q2.09 14.77 2.15 14.63Q2.22 14.47 2.31 14.33Q2.42 14.15 2.58 13.99Q2.74 13.83 2.92 13.72Q3.06 13.63 3.22 13.56Q3.36 13.5 3.51 13.46Q3.75 13.41 4 13.41Z" fill="#00093C" fill-opacity="1.000000" fill-rule="evenodd"/>
</svg>
