<svg width="20.000000" height="45.000000" viewBox="0 0 20 45" fill="none" xmlns="http://www.w3.org/2000/svg" xmlns:xlink="http://www.w3.org/1999/xlink">
	<desc>
			Created with Pixso.
	</desc>
	<defs>
		<linearGradient x1="-0.500000" y1="22.399803" x2="19.900019" y2="22.399803" id="paint_linear_1_12970_0" gradientUnits="userSpaceOnUse">
			<stop stop-color="#F7941D"/>
			<stop offset="1.000000" stop-color="#27AAE1"/>
		</linearGradient>
	</defs>
	<path id="Vector" d="M1.3 42.2C1.3 41.39 1.4 40.7 1.3 39.89C1.19 39.09 1.5 38.79 2.4 38.79C6.8 38.79 11.19 38.79 15.69 38.79C16.19 38.79 16.8 38.79 17.3 38.79C17.9 38.79 18.09 39 18.09 39.59C18.09 40.5 18.09 41.29 18.09 42.2C18.09 42.89 17.9 43.2 17.19 43.2C14.69 43.2 12.19 43.2 9.8 43.2C9.09 43.2 8.4 43.2 7.69 43.2C5.9 43.2 4.09 43.2 2.3 43.2C1.5 43.2 1.3 42.89 1.3 42.2ZM2.4 35.89C4.5 31.29 5.59 26.39 5.5 21.29C5.5 20.5 5.69 20.2 6.59 20.2C8.8 20.29 11 20.2 13.19 20.2C13.8 20.2 14.09 20.39 14.09 21C14 26.29 15.09 31.39 17.3 36.2C17.4 36.39 17.4 36.59 17.5 36.89L2 36.89C2.09 36.5 2.19 36.2 2.4 35.89ZM14.59 16.2C15.4 16.2 16 16.5 15.9 17.29C15.9 18.09 15.3 18.39 14.59 18.39C13 18.39 11.3 18.39 9.69 18.39L4.9 18.39C4.09 18.39 3.5 18.09 3.5 17.29C3.5 16.39 4.09 16.2 4.9 16.2C6.4 16.2 7.9 16.2 9.5 16.2C11.09 16.2 12.8 16.2 14.59 16.2ZM7.8 8.7C8.4 7.5 9 6.29 9.69 4.89C10.4 6.29 11 7.59 11.69 8.79C12.3 10 12.5 10.09 13.69 9.7C14.69 9.39 15.8 9 16.8 8.7C16.9 8.79 16.9 8.79 17 8.89C16.19 10.59 15.3 12.29 14.4 13.89C14.3 14.09 13.9 14.29 13.59 14.29C11 14.29 8.4 14.29 5.8 14.29C5.5 14.29 5.19 14.2 5.09 14C4.19 12.29 3.4 10.59 2.4 8.59C3.69 9 4.69 9.39 5.69 9.7C6.19 9.89 6.5 10 6.8 10C7.09 9.89 7.3 9.59 7.8 8.7ZM8.69 0.09C7.9 0.5 7.4 1.59 7.9 2.29C8.59 3.29 8 4 7.59 4.79C7.19 5.59 6.8 6.29 6.4 7.09C6.19 7.59 5.9 7.7 5.4 7.5C3.9 7 2.5 6.5 1 6.09C0.59 6 -0.1 6 -0.31 6.29C-0.5 6.59 -0.5 7.29 -0.31 7.7C0.59 9.7 1.59 11.59 2.59 13.59C2.8 13.89 2.9 14.2 3 14.5C0.8 16.39 0.9 18.2 3.09 19.89C3.3 20 3.5 20.39 3.5 20.59C3.4 22.59 3.4 24.59 3.19 26.59C2.8 30.2 1.5 33.5 -0.1 36.7C-0.31 37.2 -0.5 37.7 -0.5 38.2C-0.5 40.09 -0.5 41.89 -0.5 43.79C-0.5 44.7 -0.1 45 0.69 45C6.69 45 12.69 45 18.69 45C19.59 45 19.9 44.59 19.9 43.79C19.9 42.2 19.9 40.5 19.9 38.89C19.9 38.09 19.69 37.29 19.4 36.59C17 31.7 15.69 26.59 15.9 21.09C15.9 20.5 16 20.09 16.59 19.7C17.09 19.39 17.5 18.79 17.69 18.29C18.19 16.79 17.69 15.5 16.3 14.59C17.5 12.2 18.59 10 19.69 7.7C19.9 7.29 19.8 6.7 19.59 6.39C19.4 6.2 18.8 6.09 18.4 6.2C17 6.59 15.59 7.09 14.3 7.59C13.59 7.89 13.09 7.79 12.8 7C12.4 6 11.9 5.09 11.4 4.09C11.09 3.59 11.09 3.2 11.4 2.7C11.9 1.89 11.69 0.89 11 0.29C10.59 0 10.19 -0.21 9.69 -0.21C9.4 -0.21 9 -0.11 8.69 0.09Z" fill="url(#paint_linear_1_12970_0)" fill-opacity="1.000000" fill-rule="nonzero"/>
</svg>
