<svg width="23.000000" height="49.000000" viewBox="0 0 23 49" fill="none" xmlns="http://www.w3.org/2000/svg" xmlns:xlink="http://www.w3.org/1999/xlink">
	<desc>
			Created with Pixso.
	</desc>
	<defs>
		<linearGradient x1="0.000000" y1="24.426872" x2="22.097490" y2="24.426872" id="paint_linear_1_12976_0" gradientUnits="userSpaceOnUse">
			<stop stop-color="#F7941D"/>
			<stop offset="1.000000" stop-color="#27AAE1"/>
		</linearGradient>
	</defs>
	<path id="Vector" d="M1.98 45.85C1.98 44.95 2.08 43.95 1.98 43.05C1.98 42.25 2.18 41.95 3.08 41.95C5.78 41.95 8.48 41.95 11.18 41.95C13.88 41.95 16.48 41.95 19.18 41.95C19.98 41.95 20.28 42.25 20.28 43.05C20.18 43.95 20.28 44.95 20.28 45.85C20.28 46.45 20.08 46.65 19.48 46.65C13.98 46.65 8.48 46.65 2.88 46.65C2.18 46.65 1.98 46.45 1.98 45.85ZM14.58 21.85C15.58 21.85 15.78 22.15 15.78 23.05C15.68 27.15 15.98 31.15 17.28 35.05C17.78 36.45 18.48 37.85 19.08 39.25C19.18 39.45 19.18 39.65 19.28 39.95L3.18 39.95C3.18 39.75 3.18 39.55 3.28 39.35C5.88 34.55 6.58 29.35 6.58 23.95C6.58 21.75 6.38 21.85 7.98 21.85C8.18 21.85 8.48 21.85 8.78 21.85C9.58 21.85 10.28 21.85 11.08 21.85C11.58 21.85 12.08 21.85 12.58 21.85C13.08 21.85 13.78 21.85 14.58 21.85ZM4.28 18.65C4.18 17.85 4.78 17.45 5.88 17.45C9.38 17.45 12.78 17.45 16.28 17.45C17.38 17.45 17.88 17.85 17.88 18.65C17.78 19.65 17.08 19.85 16.28 19.85C14.58 19.85 12.88 19.85 11.18 19.85C9.48 19.85 7.78 19.85 6.08 19.85C5.08 19.85 4.38 19.65 4.28 18.65ZM6.08 14.45C5.38 10.95 7.58 6.25 10.78 4.55C10.98 4.45 11.38 4.55 11.58 4.65C14.68 7.05 16.58 9.95 16.18 14.05C16.08 15.35 15.98 15.45 14.68 15.45C13.48 15.45 12.28 15.45 11.08 15.45C9.78 15.45 8.48 15.45 7.18 15.45L7.08 15.45C6.48 15.45 6.18 15.05 6.08 14.45ZM9.08 1.95C9.28 2.95 8.88 3.35 8.28 3.85C5.08 6.75 3.38 10.25 4.08 14.65C4.18 15.35 4.08 15.65 3.58 16.05C1.98 17.35 1.88 19.85 3.48 21.05C4.38 21.65 4.58 22.35 4.48 23.35C4.48 23.75 4.48 24.25 4.48 24.75C4.48 29.15 4.08 33.55 1.88 37.35C0.28 40.15 -0.22 42.95 0.08 46.05C0.08 46.55 0.08 46.95 0.08 47.45C0.08 48.55 0.38 48.85 1.48 48.85C3.48 48.85 5.58 48.85 7.58 48.85C8.78 48.85 9.88 48.85 11.08 48.85C14.28 48.85 17.48 48.85 20.68 48.85C21.78 48.85 22.08 48.55 22.08 47.45C22.08 46.15 21.98 44.75 22.08 43.45C22.18 41.75 21.78 40.35 20.88 38.85C17.88 33.75 17.48 28.05 17.68 22.35C17.68 22.15 17.88 21.85 18.08 21.75C20.38 20.05 20.48 17.95 18.38 16.15C18.18 15.95 17.98 15.55 18.08 15.35C18.88 10.85 17.18 7.25 13.88 4.25C13.28 3.75 12.88 3.35 13.08 2.35C13.38 1.15 12.38 0.05 11.08 0.05C9.78 -0.25 8.78 0.75 9.08 1.95Z" fill="url(#paint_linear_1_12976_0)" fill-opacity="1.000000" fill-rule="nonzero"/>
</svg>
