<svg width="17.000000" height="20.000000" viewBox="0 0 17 20" fill="none" xmlns="http://www.w3.org/2000/svg" xmlns:xlink="http://www.w3.org/1999/xlink">
	<desc>
			Created with Pixso.
	</desc>
	<defs/>
	<path id="Ellipse 189" d="M8.5 20C8.5 20 17 15 17 8.5C17 3.8 13.19 0 8.5 0C3.8 0 0 3.8 0 8.5C0 15 8.5 20 8.5 20ZM8.5 17.6Q8.41 17.54 8.33 17.49Q6.86 16.43 5.64 15.25Q3.98 13.64 3.06 12.04Q2 10.19 2 8.5Q2 7.74 2.16 7.02Q2.29 6.48 2.5 5.97Q2.73 5.43 3.04 4.95Q3.41 4.39 3.9 3.9Q4.39 3.41 4.95 3.04Q5.43 2.73 5.97 2.5Q6.48 2.29 7.02 2.16Q7.74 2 8.5 2Q9.25 2 9.97 2.16Q10.51 2.29 11.02 2.5Q11.56 2.73 12.04 3.04Q12.6 3.41 13.09 3.9Q13.58 4.39 13.95 4.95Q14.26 5.43 14.49 5.97Q14.7 6.48 14.83 7.02Q15 7.74 15 8.5Q15 10.19 13.93 12.04Q13.01 13.64 11.35 15.25Q10.13 16.43 8.66 17.49Q8.58 17.54 8.5 17.6Z" fill="#00093C" fill-opacity="1.000000" fill-rule="evenodd"/>
	<circle id="Ellipse 190" cx="8.500000" cy="7.500000" r="2.500000" fill="#00093C" fill-opacity="1.000000"/>
</svg>
