<svg width="419.820312" height="192.000000" viewBox="0 0 419.82 192" fill="none" xmlns="http://www.w3.org/2000/svg" xmlns:xlink="http://www.w3.org/1999/xlink">
	<desc>
			Created with Pixso.
	</desc>
	<defs>
		<linearGradient x1="1.035156" y1="96.000000" x2="418.819916" y2="96.000000" id="paint_linear_1_15515_0" gradientUnits="userSpaceOnUse">
			<stop stop-color="#F7941D"/>
			<stop offset="1.000000" stop-color="#27AAE1"/>
		</linearGradient>
	</defs>
	<mask id="mask_1_15515" fill="white">
		<path id="Union" d="M49.7148 1L398.82 1C409.865 1 418.82 9.9541 418.82 21L418.82 171C418.82 182.046 409.865 191 398.82 191L49.7148 191C38.6699 191 29.7148 182.046 29.7148 171L29.7148 139.547L1.47656 104.249C0.429688 102.939 1.36133 101 3.03906 101L29.7148 101L29.7148 21C29.7148 9.9541 38.6699 1 49.7148 1Z" clip-rule="evenodd" fill="" fill-opacity="1.000000" fill-rule="evenodd"/>
	</mask>
	<path id="Union" d="M49.7148 1L398.82 1C409.865 1 418.82 9.9541 418.82 21L418.82 171C418.82 182.046 409.865 191 398.82 191L49.7148 191C38.6699 191 29.7148 182.046 29.7148 171L29.7148 139.547L1.47656 104.249C0.429688 102.939 1.36133 101 3.03906 101L29.7148 101L29.7148 21C29.7148 9.9541 38.6699 1 49.7148 1Z" clip-rule="evenodd" fill="#FFFFFF" fill-opacity="1.000000" fill-rule="evenodd" mask="url(#mask_1_15515)"/>
	<path id="Union" d="M49.7148 0L398.82 0Q407.52 0 413.67 6.15039Q419.82 12.3018 419.82 21L419.82 171Q419.82 179.698 413.67 185.85Q407.52 192 398.82 192L49.7148 192Q41.0156 192 34.8652 185.85Q28.7148 179.698 28.7148 171L28.7148 139.547L29.7148 139.547L28.9336 140.171L0.697266 104.874Q-0.482422 103.4 0.335938 101.7Q1.15234 100 3.03906 100L29.7148 100L29.7148 101L28.7148 101L28.7148 21Q28.7148 12.3018 34.8652 6.15039Q41.0156 0 49.7148 0ZM49.7148 2Q41.8438 2 36.2793 7.56543Q30.7148 13.1299 30.7148 21L30.7148 102L3.03906 102Q2.41016 102 2.13672 102.566Q1.86523 103.134 2.25781 103.625L30.7148 139.195L30.7148 171Q30.7148 178.87 36.2793 184.435Q41.8438 190 49.7148 190L398.82 190Q406.689 190 412.256 184.435Q417.82 178.87 417.82 171L417.82 21Q417.82 13.1299 412.256 7.56543Q406.689 2 398.82 2L49.7148 2Z" fill="url(#paint_linear_1_15515_0)" fill-opacity="1.000000" fill-rule="nonzero"/>
</svg>
