<svg width="352.000000" height="139.877930" viewBox="0 0 352 139.878" fill="none" xmlns="http://www.w3.org/2000/svg" xmlns:xlink="http://www.w3.org/1999/xlink">
	<desc>
			Created with Pixso.
	</desc>
	<defs>
		<linearGradient x1="1.000000" y1="69.921265" x2="350.999908" y2="69.921265" id="paint_linear_1_12958_0" gradientUnits="userSpaceOnUse">
			<stop stop-color="#F7941D"/>
			<stop offset="1.000000" stop-color="#27AAE1"/>
		</linearGradient>
	</defs>
	<mask id="mask_1_12958" fill="white">
		<path id="Union" d="M21 1L331 1C342.045 1 351 9.9541 351 21L351 91C351 102.046 342.045 111 331 111L178.5 111L144.25 138.4C142.939 139.448 141 138.516 141 136.839L141 111L21 111C9.95508 111 1 102.046 1 91L1 21C1 9.9541 9.95508 1 21 1Z" clip-rule="evenodd" fill="" fill-opacity="1.000000" fill-rule="evenodd"/>
	</mask>
	<path id="Union" d="M21 1L331 1C342.045 1 351 9.9541 351 21L351 91C351 102.046 342.045 111 331 111L178.5 111L144.25 138.4C142.939 139.448 141 138.516 141 136.839L141 111L21 111C9.95508 111 1 102.046 1 91L1 21C1 9.9541 9.95508 1 21 1Z" clip-rule="evenodd" fill="#FFFFFF" fill-opacity="1.000000" fill-rule="evenodd" mask="url(#mask_1_12958)"/>
	<path id="Union" d="M21 0L331 0C336.799 0 341.748 2.0498 345.85 6.15039C349.949 10.251 352 15.2012 352 21L352 91C352 96.7988 349.949 101.749 345.85 105.85C341.748 109.95 336.799 112 331 112L178.5 112L178.5 111L179.125 111.781L144.875 139.182C143.893 139.967 142.834 140.088 141.701 139.543C140.566 138.998 140 138.097 140 136.839L140 111L141 111L141 112L21 112C15.2012 112 10.252 109.95 6.15039 105.85C2.05078 101.749 0 96.7988 0 91L0 21C0 15.2012 2.05078 10.251 6.15039 6.15039C10.252 2.0498 15.2012 0 21 0L21 0ZM21 2C15.7539 2 11.2754 3.85547 7.56445 7.56543C3.85547 11.2754 2 15.7529 2 21L2 91C2 96.2471 3.85547 100.725 7.56445 104.435C11.2754 108.145 15.7539 110 21 110L142 110L142 136.839C142 137.258 142.189 137.559 142.566 137.74C142.945 137.922 143.297 137.882 143.625 137.619L178.148 110L331 110C336.246 110 340.725 108.145 344.436 104.435C348.145 100.725 350 96.2471 350 91L350 21C350 15.7529 348.145 11.2754 344.436 7.56543C340.725 3.85547 336.246 2 331 2L21 2L21 2Z" fill="url(#paint_linear_1_12958_0)" fill-opacity="1.000000" fill-rule="nonzero"/>
</svg>
