<svg width="352.000000" height="139.877930" viewBox="0 0 352 139.878" fill="none" xmlns="http://www.w3.org/2000/svg" xmlns:xlink="http://www.w3.org/1999/xlink">
	<desc>
			Created with Pixso.
	</desc>
	<defs>
		<linearGradient x1="351.000000" y1="69.921265" x2="1.000092" y2="69.921265" id="paint_linear_1_15505_0" gradientUnits="userSpaceOnUse">
			<stop stop-color="#F7941D"/>
			<stop offset="1.000000" stop-color="#27AAE1"/>
		</linearGradient>
	</defs>
	<mask id="mask_1_15505" fill="white">
		<path id="Union" d="M21 1L331 1C342.045 1 351 9.9541 351 21L351 91C351 102.046 342.045 111 331 111L330 111L330 136.839C330 138.516 328.061 139.448 326.75 138.4L292.5 111L21 111C9.95508 111 1 102.046 1 91L1 21C1 9.9541 9.95508 1 21 1Z" clip-rule="evenodd" fill="" fill-opacity="1.000000" fill-rule="evenodd"/>
	</mask>
	<path id="Union" d="M21 1L331 1C342.045 1 351 9.9541 351 21L351 91C351 102.046 342.045 111 331 111L330 111L330 136.839C330 138.516 328.061 139.448 326.75 138.4L292.5 111L21 111C9.95508 111 1 102.046 1 91L1 21C1 9.9541 9.95508 1 21 1Z" clip-rule="evenodd" fill="#FFFFFF" fill-opacity="1.000000" fill-rule="evenodd" mask="url(#mask_1_15505)"/>
	<path id="Union" d="M21 2L331 2Q338.869 2 344.436 7.56543Q350 13.1299 350 21L350 91Q350 98.8701 344.436 104.435Q338.869 110 331 110L329 110L329 136.839Q329 137.468 328.434 137.74Q327.867 138.013 327.375 137.619L292.852 110L21 110Q13.1289 110 7.56445 104.435Q2 98.8701 2 91L2 21Q2 13.1299 7.56445 7.56543Q13.1289 2 21 2ZM21 0Q12.3008 0 6.15039 6.15039Q0 12.3018 0 21L0 91Q0 99.6982 6.15039 105.85Q12.3008 112 21 112L292.5 112L292.5 111L291.875 111.781L326.125 139.182Q327.6 140.36 329.299 139.543Q331 138.726 331 136.839L331 111L330 111L330 112L331 112Q339.699 112 345.85 105.85Q352 99.6982 352 91L352 21Q352 12.3018 345.85 6.15039Q339.699 0 331 0L21 0Z" fill="url(#paint_linear_1_15505_0)" fill-opacity="1.000000" fill-rule="nonzero"/>
</svg>
