<svg width="38.000000" height="40.000000" viewBox="0 0 38 40" fill="none" xmlns="http://www.w3.org/2000/svg" xmlns:xlink="http://www.w3.org/1999/xlink">
	<desc>
			Created with Pixso.
	</desc>
	<defs>
		<linearGradient x1="0.000000" y1="19.749996" x2="37.699997" y2="19.749996" id="paint_linear_1_13002_0" gradientUnits="userSpaceOnUse">
			<stop stop-color="#F7941D"/>
			<stop offset="1.000000" stop-color="#27AAE1"/>
		</linearGradient>
	</defs>
	<path id="Vector" d="M9.69 34C9.69 33.4 9.9 32.9 10.09 32.5C10.4 31.9 10.9 31.29 11.4 30.9C11.5 30.79 11.59 30.79 11.69 30.7C12.19 30.4 13 30.2 13.59 30.2L24 30.2C24.59 30.2 25.19 30.4 25.59 30.59L26.09 30.9C26.59 31.29 26.9 31.5 27.3 32.09C27.69 32.7 27.9 33.5 27.9 34.2L27.9 37.9L24.9 37.9L24.9 35.5C24.9 35 24.09 34.5 23.5 35C23.4 35.09 23.3 35.4 23.3 35.5L23.3 37.79L14.3 37.79L14.3 35.59C14.3 35.2 14.09 34.9 13.8 34.79C13.59 34.7 13.4 34.7 13.09 34.79C13 34.9 12.9 34.9 12.8 35C12.69 35.09 12.59 35.29 12.59 35.59L12.59 37.79L9.59 37.79L9.59 34L9.69 34ZM13.9 28.5C13.5 28.5 13 28.5 12.59 28.59C12.5 28.59 12.4 28.59 12.3 28.7L11.5 29C11.09 29.2 11 29.29 10.59 29.5L10.19 29.79C9.8 30.2 9.19 30.79 8.9 31.29C8.5 32.09 8.09 33 8.09 34.09L8.09 38.7C8.09 39.09 8.5 39.5 8.9 39.5L28.69 39.5C29.19 39.5 29.59 39.09 29.59 38.59L29.59 34.4C29.59 32.4 28.8 30.7 27.19 29.59C27.19 29.59 27.09 29.59 27.09 29.5L26.8 29.29C26.19 29 25.9 28.9 25.19 28.7C24.9 28.59 24.3 28.59 23.9 28.59L13.9 28.59L13.9 28.5ZM16.09 24.59L15.8 24.4C15.59 24.2 15.3 23.79 15.09 23.5L14.69 22.59C14.59 22.2 14.5 21.7 14.5 21.2C14.5 20.9 14.59 20.5 14.59 20.2C14.69 19.9 14.8 19.59 14.9 19.4C15.09 18.9 15.19 18.79 15.5 18.4C15.59 18.29 15.69 18.2 15.8 18.09C17.19 16.7 19.5 16.4 21.19 17.59C21.3 17.59 21.3 17.7 21.3 17.7C22.3 18.4 23 19.79 23 21C23 21.5 23 21.7 22.9 22.2C22.8 22.59 22.8 22.59 22.59 23L22.3 23.5C22.3 23.5 22.3 23.5 22.3 23.59C22.3 23.59 22.3 23.7 22.19 23.7C21.69 24.4 21 24.9 20.19 25.2C19.69 25.4 19.3 25.5 18.8 25.5C17.9 25.5 16.9 25.2 16.09 24.59ZM17.3 15.5L16.8 15.7C16.59 15.79 16.5 15.79 16.3 15.9L16.09 16C16 16 16 16 16 16.09L15.4 16.4C14.69 16.9 14.19 17.5 13.69 18.2C13.69 18.29 13.59 18.29 13.59 18.4C13.19 19 12.9 20.2 12.9 20.9C12.9 21.59 12.9 22.29 13.19 23C13.3 23.09 13.3 23.29 13.4 23.5C13.8 24.4 14.09 24.7 14.8 25.4C15.09 25.7 15.5 25.9 15.8 26.2C15.9 26.2 15.9 26.29 16 26.29C16.5 26.59 16.69 26.7 17.3 26.79C17.69 26.9 18.59 27 18.9 27C19.3 26.9 19.5 27 20.19 26.79C20.59 26.7 21.19 26.5 21.5 26.29L21.69 26.2C22.19 25.9 22.19 25.9 22.59 25.59C22.69 25.5 22.69 25.5 22.8 25.4C22.9 25.29 22.9 25.29 23 25.2L23.3 24.79C24.5 23.29 25 21.5 24.5 19.59C24.19 18.59 23.69 17.59 23 16.79L22.9 16.7C22.9 16.7 22.9 16.7 22.8 16.7C22.4 16.4 22.5 16.4 22 16.09L21.3 15.7C20.69 15.4 19.69 15.09 19 15.09C18.9 15.09 18.9 15.09 18.8 15.09C18.3 15.29 18 15.29 17.3 15.5ZM29.59 15.59C29.59 15.4 29.69 15.2 29.69 15.09C29.8 14.4 29.9 14.29 29.3 13.79L28.19 12.7C28.09 12.59 28.09 12.59 28.19 12.59C28.3 12.5 29.9 12.4 30.19 12.29C30.3 12.29 30.5 12.2 30.59 12.09C30.59 12.09 30.69 12 30.69 11.9L31.59 10.09C31.59 10.2 32 10.9 32.09 11.09C32.69 12.29 32.5 12.2 33.8 12.4C34 12.4 34.19 12.5 34.4 12.5C34.5 12.5 35 12.59 35 12.59C35 12.59 35 12.59 35 12.7C34.9 12.79 34.9 12.79 34.9 12.79L34.19 13.5C34.09 13.59 34.09 13.59 34 13.7C33.8 13.9 33.69 14 33.59 14.2C33.4 14.5 33.59 15.2 33.69 15.59L33.9 16.7L32.9 16.2C32.69 16.09 32 15.7 31.9 15.7C31.4 15.7 31.4 15.79 30.9 16L30.4 16.09L29.9 16.4C29.9 16.4 29.8 16.4 29.8 16.5L29.4 16.7L29.59 15.59ZM31 7.7C30.8 7.9 30.4 8.7 30.3 9C30.3 9.09 30.3 9.09 30.19 9.2C30.09 9.4 29.59 10.4 29.4 10.7C29.4 10.79 29.4 10.79 29.19 10.79L28.3 10.9C28.09 10.9 27.9 11 27.69 11C27.3 11.09 26.3 11.2 26 11.29C25.69 11.4 25.5 11.7 25.5 12.09C25.5 12.29 25.59 12.5 25.69 12.59L26.69 13.59C27 13.9 27.3 14.2 27.59 14.4L27.69 14.4C27.9 14.5 28 14.7 28.09 14.79C28 15.09 27.9 16.09 27.8 16.4L27.59 17.59C27.59 17.9 27.4 18.2 27.69 18.59C27.9 18.79 28.09 18.9 28.4 18.9C28.59 18.9 29.09 18.59 29.4 18.5L29.69 18.29C29.8 18.2 29.9 18.2 30 18.09L31.5 17.29C31.59 17.29 31.59 17.29 31.8 17.4L34 18.5C34.19 18.59 34.4 18.79 34.69 18.79C35 18.79 35.19 18.79 35.4 18.59C35.8 18.2 35.59 17.7 35.5 17.09C35.5 17 35.5 16.79 35.4 16.7L35.09 14.7C35.19 14.7 35.19 14.59 35.3 14.59C35.59 14.4 36.5 13.4 37 12.9C37.3 12.59 37.59 12.4 37.69 12L37.69 11.79C37.69 11.7 37.69 11.7 37.59 11.59C37.4 11.09 37 11.09 36.59 11C36.4 11 36.19 10.9 36 10.9C35.8 10.9 35.59 10.79 35.4 10.79L34.3 10.59C33.69 10.5 33.9 10.7 33.59 10L32.69 8.29C32.69 8.2 32.69 8.2 32.59 8.09C32.4 7.79 32.5 7.7 32.19 7.5C32.09 7.4 31.9 7.29 31.59 7.29C31.4 7.4 31.19 7.5 31 7.7ZM4.09 15.09C4.19 14.79 4.19 14.5 4.09 14.2C4 14.09 4 14.09 3.9 14C3.69 13.79 3.59 13.7 3.5 13.59L2.59 12.7C2.9 12.59 4.09 12.5 4.5 12.4C4.69 12.4 4.9 12.29 5 12.2C5.09 12.09 5.19 11.9 5.3 11.7L5.8 10.7C5.9 10.59 6 10.29 6 10.2C6 10.29 6.4 11 6.5 11.2C6.59 11.4 6.9 12 7 12.2C7.3 12.5 7.69 12.5 8.09 12.5C8.3 12.5 9.3 12.7 9.4 12.7C9.3 12.79 8.3 13.79 8.09 14C8 14.09 7.9 14.09 7.9 14.2C7.69 14.5 7.8 14.79 7.9 15.2L8.19 16.79C7.9 16.59 7.5 16.5 7.19 16.29C7 16.2 6.4 15.79 6.19 15.79C5.69 15.79 5.69 15.9 5.19 16.09L3.9 16.79L4.09 15.09ZM5.5 7.7C5.3 7.9 4.9 8.7 4.8 9C4.8 9 4.8 9.09 4.69 9.09L3.9 10.79C3.8 10.9 3.69 10.9 3.4 10.9L1.69 11.09C1.4 11.09 0.8 11.2 0.59 11.29C0.3 11.4 0 11.7 0 12C0 12.5 0.19 12.59 0.5 12.9L1.5 13.9C1.69 14.09 2.5 14.79 2.5 14.9L2.09 17.4C2.09 17.7 2 17.9 2 18.29C2 18.79 2.59 19.29 3.3 18.9L5.8 17.59C5.9 17.59 5.9 17.5 6 17.5C6.09 17.59 6.19 17.59 6.3 17.7C6.4 17.7 6.4 17.7 6.5 17.79C6.69 17.9 7.4 18.2 7.59 18.4L8.69 19C8.8 19.09 8.8 19 8.8 19.2C9.19 19.2 9.5 19.2 9.69 19C10.09 18.7 9.9 18.2 9.8 17.7C9.69 17.4 9.69 17.2 9.69 16.9L9.5 15.79C9.5 15.7 9.4 15.5 9.4 15.4C9.4 15.09 9.3 15.2 9.69 14.9L10.69 13.9L11.09 13.5C11.59 13 12.3 12.5 11.8 11.9C11.69 11.7 11.5 11.59 11.19 11.59C10.5 11.5 9.59 11.4 8.8 11.29L8 11.2L7.59 10.29C7.5 10.2 6.59 8.29 6.5 8.2C6.3 8 6.09 7.9 5.9 7.9C5.8 7.4 5.59 7.5 5.5 7.7ZM17 7.29C17 7 17 6.79 16.9 6.7C16.8 6.59 16.5 6.29 16.4 6.2C16.19 6 15.5 5.4 15.4 5.29C15.5 5.29 15.9 5.2 16 5.2C16.3 5.2 17.4 5 17.59 4.9C17.8 4.79 17.9 4.7 18 4.5L18.59 3.29C18.59 3.29 18.59 3.2 18.69 3.2L18.9 2.79C19 2.9 19.59 4.09 19.69 4.29C19.9 4.59 20 5 20.4 5L21.69 5.2C21.8 5.2 21.9 5.2 22 5.2C22.09 5.2 22.19 5.2 22.3 5.2C22.3 5.29 22 5.5 21.9 5.59L20.8 6.7C20.59 7.09 20.69 7.5 20.8 7.9C20.8 8.09 20.9 8.29 20.9 8.5C20.9 8.59 20.9 8.7 20.9 8.79C20.9 8.9 21 9 21 9.09C20.9 9.09 20 8.59 19.69 8.4L19.09 8.09C18.9 8 18.59 8.09 18.3 8.29L17 9C16.9 9 16.8 9.09 16.69 9.09L17 7.29ZM18.3 0.2C18.09 0.4 17.8 1.09 17.59 1.5L16.69 3.2C16.59 3.4 16.69 3.29 16.3 3.4C16.09 3.4 15.9 3.5 15.69 3.5C15.19 3.59 13.69 3.79 13.4 3.79C13.09 3.9 12.8 4.2 12.8 4.5C12.8 5 13 5.09 13.3 5.4L13.8 5.9C13.9 6 13.9 6 14 6.09C14.19 6.29 14.4 6.5 14.69 6.79L15 7.09C15.09 7.2 15.19 7.4 15.3 7.4C15.3 7.59 15.19 8 15.19 8.2L14.9 9.79C14.8 10.2 14.59 10.9 15 11.2C15.3 11.5 15.69 11.5 16.09 11.29C16.19 11.2 16.4 11.2 16.5 11.09C16.9 10.79 17.9 10.4 18.4 10.09C18.5 10.09 18.8 9.9 18.8 9.9L21.09 11.09C21.4 11.29 22 11.7 22.5 11.2C22.9 10.79 22.69 10.29 22.59 9.7C22.5 9.4 22.5 9.09 22.4 8.7C22.3 8.4 22.3 8 22.19 7.7C22.09 7.2 22.09 7.4 22.5 7C22.59 6.9 22.69 6.79 22.8 6.7L24.3 5.29C24.59 5 24.69 4.9 24.69 4.5C24.69 4.09 24.4 3.9 24.19 3.79C24 3.79 21.8 3.4 21.5 3.4L20.9 3.29L19.59 0.59C19.4 0.2 19.19 0 18.69 0C18.59 0.09 18.4 0.09 18.3 0.2Z" fill="url(#paint_linear_1_13002_0)" fill-opacity="1.000000" fill-rule="nonzero"/>
</svg>
