<svg width="27.000000" height="43.000000" viewBox="0 0 27 43" fill="none" xmlns="http://www.w3.org/2000/svg" xmlns:xlink="http://www.w3.org/1999/xlink">
	<desc>
			Created with Pixso.
	</desc>
	<defs>
		<linearGradient x1="0.000000" y1="21.249998" x2="26.139259" y2="21.249998" id="paint_linear_1_12979_0" gradientUnits="userSpaceOnUse">
			<stop stop-color="#F7941D"/>
			<stop offset="1.000000" stop-color="#27AAE1"/>
		</linearGradient>
	</defs>
	<path id="Vector" d="M25.9 42.5L1 42.5C0.9 42.5 0.8 42.5 0.69 42.4C0.59 42.29 0.59 42.2 0.59 42.09L0.59 37C0.59 35.7 1.4 32.4 4.8 32.29L6.5 32.29L6.5 29.59C4.69 28.7 0 25.2 0 15.4C0.09 3.7 12.5 0 17 0L17.5 0C17.59 0 17.69 0 17.8 0.09C17.9 0.2 17.9 0.29 17.9 0.4L18 4.79L25.5 13.7L25.59 13.79C25.9 14.5 26.09 15.2 26.09 15.9C26.09 16.79 25.59 17.9 24.5 18.2C24 18.4 23.59 18.4 23.09 18.4C21.8 18.4 20.5 17.7 19.4 16.5C18.59 17.09 17.3 17.7 15.69 17.7C15.3 17.7 14.9 17.7 14.5 17.59C13.8 17.4 13.09 17.09 12.5 16.7C12.69 17.29 13 17.9 13.5 18.59C14.3 19.5 15.4 20 16.9 20C17.5 20 18 19.9 18.59 19.79L19 19.7C19.19 19.7 19.3 19.7 19.4 19.9L23.69 27.09C23.8 27.2 23.8 27.4 23.69 27.5L20.59 32.4L22.4 32.4L22.5 32.4C22.9 32.4 26.09 33.4 26.09 36.79L26.09 42.2C26.19 42.29 26.09 42.5 25.9 42.5ZM1.3 41.7L24.5 41.7L24.5 41.59L24.5 41.5L1.9 41.5C1.8 41.5 1.69 41.5 1.59 41.4C1.5 41.29 1.5 41.2 1.5 41.09L1.5 37.4L1.4 37.4L1.3 37.4L1.3 41.7ZM25.19 40.7L25.3 40.7L25.4 40.7L25.4 37L25.3 37L25.19 37L25.19 40.7ZM2.3 40.7L24.5 40.7L24.5 36.7C24.5 34.9 22.9 34.2 22.3 34.09L18.19 34.09C18.09 34.09 17.9 34 17.9 33.9C17.8 33.79 17.8 33.59 17.9 33.5L21.9 27.2L18.5 21.59C18.09 21.7 17.59 21.7 16.9 21.7C15.5 21.7 13.5 21.29 12.09 19.7C10.9 18.2 10.59 16.79 10.59 16C10.59 15.4 10.69 15 10.8 14.7C10.5 13.9 10.3 13.09 10.3 12.2C10.3 11.09 10.59 9.9 11.09 8.7C11.19 8.5 11.4 8.4 11.59 8.5L12.5 8.9C12.59 8.9 12.69 9 12.69 9.09C12.69 9.2 12.69 9.29 12.69 9.4C12.3 10.4 12.09 11.4 12.09 12.29C12.09 14.59 13.5 15.79 14.8 16.09C15.09 16.2 15.3 16.2 15.59 16.2C16.59 16.2 17.69 15.79 18.8 14.9L19.19 14.5C19.3 14.4 19.4 14.4 19.5 14.4C19.59 14.4 19.69 14.5 19.8 14.59L20.09 15.09C20.9 16.29 21.9 17 22.9 17C23.19 17 23.4 17 23.69 16.9C24.09 16.79 24.09 16.59 24.09 16.2C24.09 15.9 24 15.5 23.8 15L16.09 5.9C16 5.79 16 5.79 16 5.7L16 2.2C11.5 2.7 1.59 6.2 1.59 15.79C1.59 25.2 6.09 28 7.5 28.7C7.5 28.7 7.5 28.7 7.59 28.7L7.9 28.79C8 28.9 8.09 29 8.09 29.2L8.09 34.2C8.09 34.4 7.9 34.59 7.69 34.59L4.59 34.59C2.5 34.59 2.19 37.09 2.19 37.59L2.3 40.7ZM4.4 33C1.9 33.29 1.4 35.7 1.3 36.59L1.4 36.59L1.59 36.59C1.69 35.7 2.19 33.4 4.4 33.29L4.4 33.2C4.4 33.09 4.4 33.09 4.4 33ZM25.19 36.29L25.3 36.29L25.4 36.29C25.19 34.2 23.5 33.4 22.8 33.09L22.8 33.29C24 33.79 25.09 34.79 25.19 36.29ZM18.9 33.29L22 33.29L22 33.09L20 33.09C19.9 33.09 19.69 33 19.69 32.9C19.59 32.79 19.59 32.59 19.69 32.5L23 27.2L19.4 21.2L19.4 21.29C19.4 21.4 19.3 21.4 19.3 21.4L22.69 27C22.8 27.09 22.8 27.29 22.69 27.4L18.9 33.29ZM5.19 33.29L7.5 33.29L7.5 29.79C7.4 29.9 7.3 29.9 7.19 29.9L7.19 32.7C7.19 32.9 7 33.09 6.8 33.09L5.09 33.09L5.09 33.2L5.19 33.29ZM16.19 0.79C12.3 1.2 0.9 4.29 0.8 15.4C0.8 24.5 4.9 27.9 6.59 28.9C6.69 28.79 6.8 28.79 6.9 28.79C5.09 27.79 1 24.5 1 15.5C1 5.4 11.5 1.59 16.09 1.2L16.19 0.79ZM11.5 15.5C11.5 15.59 11.5 15.7 11.5 15.9C11.5 16.59 11.69 17.79 12.8 19.09C14 20.59 15.69 20.9 17 20.9C17.5 20.9 17.9 20.9 18.19 20.79C18.19 20.7 18.19 20.59 18.3 20.5C17.9 20.59 17.4 20.59 17 20.59C15.3 20.59 13.9 20 13 18.9C12.19 17.9 11.69 16.79 11.69 15.79L11.69 15.7C11.59 15.7 11.59 15.59 11.5 15.5ZM19.9 16C20.59 16.79 21.59 17.59 23 17.59C23.4 17.59 23.8 17.5 24.19 17.4C25 17.09 25.3 16.4 25.3 15.79C25.3 15.4 25.19 14.9 25 14.4L24.8 14.59C24.9 14.9 25.09 15.4 25 15.79C25 16.29 24.9 16.9 24.09 17.2C23.69 17.29 23.3 17.4 23 17.4C22 17.4 21 16.9 20.09 15.9L20 16C20 15.9 20 16 19.9 16ZM12.5 15.59C13.09 16.29 13.9 16.7 14.69 16.79C15 16.9 15.4 16.9 15.69 16.9C17 16.9 18.19 16.29 18.9 15.79L18.8 15.7L18.8 15.59C17.8 16.29 16.69 16.59 15.69 16.59C15.4 16.59 15.09 16.59 14.8 16.5C14 16.29 13.19 15.9 12.59 15.2C12.5 15.29 12.5 15.4 12.5 15.59ZM11.5 13.9C11.59 13.9 11.59 13.9 11.69 14L11.8 14.09C11.59 13.5 11.4 12.9 11.4 12.09C11.4 11.2 11.59 10.29 12 9.29L11.8 9.2C11.4 10.2 11.19 11.2 11.19 12.09C11.19 12.7 11.3 13.4 11.5 13.9ZM17 5.09L24.4 13.9L24.59 13.79L17.3 5.09C17.19 5 17.19 5 17.19 4.9L17.19 1.7C17.09 1.7 17 1.7 16.9 1.7L17 5.09Z" fill="url(#paint_linear_1_12979_0)" fill-opacity="1.000000" fill-rule="nonzero"/>
</svg>
