<svg width="98.000000" height="123.000000" viewBox="0 0 98 123" fill="none" xmlns="http://www.w3.org/2000/svg" xmlns:xlink="http://www.w3.org/1999/xlink">
	<desc>
			Created with Pixso.
	</desc>
	<defs>
		<linearGradient x1="10.283684" y1="71.257614" x2="73.315903" y2="41.743237" id="paint_linear_1_12856_0" gradientUnits="userSpaceOnUse">
			<stop stop-color="#F7941D"/>
			<stop offset="1.000000" stop-color="#27AAE1"/>
		</linearGradient>
	</defs>
	<path id="Vector" d="M31.36 41.29C31.36 41.29 31.19 42.8 32.16 44.88C33.05 46.79 34.96 49.21 38.94 51.1C43.22 53.18 47.68 52.08 50.94 50.56C53.75 49.24 55.53 47.63 55.62 47.59L55.94 47.33L74.37 59.79L72 78.79L79.52 75.27L79.61 75.23C79.61 75.23 88.07 73.25 91.67 80.95L91.4 81.08L91.67 80.95L91.4 81.08L91.67 80.95C95.11 88.29 97.48 93.36 97.48 93.36L97.69 93.81L36.16 122.52L30.52 110.47C30.52 110.47 25.95 100.24 34.6 96.08L40.67 93.24L36 83.28L36.46 83.07L36.49 83.6C36.4 83.65 16.81 85.2 3.33 56.4L3.28 56.31C-10.24 27.2 18.05 4.12 27.19 -0.16L27.65 -0.37L32.91 10.41L62.93 24.29L62.98 24.38C62.98 24.38 65.08 26.05 66.14 28.31C66.9 29.94 67.16 32.14 65.24 33.93C64.41 34.75 63.5 35.4 62.5 35.87C58.79 37.61 54.34 36.6 50.51 34.31L50.74 33.87L51.18 34.1C51.18 34.1 48.75 40.21 43.04 42.88C42.23 43.26 41.28 43.6 40.38 43.8C34.84 44.95 28.73 42.51 25.73 35.86C24.58 33.42 23.81 30.35 23.64 26.68L24.62 26.66C24.71 30.15 25.44 33.12 26.54 35.48C29.47 41.73 35.05 43.97 40.18 42.9C41.08 42.7 41.84 42.45 42.66 42.07C47.91 39.61 50.3 33.85 50.3 33.85L50.49 33.32L50.97 33.65C54.67 35.89 58.81 36.71 62.07 35.19C62.98 34.76 63.71 34.2 64.58 33.46C66.09 31.98 65.95 30.5 65.23 28.96C64.3 26.97 62.37 25.44 62.37 25.44L62.65 25.09L62.41 25.53L32.13 11.56L26.9 0.86L27.35 0.65L27.56 1.1C18.6 5.3 -9.1 27.99 4.13 56.24L4.18 56.33C17.49 84.77 36.28 82.93 36.33 83.02L36.64 82.98L41.9 94.21L34.92 97.48C27.18 100.99 31.32 110.54 31.32 110.54L30.87 110.75L31.32 110.54L36.54 121.68L96.72 93.61L96.93 94.06L96.47 94.27C96.47 94.27 94.14 89.29 90.66 81.87L91.12 81.65L90.66 81.87C87.4 74.89 79.75 76.71 79.71 76.62L79.58 76.12L79.8 76.58L70.65 80.86L73.23 60.66L55.59 48.71L55.83 48.27L56.13 48.68C56.13 48.68 54.16 50.37 51.27 51.73C47.92 53.3 43.19 54.52 38.37 52.25C34.22 50.22 32.14 47.66 31.16 45.57C30.1 43.31 30.28 41.57 30.24 41.48L31.36 41.29Z" fill="url(#paint_linear_1_12856_0)" fill-opacity="1.000000" fill-rule="nonzero"/>
</svg>
