<svg width="40.000000" height="32.000000" viewBox="0 0 40 32" fill="none" xmlns="http://www.w3.org/2000/svg" xmlns:xlink="http://www.w3.org/1999/xlink">
	<desc>
			Created with Pixso.
	</desc>
	<defs>
		<linearGradient x1="0.000000" y1="15.699997" x2="39.099998" y2="15.699997" id="paint_linear_1_13000_0" gradientUnits="userSpaceOnUse">
			<stop stop-color="#F7941D"/>
			<stop offset="1.000000" stop-color="#27AAE1"/>
		</linearGradient>
	</defs>
	<path id="Vector" d="M18.19 28.2C18.19 27.29 18.9 26.59 19.8 26.59C20.69 26.59 21.4 27.29 21.4 28.2C21.4 29.09 20.69 29.79 19.8 29.79C19 29.79 18.19 29.09 18.19 28.2ZM16.69 27.4L0.8 27.4C0.4 27.4 0 27.79 0 28.2C0 28.59 0.4 29 0.8 29L16.69 29C17.09 30.4 18.3 31.4 19.8 31.4C21.3 31.4 22.5 30.4 22.9 29L38.3 29C38.69 29 39.09 28.59 39.09 28.2C39.09 27.79 38.69 27.4 38.3 27.4L22.9 27.4C22.5 26 21.3 25 19.8 25C18.3 25 17.09 26 16.69 27.4ZM16.59 7.59L22 11.4L16.59 15.2L16.59 7.59ZM15.4 5.29C15.09 5.4 15 5.7 15 6L15 16.79C15 17.09 15.19 17.4 15.4 17.5C15.8 17.7 16.09 17.5 16.19 17.4L23.8 12C24 11.79 24.09 11.59 24.09 11.29C24.09 11 24 10.79 23.8 10.59L16.19 5.2C16.09 5.09 15.9 5.09 15.69 5.09C15.69 5.29 15.5 5.29 15.4 5.29ZM1.69 20.9L1.69 2.09C1.69 1.9 1.9 1.7 2.09 1.7L37.09 1.7C37.3 1.7 37.5 1.9 37.5 2.09L37.5 20.9C37.5 21.09 37.3 21.29 37.09 21.29L2.09 21.29C1.9 21.2 1.69 21.09 1.69 20.9ZM2.09 0C1 0 0.09 0.9 0.09 2L0.09 20.79C0.09 21.9 1 22.79 2.09 22.79L37.09 22.79C38.19 22.79 39.09 21.9 39.09 20.79L39.09 2C39.09 0.9 38.19 0 37.09 0L2.09 0Z" fill="url(#paint_linear_1_13000_0)" fill-opacity="1.000000" fill-rule="nonzero"/>
</svg>
