<svg width="33.000000" height="40.000000" viewBox="0 0 33 40" fill="none" xmlns="http://www.w3.org/2000/svg" xmlns:xlink="http://www.w3.org/1999/xlink">
	<desc>
			Created with Pixso.
	</desc>
	<defs>
		<linearGradient x1="0.000000" y1="19.599993" x2="32.464706" y2="19.599993" id="paint_linear_1_12996_0" gradientUnits="userSpaceOnUse">
			<stop stop-color="#F7941D"/>
			<stop offset="1.000000" stop-color="#27AAE1"/>
		</linearGradient>
	</defs>
	<path id="Vector" d="M3.52 35.2L17.42 31.5L18.12 34L4.22 37.7L3.52 35.2ZM6.02 30C6.52 28.09 6.52 26 6.02 24.09L5.12 20.9L9.02 19.9L9.92 23.09C10.42 25 11.42 26.79 12.82 28.2C13.62 29.09 14.62 29.79 15.72 30.4L4.72 33.4C5.22 32.29 5.72 31.2 6.02 30ZM2.92 16C2.82 15.79 2.82 15.59 2.92 15.5C3.02 15.29 3.12 15.2 3.32 15.2L7.62 14C7.82 14 8.02 14 8.12 14.09C8.22 14.2 8.32 14.4 8.32 14.59L8.42 18.5L4.92 19.5L2.92 16ZM15.42 21.9C16.52 21.29 17.42 20.59 18.32 19.7C19.72 18.29 20.72 16.5 21.22 14.59L22.12 11.4L27.22 12.79L26.32 16C25.82 17.9 25.82 20 26.32 21.9C26.62 23.09 27.12 24.2 27.72 25.2L15.42 21.9ZM2.12 12L1.62 10.29C2.32 9.79 2.82 9.09 2.82 8.2L4.52 7.7C4.72 8.09 5.02 8.4 5.42 8.59C5.82 8.79 6.22 8.9 6.62 8.9L7.12 10.59C6.72 10.79 6.42 11.09 6.22 11.5C6.02 11.9 5.92 12.29 5.92 12.7L4.22 13.2C3.72 12.5 2.92 12 2.12 12ZM22.82 10C23.22 8.29 23.22 6.5 22.82 4.79C23.22 5.09 23.62 5.5 23.82 5.9C24.02 6.29 24.52 6.4 24.82 6.2C25.22 6 25.72 5.79 26.22 5.7C26.62 6 26.92 6.4 27.22 6.79C27.42 7.2 27.92 7.29 28.22 7.09C28.72 6.79 29.22 6.7 29.72 6.59C28.62 7.9 27.72 9.4 27.22 11.09L22.82 10ZM26.72 4.29C26.12 4.09 25.72 3.5 25.82 2.79C25.92 2.29 26.42 1.9 27.02 1.9C27.12 1.9 27.22 1.9 27.32 1.9C27.62 2 27.92 2.2 28.02 2.5C28.22 2.79 28.22 3.09 28.12 3.4C28.02 3.9 27.52 4.29 26.92 4.29C26.92 4.29 26.82 4.29 26.72 4.29ZM24.42 2.4C24.22 3.09 24.32 3.79 24.62 4.4C23.92 3.59 23.02 3 21.92 2.79C21.62 2.7 21.32 2.79 21.22 3C21.02 3.2 20.92 3.5 21.02 3.79C21.62 5.7 21.72 7.79 21.32 9.7L21.02 9.59C20.62 9.5 20.22 9.7 20.12 10.09C20.02 10.5 20.22 10.9 20.62 11L19.72 14.2C18.82 17.59 16.12 20.29 12.82 21.29C12.52 21.4 12.42 21.59 12.32 21.79L11.72 24C11.52 23.59 11.42 23.2 11.32 22.7L10.42 19.5L10.72 19.4C11.12 19.29 11.32 18.9 11.22 18.5C11.12 18.09 10.72 17.9 10.32 18L9.92 18.09L9.82 14.5C9.82 13.79 9.52 13.2 9.02 12.79C8.62 12.5 8.02 12.29 7.52 12.4C7.52 12.4 7.52 12.29 7.62 12.29C7.72 12.09 8.02 11.9 8.22 11.79C8.42 11.7 8.62 11.59 8.72 11.4C8.82 11.2 8.82 11 8.82 10.79L8.02 7.9C7.92 7.7 7.82 7.5 7.62 7.4C7.42 7.29 7.22 7.29 7.02 7.29C6.72 7.4 6.42 7.29 6.22 7.2C6.02 7.09 5.82 6.79 5.72 6.59C5.62 6.4 5.52 6.2 5.32 6.09C5.12 6 4.92 6 4.72 6L1.82 6.79C1.62 6.9 1.42 7 1.32 7.2C1.22 7.4 1.22 7.59 1.22 7.79C1.32 8.09 1.22 8.4 1.12 8.59C1.02 8.79 0.72 9 0.52 9.09C0.12 9.2 -0.08 9.59 0.02 10L0.82 12.9C0.92 13.29 1.32 13.5 1.72 13.4C2.02 13.29 2.42 13.4 2.62 13.59C2.12 13.79 1.72 14.2 1.52 14.7C1.22 15.29 1.32 16 1.62 16.59L3.32 19.7L2.92 19.79C2.52 19.9 2.32 20.29 2.42 20.7C2.52 21 2.82 21.29 3.12 21.29C3.22 21.29 3.22 21.29 3.32 21.29L3.62 21.2L4.52 24.4C5.42 27.79 4.52 31.5 2.12 34C1.92 34.2 1.82 34.5 1.92 34.7L3.02 38.59C3.12 38.79 3.22 39 3.42 39.09C3.52 39.2 3.62 39.2 3.82 39.2C3.92 39.2 3.92 39.2 4.02 39.2L19.42 35.09C19.62 35 19.82 34.9 19.92 34.7C20.02 34.5 20.02 34.29 20.02 34.09L18.92 30.2C18.82 29.9 18.62 29.7 18.42 29.7C16.82 29.2 15.42 28.29 14.22 27.2L18.02 28.2C18.42 28.29 18.82 28.09 18.92 27.7C19.02 27.29 18.82 26.9 18.42 26.79L13.12 25.4L13.82 22.9L28.92 26.9L28.22 29.4L22.92 28C22.52 27.9 22.12 28.09 22.02 28.5C21.92 28.9 22.12 29.29 22.52 29.4L28.52 31C28.62 31 28.62 31 28.72 31C28.82 31 29.02 31 29.12 30.9C29.32 30.79 29.42 30.59 29.52 30.4L30.62 26.4C30.72 26.09 30.62 25.9 30.42 25.7C28.02 23.09 27.12 19.5 28.02 16.09L28.92 12.9L29.02 12.9C29.32 12.9 29.62 12.7 29.72 12.29C29.82 11.9 29.62 11.5 29.22 11.4L28.92 11.29C29.52 9.4 30.72 7.7 32.22 6.29C32.42 6.09 32.52 5.79 32.42 5.59C32.32 5.29 32.12 5.09 31.92 5C30.92 4.7 29.82 4.79 28.82 5.09C29.42 4.7 29.82 4.2 30.02 3.5C30.22 2.79 30.12 2.09 29.72 1.4C29.32 0.79 28.72 0.29 28.02 0.09C27.82 0 27.52 0 27.32 0C25.82 0.4 24.72 1.2 24.42 2.4Z" fill="url(#paint_linear_1_12996_0)" fill-opacity="1.000000" fill-rule="nonzero"/>
</svg>
