<svg width="49.000000" height="36.000000" viewBox="0 0 49 36" fill="none" xmlns="http://www.w3.org/2000/svg" xmlns:xlink="http://www.w3.org/1999/xlink">
	<desc>
			Created with Pixso.
	</desc>
	<defs>
		<linearGradient x1="0.000000" y1="17.950012" x2="48.200001" y2="17.950012" id="paint_linear_1_13006_0" gradientUnits="userSpaceOnUse">
			<stop stop-color="#F7941D"/>
			<stop offset="1.000000" stop-color="#27AAE1"/>
		</linearGradient>
	</defs>
	<path id="Vector" d="M23.4 34.2C23.19 34.4 23.09 34.59 23.09 34.9C23.09 35.09 23.19 35.4 23.4 35.59C23.59 35.79 23.8 35.9 24.09 35.9C24.4 35.9 24.59 35.79 24.8 35.59C25 35.4 25.09 35.2 25.09 34.9C25.09 34.7 25 34.4 24.8 34.2C24.59 34 24.4 33.9 24.09 33.9C23.8 33.9 23.59 34 23.4 34.2ZM15.8 17.2L13.4 19.59L12.69 18.9C12.3 18.5 11.69 18.5 11.4 18.9C11 19.29 11 19.9 11.4 20.2L12.69 21.5C12.9 21.7 13.09 21.79 13.4 21.79C13.59 21.79 13.9 21.7 14.09 21.5L17.09 18.5C17.5 18.09 17.5 17.5 17.09 17.2C16.9 17 16.69 16.9 16.4 16.9C16.19 16.9 16 17 15.8 17.2ZM33.8 16.9L33.8 18.7C33.5 18.5 33 18.59 32.8 18.9C32.4 19.29 32.4 19.9 32.8 20.2L34.09 21.5C34.3 21.7 34.5 21.79 34.8 21.79C34.9 21.79 35 21.79 35.19 21.7C35.59 21.59 35.8 21.2 35.8 20.79L35.8 16.79C35.8 16.29 35.4 15.9 34.9 15.9C34.19 16 33.8 16.4 33.8 16.9ZM5.59 20.9C5.59 16.59 9.09 13.09 13.4 13.09C17.69 13.09 21.19 16.59 21.19 20.9C21.19 25.2 17.69 28.7 13.4 28.7C9.09 28.7 5.59 25.2 5.59 20.9ZM3.69 20.9C3.69 26.29 8.09 30.59 13.4 30.59C18.8 30.59 23.09 26.2 23.09 20.9C23.09 15.59 18.69 11.2 13.4 11.2C8.09 11.2 3.69 15.59 3.69 20.9ZM26.9 20.9C26.9 16.59 30.4 13.09 34.69 13.09C39 13.09 42.5 16.59 42.5 20.9C42.5 25.2 39 28.7 34.69 28.7C30.4 28.7 26.9 25.2 26.9 20.9ZM25 20.9C25 26.29 29.4 30.59 34.69 30.59C40.09 30.59 44.4 26.2 44.4 20.9C44.4 15.59 40 11.2 34.69 11.2C29.4 11.2 25 15.59 25 20.9ZM32 0C31.5 0 31.09 0.4 31.09 0.9C31.09 1.4 31.5 1.79 32 1.79L33.8 1.79L33.8 5.9L14.4 5.9L14.4 3.59L16.19 3.59C16.69 3.59 17.09 3.2 17.09 2.7C17.09 2.2 16.69 1.79 16.19 1.79L10.69 1.79C10.19 1.79 9.8 2.2 9.8 2.7C9.8 3.2 10.19 3.59 10.69 3.59L12.5 3.59L12.5 5.9L2.8 5.9C1.19 5.9 0 7.2 0 8.7L0 32.79C0 34.4 1.3 35.59 2.8 35.59L19.8 35.59C20.3 35.59 20.69 35.2 20.69 34.7C20.69 34.2 20.3 33.79 19.8 33.79L2.8 33.79C2.3 33.79 1.9 33.4 1.9 32.9L1.9 8.79C1.9 8.29 2.3 7.9 2.8 7.9L45.4 7.9C45.9 7.9 46.3 8.29 46.3 8.79L46.3 32.9C46.3 33.4 45.9 33.79 45.4 33.79L28.4 33.79C27.9 33.79 27.5 34.2 27.5 34.7C27.5 35.2 27.9 35.59 28.4 35.59L45.4 35.59C47 35.59 48.19 34.29 48.19 32.79L48.19 8.7C48.19 7.09 46.9 5.9 45.4 5.9L35.69 5.9L35.69 1.79L37.5 1.79C38 1.79 38.4 1.4 38.4 0.9C38.4 0.4 38 0 37.5 0L32 0Z" fill="url(#paint_linear_1_13006_0)" fill-opacity="1.000000" fill-rule="nonzero"/>
</svg>
