<svg width="165.000000" height="137.000000" viewBox="0 0 165 137" fill="none" xmlns="http://www.w3.org/2000/svg" xmlns:xlink="http://www.w3.org/1999/xlink">
	<desc>
			Created with Pixso.
	</desc>
	<defs>
		<linearGradient x1="0.000000" y1="68.384995" x2="164.650101" y2="68.384995" id="paint_linear_1_12915_0" gradientUnits="userSpaceOnUse">
			<stop stop-color="#F7941D"/>
			<stop offset="1.000000" stop-color="#27AAE1"/>
		</linearGradient>
	</defs>
	<path id="Vector" d="M78.01 2.42L0.81 128.57C-1.35 132.24 1.02 136.77 5.12 136.77L82.32 136.77L159.52 136.77C163.62 136.77 165.99 132.02 163.83 128.57L86.63 2.42C84.48 -0.81 79.95 -0.81 78.01 2.42Z" fill="#FFFFFF" fill-opacity="1.000000" fill-rule="nonzero"/>
	<path id="Vector" d="M78.01 2.42L0.81 128.57C-1.35 132.24 1.02 136.77 5.12 136.77L159.52 136.77C163.62 136.77 165.99 132.02 163.83 128.57L86.63 2.42C84.48 -0.81 79.95 -0.81 78.01 2.42ZM84.95 3.5Q84.35 2.62 83.53 2.26Q82.94 2 82.24 2Q81.47 2 80.87 2.31Q80.19 2.68 79.72 3.45L2.52 129.6Q1.94 130.6 1.97 131.58Q1.99 132.35 2.39 133.11Q2.83 133.94 3.51 134.36Q4.19 134.77 5.12 134.77L159.52 134.77Q160.35 134.77 160.98 134.42Q161.75 133.99 162.25 133.04Q162.73 132.1 162.67 131.19Q162.61 130.39 162.14 129.63L84.95 3.5Z" fill="url(#paint_linear_1_12915_0)" fill-opacity="1.000000" fill-rule="evenodd"/>
</svg>
