<svg width="230.000000" height="229.000000" viewBox="0 0 230 229" fill="none" xmlns="http://www.w3.org/2000/svg" xmlns:xlink="http://www.w3.org/1999/xlink">
	<desc>
			Created with Pixso.
	</desc>
	<defs>
		<linearGradient x1="0.000000" y1="114.107208" x2="229.999924" y2="114.107208" id="paint_linear_1_12913_0" gradientUnits="userSpaceOnUse">
			<stop stop-color="#F7941D"/>
			<stop offset="1.000000" stop-color="#27AAE1"/>
		</linearGradient>
	</defs>
	<path id="Vector" d="M227.37 46.67L182.3 1.59C179.16 -1.55 173.57 -1.55 170.42 1.59L120.8 51.21C117.66 54.35 112.07 54.35 108.93 51.21L59.31 1.59C56.16 -1.55 50.57 -1.55 47.43 1.59L2.35 46.67C-0.79 49.81 -0.79 55.4 2.35 58.55L51.97 108.16C55.11 111.31 55.11 116.9 51.97 120.04L2.35 169.66C-0.79 172.8 -0.79 178.39 2.35 181.54L47.43 226.61C50.57 229.76 56.16 229.76 59.31 226.61L108.93 177C112.07 173.85 117.66 173.85 120.8 177L170.42 226.61C173.57 229.76 179.16 229.76 182.3 226.61L227.37 181.54C230.52 178.39 230.52 172.8 227.37 169.66L177.76 120.04C174.61 116.9 174.61 111.31 177.76 108.16L227.37 58.55C230.87 55.4 230.87 50.16 227.37 46.67Z" fill="#FFFFFF" fill-opacity="1.000000" fill-rule="nonzero"/>
	<path id="Vector" d="M227.37 58.55C230.87 55.4 230.87 50.16 227.37 46.67L182.3 1.59C179.16 -1.55 173.57 -1.55 170.42 1.59L120.8 51.21C117.66 54.35 112.07 54.35 108.93 51.21L59.31 1.59C56.16 -1.55 50.57 -1.55 47.43 1.59L2.35 46.67C-0.79 49.81 -0.79 55.4 2.35 58.55L51.97 108.16C55.11 111.31 55.11 116.9 51.97 120.04L2.35 169.66C-0.79 172.8 -0.79 178.39 2.35 181.54L47.43 226.61C50.57 229.76 56.16 229.76 59.31 226.61L108.93 177C112.07 173.85 117.66 173.85 120.8 177L170.42 226.61C173.57 229.76 179.16 229.76 182.3 226.61L227.37 181.54C230.52 178.39 230.52 172.8 227.37 169.66L177.76 120.04C174.61 116.9 174.61 111.31 177.76 108.16L227.37 58.55ZM179.56 2Q180.28 2.4 180.89 3.01L225.96 48.08Q227.3 49.42 227.76 51.01Q228 51.84 228 52.74Q228 53.91 227.59 54.91Q227.1 56.1 226.04 57.06L226 57.09L176.35 106.75Q175.16 107.93 174.45 109.36Q173.4 111.47 173.4 114.1Q173.4 116.74 174.45 118.85Q175.16 120.27 176.35 121.46L225.96 171.07Q226.57 171.68 226.97 172.4Q227.73 173.79 227.73 175.6Q227.73 177.41 226.97 178.8Q226.57 179.52 225.96 180.13L180.89 225.2Q180.28 225.81 179.56 226.2Q178.17 226.97 176.36 226.97Q174.55 226.97 173.16 226.21Q172.44 225.81 171.84 225.2L122.22 175.58Q121.03 174.4 119.61 173.69Q117.5 172.64 114.86 172.64Q112.23 172.64 110.12 173.69Q108.69 174.4 107.51 175.58L57.89 225.2Q57.29 225.81 56.57 226.2Q55.18 226.97 53.37 226.97Q51.56 226.97 50.17 226.2Q49.45 225.81 48.84 225.2L3.77 180.13Q3.16 179.52 2.76 178.8Q2 177.41 2 175.6Q2 173.79 2.76 172.4Q3.16 171.68 3.77 171.07L53.38 121.46Q54.57 120.27 55.28 118.85Q56.33 116.74 56.33 114.1Q56.33 111.47 55.28 109.36Q54.57 107.93 53.38 106.75L3.77 57.13Q3.16 56.53 2.76 55.8Q2 54.42 2 52.61Q2 50.79 2.76 49.41Q3.16 48.69 3.77 48.08L48.84 3.01Q49.45 2.4 50.17 2Q51.56 1.23 53.37 1.23Q55.18 1.23 56.57 2Q57.29 2.4 57.89 3.01L107.51 52.62Q108.69 53.81 110.12 54.52Q112.23 55.57 114.86 55.57Q117.5 55.57 119.61 54.52Q121.03 53.81 122.22 52.62L171.84 3.01Q172.44 2.4 173.16 2Q174.55 1.23 176.36 1.23Q178.17 1.23 179.56 2Z" fill="url(#paint_linear_1_12913_0)" fill-opacity="1.000000" fill-rule="evenodd"/>
</svg>
