<svg width="130.000000" height="130.000000" viewBox="0 0 130 130" fill="none" xmlns="http://www.w3.org/2000/svg" xmlns:xlink="http://www.w3.org/1999/xlink">
	<desc>
			Created with Pixso.
	</desc>
	<defs>
		<linearGradient x1="-0.148438" y1="64.431641" x2="129.999847" y2="64.431641" id="paint_linear_1_9912_0" gradientUnits="userSpaceOnUse">
			<stop stop-color="#F7941D"/>
			<stop offset="1.000000" stop-color="#27AAE1"/>
		</linearGradient>
	</defs>
	<path id="Vector" d="M128.51 32.99C130.49 31.21 130.49 28.24 128.51 26.27L103.01 0.76C101.23 -1.02 98.06 -1.02 96.28 0.76L68.21 28.84C66.43 30.62 63.26 30.62 61.49 28.84L33.41 0.76C31.63 -1.02 28.47 -1.02 26.69 0.76L1.18 26.27C-0.6 28.05 -0.6 31.21 1.18 32.99L29.26 61.07C31.04 62.84 31.04 66.01 29.26 67.79L1.18 95.86C-0.6 97.64 -0.6 100.81 1.18 102.59L26.69 128.09C28.47 129.87 31.63 129.87 33.41 128.09L61.49 100.02C63.26 98.24 66.43 98.24 68.21 100.02L96.28 128.09C98.06 129.87 101.23 129.87 103.01 128.09L128.51 102.59C130.29 100.81 130.29 97.64 128.51 95.86L100.44 67.79C98.66 66.01 98.66 62.84 100.44 61.07L128.51 32.99ZM99.65 1.2Q100.62 1.2 101.59 2.18L127.1 27.68Q127.73 28.31 127.92 29.05Q128 29.37 128 29.7Q128 30.17 127.84 30.58Q127.63 31.09 127.18 31.5L127.14 31.54L99.02 59.65Q98.23 60.45 97.76 61.41Q97.1 62.76 97.1 64.43Q97.1 66.1 97.76 67.45Q98.23 68.41 99.02 69.2L127.1 97.28Q127.32 97.5 127.47 97.76Q127.85 98.38 127.85 99.23Q127.85 100.07 127.47 100.69Q127.32 100.95 127.1 101.17L101.59 126.68Q101.37 126.9 101.11 127.05Q100.49 127.43 99.65 127.43Q98.8 127.43 98.18 127.05Q97.92 126.9 97.7 126.68L69.62 98.6Q68.83 97.8 67.87 97.34Q66.52 96.68 64.85 96.68Q63.18 96.68 61.83 97.34Q60.87 97.8 60.07 98.6L32 126.68Q31.77 126.9 31.52 127.05Q30.89 127.43 30.05 127.43Q29.2 127.43 28.58 127.05Q28.32 126.9 28.1 126.68L2.59 101.17Q1.62 100.2 1.62 99.23Q1.62 98.25 2.59 97.28L30.67 69.2Q31.47 68.41 31.93 67.45Q32.59 66.1 32.59 64.43Q32.59 62.76 31.93 61.41Q31.47 60.45 30.67 59.65L2.59 31.58Q2.38 31.36 2.22 31.1Q1.85 30.47 1.85 29.63Q1.85 28.78 2.22 28.16Q2.38 27.9 2.59 27.68L28.1 2.18Q28.32 1.95 28.58 1.8Q29.2 1.43 30.05 1.43Q30.89 1.43 31.52 1.8Q31.77 1.95 32 2.18L60.07 30.25Q60.87 31.05 61.83 31.51Q63.18 32.17 64.85 32.17Q66.52 32.17 67.87 31.51Q68.83 31.05 69.62 30.25L97.7 2.18Q98.67 1.2 99.65 1.2Z" fill="url(#paint_linear_1_9912_0)" fill-opacity="1.000000" fill-rule="evenodd"/>
</svg>
