<svg width="26.000000" height="41.000000" viewBox="0 0 26 41" fill="none" xmlns="http://www.w3.org/2000/svg" xmlns:xlink="http://www.w3.org/1999/xlink">
	<desc>
			Created with Pixso.
	</desc>
	<defs>
		<linearGradient x1="0.000000" y1="20.207600" x2="25.799982" y2="20.207600" id="paint_linear_1_12965_0" gradientUnits="userSpaceOnUse">
			<stop stop-color="#F7941D"/>
			<stop offset="1.000000" stop-color="#27AAE1"/>
		</linearGradient>
	</defs>
	<path id="Vector" d="M1.59 37.21L23.8 37.21L23.8 39.11L1.59 39.11L1.59 37.21ZM3.3 34.41C3.3 33.71 3.4 33.31 4.3 33.31C9.9 33.31 15.5 33.31 21.09 33.31C22 33.31 22.09 33.71 22.09 34.41C22.09 35.11 21.9 35.41 21.09 35.41C18.3 35.41 15.5 35.41 12.69 35.41C9.9 35.41 7.09 35.41 4.3 35.41C3.59 35.41 3.3 35.21 3.3 34.41ZM15.69 14.91C16.4 14.91 16.59 15.21 16.59 15.81C16.59 19.41 16.69 23.01 17.69 26.41C18.09 27.91 18.69 29.31 19.19 30.81C19.3 31.01 19.4 31.31 19.5 31.61L6 31.61C6.09 31.31 6.19 31.11 6.3 30.91C7.8 27.71 8.5 24.41 8.69 20.91C8.8 19.21 8.9 17.41 8.9 15.71C8.9 15.11 9.09 14.91 9.69 14.91C10.8 14.91 11.8 14.91 12.9 14.91C13.8 14.91 14.69 14.91 15.69 14.91ZM5.19 12.31C5.19 11.71 5.09 11.11 6.09 11.11C10.5 11.11 14.9 11.11 19.3 11.11C20.09 11.11 20.19 11.41 20.19 12.11C20.19 12.71 20.3 13.21 19.3 13.21C17.09 13.11 14.8 13.21 12.59 13.21C10.4 13.21 8.3 13.21 6.09 13.21C6.09 13.21 6.09 13.21 6 13.21C5.4 13.21 5.19 13.01 5.19 12.31ZM3.3 8.51C3.3 6.61 3.4 4.71 3.3 2.81C3.3 1.91 3.8 1.91 4.4 1.91C5 1.91 5.5 2.01 5.4 2.81C5.3 3.41 5.4 4.11 5.4 4.71C5.4 5.31 5.69 5.61 6.3 5.61C7.5 5.61 8.69 5.61 9.9 5.61C10.5 5.61 10.8 5.31 10.8 4.71C10.8 4.01 10.8 3.31 10.8 2.61C10.8 2.11 11 1.91 11.5 1.91C12.4 1.91 13.19 1.91 14.09 1.91C14.59 1.91 14.69 2.11 14.69 2.61C14.69 3.31 14.69 4.01 14.69 4.71C14.69 5.31 15 5.61 15.59 5.61C16.8 5.61 18 5.61 19.19 5.61C19.8 5.61 20.09 5.31 20.09 4.71C20.09 4.01 20.09 3.41 20.09 2.71C20 1.91 20.59 1.91 21.09 1.91C21.19 1.91 21.19 1.91 21.3 1.91C21.8 1.91 22.19 1.91 22.19 2.71C22.19 4.71 22.19 6.71 22.19 8.71C22.19 9.31 22 9.51 21.4 9.51C18.5 9.51 15.69 9.51 12.8 9.51C12 9.51 11.19 9.51 10.4 9.51C8.4 9.51 6.4 9.51 4.3 9.51C4.3 9.51 4.3 9.51 4.19 9.51C3.5 9.51 3.3 9.21 3.3 8.51ZM18.3 1.41L18.3 3.81L16.3 3.81C16.3 2.91 16.3 2.11 16.3 1.31C16.3 0.51 16 0.21 15.19 0.21C13.5 0.21 11.8 0.21 10.19 0.21C9.4 0.21 9.09 0.51 9.09 1.31C9.09 2.11 9.09 3.01 9.09 3.81L7.09 3.81C7.09 2.91 7.09 2.11 7.09 1.21C7.09 0.51 6.8 0.11 6 0.11C5.4 0.11 4.69 0.11 4.09 0.11C3.69 0.11 3.4 0.11 3 0.11C1.9 0.11 1.69 0.41 1.69 1.41C1.69 4.11 1.69 6.91 1.69 9.61C1.69 10.71 1.8 10.91 2.9 10.91C3.4 10.91 3.59 11.11 3.59 11.71C3.59 12.31 3.59 13.01 3.59 13.61C3.59 14.41 4 14.71 4.69 14.71C5.5 14.71 6.3 14.71 7.09 14.71C7.09 16.81 7.19 18.71 7.09 20.71C6.9 24.11 6.19 27.41 4.59 30.41C4.19 31.11 3.8 31.51 3 31.41C2.09 31.31 1.8 31.71 1.8 32.61C1.8 33.21 1.8 33.81 1.8 34.31C1.8 34.91 1.69 35.21 1 35.11C0.3 35.01 0 35.41 0 36.11C0 37.21 0 38.21 0 39.31C0 40.11 0.3 40.41 1.09 40.41C2.9 40.41 4.69 40.41 6.59 40.41C12.59 40.41 18.5 40.41 24.5 40.41C25.59 40.41 25.8 40.21 25.8 39.11C25.8 38.11 25.8 37.21 25.8 36.21C25.8 35.41 25.59 34.91 24.69 35.01C24.19 35.01 24 34.81 24 34.31C24 33.61 24 33.01 24 32.31C24 31.61 23.59 31.21 23 31.31C21.8 31.51 21.4 30.81 21 29.91C20.69 29.31 20.4 28.61 20.19 28.01C18.9 24.61 18.59 21.01 18.5 17.41C18.5 16.51 18.5 15.51 18.5 14.51C19.4 14.51 20.19 14.51 21.09 14.51C21.8 14.51 22.19 14.21 22.19 13.41C22.19 12.81 22.19 12.21 22.19 11.61C22.19 11.01 22.4 10.71 23 10.81C23.69 10.91 24.09 10.51 24.09 9.81C24.09 6.91 24.09 3.91 24.09 1.01C24.09 0.31 23.8 -0.09 23 0.01C21.9 0.01 20.9 0.01 19.8 0.01C19.8 0.01 19.8 0.01 19.69 0.01C18.59 0.21 18.3 0.71 18.3 1.41Z" fill="url(#paint_linear_1_12965_0)" fill-opacity="1.000000" fill-rule="nonzero"/>
</svg>
