<svg width="120.000000" height="120.000000" viewBox="0 0 120 120" fill="none" xmlns="http://www.w3.org/2000/svg" xmlns:xlink="http://www.w3.org/1999/xlink">
	<desc>
			Created with Pixso.
	</desc>
	<defs>
		<linearGradient x1="-0.892578" y1="59.486313" x2="119.107391" y2="59.486313" id="paint_linear_1_9910_0" gradientUnits="userSpaceOnUse">
			<stop stop-color="#F7941D"/>
			<stop offset="1.000000" stop-color="#27AAE1"/>
		</linearGradient>
	</defs>
	<path id="Vector" d="M-0.9 59.48C-0.9 92.57 26.01 119.48 59.1 119.48C92.19 119.48 119.1 92.75 119.1 59.48C119.1 26.39 92.19 -0.52 59.1 -0.52C26.01 -0.52 -0.9 26.39 -0.9 59.48ZM5.28 81.55Q1.1 71.38 1.1 59.48Q1.1 47.59 5.28 37.41Q9.53 27.06 18.11 18.49Q26.68 9.91 37.03 5.66Q47.21 1.48 59.1 1.48Q71 1.48 81.17 5.66Q91.52 9.91 100.1 18.49Q108.67 27.06 112.92 37.41Q117.1 47.59 117.1 59.48Q117.1 71.65 112.77 82Q108.52 92.15 100.1 100.54Q91.66 108.96 81.49 113.2Q71.19 117.48 59.1 117.48Q47.21 117.48 37.03 113.3Q26.68 109.05 18.11 100.48Q9.53 91.9 5.28 81.55Z" fill="url(#paint_linear_1_9910_0)" fill-opacity="1.000000" fill-rule="evenodd"/>
</svg>
