<svg width="68.988892" height="44.801758" viewBox="0 0 68.9889 44.8018" fill="none" xmlns="http://www.w3.org/2000/svg" xmlns:xlink="http://www.w3.org/1999/xlink">
	<desc>
			Created with Pixso.
	</desc>
	<defs>
		<linearGradient x1="0.000000" y1="22.401039" x2="68.988907" y2="22.401039" id="paint_linear_9_173_0" gradientUnits="userSpaceOnUse">
			<stop stop-color="#0CBAF1"/>
			<stop offset="1.000000" stop-color="#E95CE9"/>
		</linearGradient>
	</defs>
	<path id="Vector" d="M19.86 23.04C16.47 23.04 13.7 25.45 13.7 28.41C13.7 31.37 16.46 33.78 19.86 33.78C23.26 33.78 26.01 31.37 26.01 28.41C26.01 25.45 23.25 23.04 19.86 23.04ZM19.86 23.93C22.49 23.93 24.68 25.59 25.06 27.74C24.87 30.05 22.61 31.89 19.86 31.89C17.11 31.89 14.84 30.05 14.65 27.74C15.04 25.59 17.22 23.93 19.86 23.93ZM19.86 32.89C17.44 32.89 15.4 31.49 14.78 29.6C15.71 31.21 17.64 32.33 19.86 32.33C22.08 32.33 24.01 31.21 24.93 29.6C24.32 31.49 22.28 32.89 19.86 32.89ZM48.54 23.04C45.14 23.04 42.38 25.45 42.38 28.41C42.38 31.37 45.14 33.78 48.54 33.78C51.93 33.78 54.69 31.37 54.69 28.41C54.69 25.45 51.93 23.04 48.54 23.04ZM48.54 23.93C51.17 23.93 53.36 25.59 53.74 27.74C53.55 30.05 51.29 31.89 48.54 31.89C45.79 31.89 43.52 30.05 43.33 27.74C43.72 25.59 45.9 23.93 48.54 23.93ZM48.54 32.89C46.12 32.89 44.07 31.49 43.46 29.6C44.39 31.21 46.32 32.33 48.54 32.33C50.76 32.33 52.68 31.21 53.61 29.6C53 31.49 50.96 32.89 48.54 32.89ZM68.98 3.49C68.98 3.47 68.98 3.46 68.98 3.44L68.98 3.26C68.99 3.16 68.96 3.07 68.91 3C68.34 0.1 65.84 0.29 65.82 0.29C65.75 0.3 65.7 0.32 65.65 0.35C65.59 0.39 65.56 0.44 65.53 0.49L64.78 2.06C64.37 1.74 63.92 1.48 63.43 1.3C62.95 1.13 62.44 1.03 61.92 1.02L6.65 1.02C6.23 1.03 5.82 1.11 5.43 1.26C5.03 1.41 4.68 1.63 4.35 1.9L3.54 0.2C3.51 0.14 3.47 0.1 3.42 0.06C3.37 0.03 3.31 0 3.25 0C3.22 0 0.6 -0.2 0.12 2.93C0.04 3.02 -0.01 3.13 0 3.26L0.88 28.43C0.89 28.47 0.89 28.51 0.91 28.56L5.64 42.28C5.68 42.38 5.74 42.45 5.82 42.51C6.01 42.95 6.28 43.33 6.64 43.65C7.28 44.21 8.16 44.5 9.25 44.5C9.51 44.5 9.78 44.48 10.04 44.45C10.08 44.44 10.13 44.43 10.17 44.41C10.21 44.39 10.24 44.36 10.27 44.33C10.3 44.29 10.32 44.26 10.34 44.21C10.35 44.17 10.36 44.13 10.36 44.08L10.2 40.44L24.82 40.44C24.91 40.44 24.99 40.42 25.06 40.37C25.13 40.33 25.18 40.27 25.22 40.2L29.04 32.56L39.5 32.56C39.52 32.56 39.55 32.56 39.58 32.56L43.4 40.2C43.44 40.27 43.49 40.33 43.57 40.38C43.64 40.42 43.71 40.44 43.8 40.44L58.88 40.44L58.71 44.38C58.71 44.43 58.72 44.47 58.73 44.51C58.75 44.56 58.77 44.59 58.8 44.63C58.83 44.66 58.86 44.69 58.9 44.71C58.94 44.73 58.98 44.75 59.03 44.75C59.29 44.78 59.55 44.8 59.82 44.8C60.91 44.8 61.79 44.51 62.43 43.95C62.74 43.67 62.98 43.35 63.16 42.99C63.35 42.62 63.46 42.24 63.5 41.83L68.06 28.57C68.07 28.53 68.08 28.48 68.08 28.44L68.96 3.64C68.98 3.59 68.99 3.54 68.98 3.49ZM6.67 1.9L61.93 1.9C62.38 1.91 62.82 2 63.24 2.17C63.66 2.34 64.04 2.58 64.38 2.89L63.75 4.21L5.47 4.21L4.75 2.73C5.01 2.48 5.3 2.28 5.63 2.14C5.96 1.99 6.31 1.92 6.67 1.91L6.67 1.9ZM60.12 11.85L59.99 14.9L59.2 14.9C59.2 12.34 59.05 9.79 58.74 7.24C58.74 7.2 58.72 7.16 58.68 7.12C58.65 7.09 58.61 7.06 58.56 7.05C46.28 4.93 37.36 7.04 37.27 7.05C37.19 7.08 37.14 7.13 37.11 7.21C36.94 7.94 36.82 8.67 36.75 9.41L32.39 9.41C32.27 8.07 32.16 7.25 32.16 7.24C32.15 7.19 32.13 7.15 32.1 7.12C32.07 7.08 32.03 7.06 31.98 7.05C19.7 4.92 10.77 7.03 10.69 7.05C10.61 7.07 10.55 7.12 10.53 7.21C10.5 7.31 9.86 9.68 9.97 14.89L9.09 14.89L8.95 11.55C8.94 11.5 8.93 11.46 8.91 11.41L5.8 4.93L63.41 4.93L60.16 11.72C60.14 11.76 60.13 11.8 60.12 11.85ZM47.06 9.62C47.02 9.56 46.96 9.51 46.9 9.47C46.83 9.44 46.76 9.42 46.69 9.42L37.19 9.42C37.26 8.76 37.36 8.11 37.5 7.46C38.64 7.21 47.02 5.54 58.31 7.46C58.6 9.93 58.75 12.41 58.75 14.9L45.95 14.9L45.95 12.77L47.09 10.04C47.15 9.89 47.14 9.75 47.06 9.62ZM21.52 10.04L22.66 12.77L22.66 14.9L10.42 14.9C10.32 10.41 10.8 8.02 10.92 7.46C12.06 7.21 20.44 5.54 31.74 7.46C31.78 7.76 31.86 8.45 31.94 9.42L21.93 9.42C21.9 9.42 21.86 9.43 21.83 9.44C21.79 9.45 21.76 9.46 21.73 9.48C21.69 9.5 21.67 9.52 21.64 9.54C21.61 9.57 21.59 9.59 21.57 9.62C21.55 9.65 21.53 9.69 21.52 9.72C21.51 9.75 21.5 9.79 21.5 9.82C21.49 9.86 21.49 9.9 21.5 9.93C21.5 9.97 21.51 10 21.52 10.04L21.52 10.04ZM2.99 0.7L3.85 2.5C3.84 2.58 3.84 2.66 3.87 2.73C3.89 2.8 3.93 2.87 3.99 2.92C4.02 2.95 4.05 2.97 4.08 2.98L4.91 4.72L8.24 11.66L8.38 14.9L5.92 14.9C5.86 14.9 5.81 14.91 5.75 14.94C5.7 14.96 5.65 14.99 5.61 15.04C5.57 15.08 5.54 15.13 5.51 15.18C5.49 15.24 5.48 15.29 5.48 15.35L5.48 20.98C5.48 21.08 5.52 21.17 5.58 21.25C5.64 21.32 5.72 21.37 5.82 21.4C6.8 21.68 7.73 22.07 8.62 22.57L9.06 32.64C8.19 33.02 7.27 33.2 6.32 33.18C6.2 33.18 6.09 33.22 5.99 33.3C5.98 33.32 5.97 33.33 5.96 33.35L5.09 12.29C5.09 12.25 5.08 12.2 5.06 12.16L0.89 3.36L0.89 3.23C0.89 3.16 0.87 3.09 0.83 3.03C1.15 1.01 2.49 0.74 2.99 0.71L2.99 0.7ZM9.93 32.12L9.54 23.14C11.49 24.54 12.35 26.27 12.08 28.29C11.82 30.27 10.94 31.44 9.93 32.14L9.93 32.12ZM0.95 5.15L4.39 12.39L5.47 39.06L1.77 28.33L0.95 5.15ZM9.63 43.77C8.54 43.84 7.69 43.62 7.12 43.12C6.85 42.88 6.64 42.59 6.5 42.26C6.53 42.17 6.53 42.08 6.5 41.99L6.3 41.4L6.26 40.43L9.51 40.43L9.63 43.77ZM29.49 31.66L29.82 31.01C29.83 30.98 29.84 30.96 29.85 30.93L29.86 30.89L38.75 30.89L38.78 30.95C38.78 30.97 38.79 30.99 38.8 31.01L39.13 31.66L29.49 31.66ZM30.28 30C30.47 29.69 30.7 29.4 30.96 29.15C31.22 28.89 31.51 28.68 31.83 28.5C32.16 28.33 32.49 28.2 32.85 28.11C33.21 28.02 33.57 27.99 33.93 28C35.5 27.96 36.79 28.43 37.75 29.42C37.93 29.6 38.09 29.79 38.24 30L30.28 30ZM39.61 30.63C39.47 30.25 38.11 27 33.93 27.11C30.88 27.11 29.59 29.27 29.16 30.24C29.15 30.26 29.14 30.28 29.13 30.3C29.07 30.46 29.02 30.58 29.01 30.64L24.55 39.54L6.74 39.54L6.74 34.06C7.75 34 8.72 33.76 9.63 33.32C9.69 33.31 9.75 33.28 9.8 33.24C11.22 32.5 12.61 31.09 12.97 28.43C13.4 25.24 11.34 23.19 9.36 21.99C9.32 21.94 9.27 21.91 9.21 21.89C8.31 21.37 7.37 20.95 6.38 20.63L6.38 15.79L23.13 15.79C23.19 15.79 23.25 15.78 23.3 15.75C23.36 15.73 23.41 15.7 23.45 15.65C23.5 15.61 23.53 15.56 23.55 15.51C23.58 15.45 23.59 15.39 23.59 15.33L23.59 12.68C23.59 12.62 23.58 12.56 23.55 12.5L22.63 10.31L46.02 10.31L45.09 12.5C45.07 12.56 45.06 12.62 45.06 12.68L45.06 15.34C45.06 15.4 45.07 15.46 45.09 15.52C45.12 15.57 45.15 15.62 45.19 15.66C45.24 15.71 45.28 15.74 45.34 15.76C45.4 15.79 45.46 15.8 45.52 15.8L60.01 15.8C60.03 15.86 60.08 15.91 60.13 15.94C60.19 15.98 60.25 16 60.31 16C60.38 16 60.45 15.99 60.51 15.95C60.57 15.91 60.62 15.86 60.65 15.8L62.25 15.8L62.25 20.63C61.4 20.9 60.58 21.25 59.8 21.67C59.73 21.69 59.67 21.73 59.62 21.77C57.54 22.95 55.2 25.04 55.65 28.43C56.04 31.32 57.64 32.73 59.18 33.41C59.24 33.46 59.3 33.48 59.37 33.49C60.17 33.82 61.01 34.01 61.87 34.06L61.87 39.54L44.07 39.54L39.61 30.63ZM56.55 28.31C56.26 26.19 57.21 24.4 59.35 22.97L59.45 22.9L59.04 32.37C57.91 31.7 56.83 30.49 56.55 28.31ZM61.96 43.41C61.38 43.91 60.53 44.13 59.44 44.06L59.6 40.42L62.33 40.42C62.39 40.42 62.45 40.41 62.5 40.38C62.56 40.36 62.6 40.33 62.65 40.29C62.69 40.24 62.72 40.2 62.74 40.14C62.77 40.09 62.78 40.03 62.78 39.97L62.78 33.6C62.78 33.54 62.77 33.48 62.74 33.42C62.72 33.37 62.69 33.32 62.64 33.28C62.6 33.23 62.55 33.2 62.49 33.18C62.43 33.16 62.37 33.15 62.31 33.16C61.49 33.18 60.69 33.04 59.92 32.76L60.37 22.35C61.15 21.95 61.96 21.63 62.81 21.4C62.9 21.37 62.98 21.32 63.05 21.24C63.11 21.16 63.14 21.07 63.14 20.97L63.14 15.34C63.14 15.28 63.13 15.23 63.11 15.17C63.09 15.12 63.05 15.07 63.01 15.02C62.97 14.98 62.92 14.95 62.87 14.92C62.81 14.9 62.76 14.89 62.7 14.89L60.7 14.89L60.83 11.94L66.08 0.99C66.56 1.01 67.77 1.25 68.18 2.97C68.13 3.05 68.1 3.13 68.09 3.22L68.07 3.87L64.01 12.45C63.99 12.49 63.98 12.54 63.97 12.58L62.82 41.04L62.49 41.98C62.46 42.06 62.46 42.15 62.48 42.23C62.51 42.32 62.55 42.39 62.61 42.45C62.47 42.82 62.26 43.14 61.96 43.41L61.96 43.41ZM63.61 38.71L64.67 12.68L68 5.67L67.2 28.32L63.61 38.71Z" fill="url(#paint_linear_9_173_0)" fill-opacity="1.000000" fill-rule="nonzero"/>
</svg>
