<svg width="63.526611" height="59.958008" viewBox="0 0 63.5266 59.958" fill="none" xmlns="http://www.w3.org/2000/svg" xmlns:xlink="http://www.w3.org/1999/xlink">
	<desc>
			Created with Pixso.
	</desc>
	<defs>
		<linearGradient x1="0.000000" y1="29.978912" x2="63.526615" y2="29.978912" id="paint_linear_9_190_0" gradientUnits="userSpaceOnUse">
			<stop stop-color="#0CBAF1"/>
			<stop offset="1.000000" stop-color="#E95CE9"/>
		</linearGradient>
	</defs>
	<path id="Vector" d="M57.59 40.79C57.59 40.79 57.6 40.79 57.61 40.79C57.62 40.79 57.63 40.78 57.64 40.77C57.65 40.76 57.66 40.75 57.67 40.74C57.68 40.73 57.7 40.71 57.71 40.7L57.73 40.67C57.74 40.65 57.75 40.62 57.76 40.6C57.76 40.59 57.77 40.58 57.77 40.57C57.78 40.54 57.78 40.51 57.78 40.47L57.78 12.08C57.78 12.01 57.76 11.94 57.72 11.87C57.68 11.81 57.62 11.77 57.55 11.74L32.22 0.2C32.19 0.14 32.15 0.09 32.09 0.06C32 0 31.9 -0.02 31.79 0.01C31.75 0 31.7 -0.01 31.66 0C31.62 0 31.57 0.01 31.53 0.03C31.49 0.04 31.46 0.07 31.43 0.1C31.39 0.13 31.37 0.16 31.35 0.2L6.02 11.74C5.95 11.77 5.89 11.81 5.85 11.87C5.81 11.94 5.79 12.01 5.79 12.08L5.79 40.46C5.79 40.5 5.79 40.53 5.8 40.56C5.8 40.58 5.8 40.58 5.81 40.59C5.82 40.61 5.83 40.63 5.84 40.66L5.86 40.69C5.88 40.71 5.89 40.72 5.9 40.73L5.94 40.76C5.94 40.77 5.95 40.78 5.96 40.79L5.98 40.79L6 40.8L31.52 53.14C31.57 53.17 31.63 53.18 31.69 53.18C31.74 53.18 31.8 53.17 31.85 53.14L57.57 40.8L57.59 40.79ZM49.37 43.9L41.47 40.13L48.3 36.87C48.34 36.85 48.37 36.82 48.39 36.78L56.5 40.47L49.37 43.9ZM40.16 48.32L32.23 44.54L41.03 40.34L48.94 44.11L40.16 48.32ZM14.61 44.12L22.55 40.34L31.35 44.54L23.35 48.35L14.61 44.12ZM7.07 40.48L15.18 36.78C15.19 36.82 15.22 36.85 15.26 36.87L22.1 40.13L14.17 43.91L7.07 40.48ZM24.58 32.5L31.34 35.73L22.54 39.92L15.58 36.6L24.58 32.5ZM25.04 32.3L31.8 29.22L38.55 32.3L31.79 35.52L25.04 32.3ZM39 32.5L48 36.6L41.03 39.92L32.23 35.73L39 32.5ZM22.99 40.13L31.79 35.94L40.6 40.13L31.79 44.32L22.99 40.13ZM57.02 21L56.61 20.81C56.59 20.8 56.56 20.79 56.54 20.79C56.51 20.79 56.49 20.8 56.46 20.8C56.44 20.81 56.42 20.83 56.4 20.84C56.38 20.86 56.37 20.88 56.36 20.91C56.34 20.95 56.34 21 56.35 21.05C56.37 21.1 56.41 21.14 56.45 21.16L57.02 21.41L57.02 31.27L56.61 31.08C56.59 31.07 56.56 31.07 56.54 31.06C56.51 31.06 56.49 31.07 56.46 31.08C56.44 31.09 56.42 31.1 56.4 31.12C56.38 31.13 56.37 31.15 56.36 31.18C56.34 31.22 56.34 31.27 56.35 31.32C56.37 31.37 56.41 31.41 56.45 31.43L57.02 31.69L57.02 39.87L32.27 28.6L32.27 20.42L32.47 20.51C32.52 20.54 32.57 20.54 32.62 20.52C32.67 20.5 32.71 20.47 32.73 20.42C32.75 20.37 32.75 20.32 32.73 20.27C32.72 20.22 32.68 20.19 32.63 20.17L32.27 20L32.27 10.15L32.47 10.24C32.52 10.26 32.57 10.27 32.62 10.25C32.67 10.23 32.71 10.2 32.73 10.15C32.75 10.1 32.75 10.05 32.73 10C32.71 9.95 32.68 9.92 32.63 9.89L32.27 9.72L32.27 1.06L57.02 12.33L57.02 21ZM31.5 0.97L31.5 9.54L30.74 9.89C30.7 9.91 30.67 9.94 30.65 9.98C30.63 10.02 30.62 10.06 30.63 10.1C30.64 10.15 30.66 10.18 30.7 10.21C30.73 10.24 30.77 10.25 30.82 10.25C30.85 10.25 30.87 10.25 30.9 10.24L31.5 9.96L31.5 19.82L30.74 20.17C30.72 20.18 30.7 20.2 30.68 20.21C30.66 20.23 30.65 20.25 30.64 20.28C30.63 20.3 30.63 20.33 30.63 20.35C30.63 20.38 30.63 20.4 30.64 20.42C30.68 20.5 30.74 20.53 30.82 20.54C30.85 20.53 30.87 20.53 30.9 20.52L31.5 20.24L31.5 28.42L6.55 39.87L6.55 31.69L7.12 31.43C7.16 31.4 7.2 31.37 7.22 31.32C7.23 31.27 7.23 31.22 7.21 31.17C7.19 31.12 7.15 31.09 7.1 31.07C7.05 31.05 7 31.06 6.96 31.08L6.55 31.26L6.55 21.41L7.12 21.16C7.16 21.13 7.2 21.1 7.22 21.05C7.23 21 7.23 20.95 7.21 20.9C7.19 20.85 7.15 20.82 7.1 20.8C7.05 20.78 7 20.79 6.96 20.81L6.55 20.99L6.55 12.33L31.5 0.97ZM31.69 52.37L23.78 48.55L31.78 44.74L39.72 48.52L31.69 52.37ZM23.33 13.51C23.31 13.46 23.3 13.41 23.32 13.36C23.34 13.31 23.37 13.28 23.42 13.25L25.25 12.42C25.3 12.4 25.34 12.4 25.39 12.42C25.43 12.44 25.47 12.47 25.49 12.52C25.51 12.56 25.51 12.61 25.5 12.66C25.48 12.7 25.45 12.74 25.41 12.76L23.58 13.6C23.56 13.61 23.53 13.62 23.5 13.62C23.42 13.62 23.36 13.58 23.33 13.51ZM26.99 11.83C26.96 11.78 26.96 11.73 26.98 11.68C27 11.63 27.03 11.6 27.08 11.58L28.91 10.74C28.96 10.72 29 10.72 29.05 10.74C29.09 10.76 29.12 10.79 29.14 10.84C29.17 10.88 29.17 10.93 29.15 10.98C29.14 11.02 29.11 11.06 29.07 11.08L27.24 11.92C27.21 11.93 27.19 11.94 27.16 11.94C27.08 11.94 27.02 11.9 26.99 11.83ZM8.68 20.22C8.67 20.2 8.67 20.17 8.67 20.15C8.67 20.12 8.67 20.09 8.68 20.07C8.7 20.05 8.71 20.03 8.73 20.01C8.75 19.99 8.77 19.98 8.8 19.97L10.63 19.13C10.65 19.12 10.68 19.11 10.7 19.1C10.73 19.1 10.76 19.1 10.78 19.11C10.81 19.12 10.83 19.13 10.85 19.15C10.87 19.17 10.89 19.19 10.9 19.21C10.91 19.24 10.92 19.26 10.92 19.29C10.92 19.32 10.91 19.34 10.9 19.37C10.89 19.4 10.88 19.42 10.86 19.44C10.84 19.45 10.81 19.47 10.79 19.48L8.96 20.31C8.93 20.33 8.9 20.33 8.88 20.33C8.84 20.33 8.8 20.33 8.77 20.31C8.73 20.29 8.71 20.26 8.69 20.22L8.68 20.22ZM12.35 18.54C12.34 18.52 12.33 18.5 12.33 18.47C12.33 18.45 12.34 18.42 12.34 18.4C12.35 18.37 12.37 18.35 12.38 18.33C12.4 18.31 12.42 18.3 12.45 18.29L14.27 17.45C14.3 17.43 14.32 17.43 14.35 17.42C14.38 17.42 14.4 17.42 14.43 17.43C14.45 17.44 14.48 17.45 14.5 17.47C14.52 17.49 14.53 17.51 14.55 17.53C14.56 17.56 14.56 17.58 14.56 17.61C14.56 17.64 14.56 17.66 14.55 17.69C14.54 17.71 14.52 17.74 14.5 17.75C14.48 17.77 14.46 17.79 14.43 17.79L12.61 18.64C12.58 18.65 12.55 18.65 12.52 18.65C12.44 18.65 12.39 18.62 12.35 18.54ZM16.01 16.86C15.99 16.82 15.99 16.77 16 16.72C16.02 16.67 16.06 16.63 16.1 16.61L17.93 15.77C17.98 15.75 18.03 15.75 18.08 15.77C18.13 15.79 18.16 15.82 18.19 15.87C18.2 15.89 18.2 15.91 18.2 15.94C18.2 15.96 18.2 15.99 18.19 16.01C18.18 16.04 18.17 16.06 18.15 16.08C18.13 16.09 18.11 16.11 18.09 16.12L16.26 16.96C16.22 16.98 16.17 16.98 16.12 16.96C16.07 16.94 16.03 16.91 16.01 16.86ZM19.67 15.19C19.65 15.14 19.64 15.09 19.66 15.04C19.68 14.99 19.71 14.96 19.76 14.93L21.59 14.1C21.62 14.08 21.64 14.08 21.67 14.07C21.69 14.07 21.72 14.08 21.74 14.08C21.77 14.09 21.79 14.11 21.81 14.12C21.83 14.14 21.84 14.16 21.85 14.19C21.86 14.21 21.87 14.23 21.87 14.26C21.87 14.29 21.87 14.31 21.86 14.33C21.85 14.36 21.83 14.38 21.81 14.4C21.8 14.42 21.77 14.43 21.75 14.44L19.92 15.28C19.89 15.29 19.87 15.29 19.84 15.29C19.8 15.29 19.77 15.29 19.74 15.27C19.71 15.25 19.68 15.22 19.67 15.19ZM45.29 15.87C45.31 15.82 45.35 15.79 45.4 15.77C45.45 15.75 45.5 15.75 45.55 15.77L47.4 16.61C47.45 16.63 47.48 16.67 47.5 16.72C47.52 16.77 47.52 16.82 47.49 16.86C47.48 16.9 47.45 16.93 47.42 16.95C47.39 16.97 47.36 16.98 47.32 16.98C47.29 16.98 47.26 16.97 47.24 16.96L45.39 16.12C45.34 16.1 45.31 16.06 45.29 16.01C45.27 15.96 45.27 15.91 45.29 15.87ZM52.67 19.23C52.68 19.2 52.7 19.18 52.71 19.17C52.73 19.15 52.75 19.13 52.78 19.13C52.8 19.12 52.82 19.11 52.85 19.11C52.88 19.12 52.9 19.12 52.92 19.13L54.78 19.97C54.82 19.99 54.85 20.02 54.87 20.06C54.89 20.1 54.89 20.14 54.88 20.18C54.87 20.23 54.85 20.26 54.82 20.29C54.78 20.32 54.74 20.33 54.7 20.34C54.67 20.33 54.64 20.33 54.62 20.32L52.76 19.48C52.74 19.47 52.72 19.45 52.7 19.44C52.69 19.42 52.67 19.4 52.67 19.37C52.66 19.35 52.65 19.32 52.65 19.3C52.65 19.27 52.66 19.25 52.67 19.23ZM41.6 14.19C41.62 14.14 41.66 14.11 41.71 14.09C41.76 14.07 41.81 14.07 41.85 14.09L43.71 14.93C43.76 14.96 43.79 14.99 43.81 15.04C43.83 15.09 43.82 15.14 43.8 15.19C43.79 15.22 43.76 15.25 43.73 15.27C43.7 15.29 43.67 15.3 43.63 15.3C43.6 15.3 43.58 15.29 43.55 15.28L41.7 14.44C41.65 14.42 41.62 14.38 41.6 14.33C41.58 14.28 41.58 14.24 41.6 14.19ZM48.98 17.55C49 17.5 49.04 17.46 49.09 17.45C49.14 17.43 49.19 17.43 49.23 17.45L51.09 18.29C51.13 18.31 51.16 18.34 51.18 18.38C51.2 18.42 51.2 18.46 51.19 18.5C51.18 18.55 51.16 18.58 51.13 18.61C51.09 18.64 51.05 18.66 51.01 18.66C50.98 18.66 50.96 18.65 50.93 18.64L49.08 17.8C49.03 17.78 48.99 17.74 48.98 17.69C48.96 17.64 48.96 17.59 48.98 17.55ZM34.23 10.83C34.24 10.81 34.25 10.79 34.27 10.77C34.29 10.75 34.31 10.74 34.33 10.73C34.36 10.72 34.38 10.72 34.41 10.72C34.43 10.72 34.46 10.72 34.48 10.74L36.33 11.57C36.37 11.59 36.4 11.62 36.42 11.66C36.44 11.7 36.45 11.74 36.44 11.79C36.43 11.83 36.41 11.87 36.37 11.9C36.34 11.92 36.3 11.94 36.25 11.94C36.23 11.94 36.2 11.93 36.17 11.92L34.32 11.08C34.3 11.07 34.28 11.06 34.26 11.04C34.24 11.02 34.23 11 34.22 10.98C34.21 10.95 34.21 10.93 34.21 10.9C34.21 10.88 34.22 10.85 34.23 10.83ZM37.91 12.5C37.92 12.48 37.94 12.46 37.96 12.44C37.98 12.42 38 12.41 38.02 12.4C38.04 12.39 38.07 12.39 38.09 12.39C38.12 12.39 38.14 12.39 38.17 12.4L40.02 13.25C40.04 13.26 40.06 13.27 40.08 13.29C40.1 13.31 40.11 13.33 40.12 13.35C40.13 13.37 40.13 13.4 40.13 13.42C40.13 13.45 40.13 13.47 40.11 13.5C40.09 13.54 40.06 13.58 40.01 13.6C39.96 13.62 39.91 13.61 39.86 13.59L38.01 12.75C37.99 12.74 37.97 12.73 37.95 12.71C37.93 12.69 37.92 12.67 37.91 12.65C37.9 12.62 37.9 12.6 37.9 12.57C37.9 12.55 37.9 12.52 37.91 12.5ZM23.32 23.77C23.3 23.72 23.29 23.67 23.31 23.62C23.33 23.58 23.36 23.54 23.41 23.52L25.25 22.69C25.3 22.67 25.34 22.67 25.39 22.69C25.43 22.71 25.46 22.74 25.48 22.79C25.5 22.83 25.51 22.88 25.49 22.93C25.48 22.97 25.45 23.01 25.41 23.04L23.58 23.87C23.55 23.89 23.53 23.89 23.5 23.89C23.42 23.89 23.36 23.85 23.33 23.78L23.32 23.77ZM19.67 25.47C19.65 25.42 19.64 25.37 19.66 25.32C19.68 25.27 19.71 25.24 19.76 25.21L21.59 24.38C21.64 24.35 21.69 24.35 21.74 24.37C21.79 24.39 21.82 24.42 21.84 24.47C21.87 24.52 21.87 24.57 21.85 24.61C21.83 24.66 21.8 24.7 21.75 24.72L19.92 25.55C19.89 25.56 19.87 25.57 19.84 25.57C19.76 25.57 19.7 25.54 19.67 25.47ZM16.01 27.15C15.99 27.1 15.99 27.05 16 27C16.02 26.95 16.06 26.91 16.1 26.89L17.93 26.05C17.98 26.03 18.03 26.03 18.08 26.05C18.13 26.07 18.16 26.1 18.19 26.15C18.2 26.17 18.2 26.19 18.2 26.22C18.2 26.25 18.2 26.27 18.19 26.29C18.18 26.32 18.17 26.34 18.15 26.36C18.13 26.37 18.11 26.39 18.09 26.4L16.26 27.24C16.22 27.26 16.17 27.26 16.12 27.24C16.07 27.23 16.03 27.19 16.01 27.15ZM12.35 28.82C12.34 28.8 12.33 28.78 12.33 28.75C12.33 28.73 12.34 28.7 12.35 28.68C12.35 28.65 12.37 28.63 12.38 28.62C12.4 28.6 12.42 28.58 12.45 28.57L14.27 27.73C14.3 27.72 14.32 27.71 14.35 27.71C14.38 27.7 14.4 27.71 14.43 27.71C14.45 27.72 14.48 27.73 14.5 27.75C14.52 27.77 14.53 27.79 14.55 27.82C14.56 27.84 14.56 27.87 14.56 27.89C14.56 27.92 14.56 27.95 14.55 27.97C14.54 28 14.52 28.02 14.5 28.04C14.48 28.06 14.46 28.07 14.43 28.08L12.61 28.92C12.58 28.93 12.55 28.94 12.52 28.94C12.49 28.93 12.45 28.92 12.42 28.9C12.39 28.88 12.36 28.85 12.35 28.81L12.35 28.82ZM8.69 30.5C8.68 30.48 8.67 30.46 8.67 30.43C8.67 30.4 8.68 30.38 8.69 30.36C8.69 30.33 8.71 30.31 8.73 30.29C8.74 30.28 8.76 30.26 8.79 30.25L10.61 29.4C10.64 29.39 10.66 29.38 10.69 29.38C10.72 29.37 10.74 29.38 10.77 29.38C10.8 29.39 10.82 29.41 10.84 29.42C10.86 29.44 10.88 29.46 10.89 29.49C10.9 29.51 10.91 29.54 10.91 29.57C10.91 29.59 10.9 29.62 10.89 29.64C10.88 29.67 10.86 29.69 10.84 29.71C10.82 29.73 10.8 29.74 10.77 29.75L8.94 30.59C8.92 30.6 8.89 30.61 8.87 30.61C8.78 30.61 8.73 30.57 8.69 30.49L8.69 30.5ZM27 22.11C26.97 22.06 26.97 22.01 26.99 21.96C27.01 21.92 27.04 21.88 27.09 21.86L28.92 21.02C28.96 21 29.01 21 29.06 21.02C29.1 21.04 29.13 21.08 29.15 21.12C29.17 21.16 29.18 21.21 29.16 21.26C29.15 21.3 29.12 21.34 29.08 21.37L27.25 22.2C27.22 22.22 27.2 22.22 27.17 22.22C27.13 22.22 27.09 22.21 27.06 22.19C27.03 22.17 27 22.14 26.99 22.1L27 22.11ZM48.99 27.83C49.01 27.78 49.05 27.75 49.1 27.73C49.15 27.71 49.2 27.71 49.24 27.73L51.1 28.57C51.14 28.59 51.17 28.62 51.19 28.66C51.21 28.7 51.21 28.74 51.2 28.79C51.19 28.83 51.17 28.87 51.14 28.89C51.1 28.92 51.06 28.94 51.02 28.94C50.99 28.94 50.96 28.93 50.94 28.92L49.09 28.08C49.06 28.07 49.04 28.06 49.02 28.04C49 28.02 48.99 28 48.98 27.97C48.97 27.95 48.96 27.92 48.96 27.89C48.96 27.87 48.97 27.84 48.98 27.82L48.99 27.83ZM37.91 22.78C37.92 22.76 37.94 22.74 37.96 22.72C37.98 22.7 38 22.69 38.02 22.68C38.04 22.67 38.07 22.67 38.09 22.67C38.12 22.67 38.14 22.67 38.17 22.69L40.02 23.53C40.04 23.54 40.06 23.55 40.08 23.57C40.1 23.59 40.11 23.61 40.12 23.63C40.13 23.66 40.13 23.68 40.13 23.71C40.13 23.73 40.13 23.76 40.11 23.78C40.09 23.83 40.06 23.86 40.01 23.88C39.96 23.9 39.91 23.89 39.86 23.87L38.01 23.03C37.99 23.02 37.97 23.01 37.95 22.99C37.93 22.97 37.92 22.95 37.91 22.93C37.9 22.9 37.9 22.88 37.9 22.85C37.9 22.83 37.9 22.8 37.91 22.78ZM41.6 24.46C41.62 24.41 41.66 24.38 41.71 24.36C41.76 24.34 41.81 24.34 41.85 24.36L43.71 25.21C43.76 25.23 43.79 25.26 43.81 25.31C43.83 25.36 43.82 25.41 43.8 25.46C43.79 25.49 43.76 25.52 43.73 25.54C43.7 25.56 43.67 25.57 43.63 25.57C43.6 25.57 43.57 25.56 43.55 25.55L41.7 24.71C41.65 24.69 41.62 24.65 41.6 24.6C41.58 24.56 41.58 24.51 41.6 24.46ZM34.23 21.1C34.24 21.08 34.25 21.06 34.27 21.04C34.29 21.02 34.31 21.01 34.33 21C34.36 20.99 34.38 20.99 34.41 20.99C34.43 20.99 34.46 21 34.48 21.01L36.33 21.85C36.35 21.86 36.38 21.87 36.39 21.89C36.41 21.91 36.42 21.93 36.43 21.95C36.44 21.98 36.44 22 36.44 22.03C36.44 22.05 36.44 22.08 36.43 22.1C36.39 22.17 36.33 22.21 36.25 22.21C36.23 22.21 36.2 22.21 36.17 22.19L34.32 21.35C34.3 21.34 34.28 21.33 34.26 21.31C34.24 21.29 34.23 21.27 34.22 21.25C34.21 21.22 34.21 21.2 34.21 21.17C34.21 21.15 34.22 21.12 34.23 21.1ZM45.29 26.14C45.31 26.09 45.35 26.06 45.4 26.04C45.45 26.02 45.5 26.02 45.55 26.04L47.4 26.88C47.45 26.91 47.48 26.94 47.5 26.99C47.52 27.04 47.52 27.09 47.49 27.14C47.48 27.17 47.45 27.2 47.42 27.22C47.39 27.24 47.36 27.25 47.32 27.25C47.29 27.25 47.26 27.24 47.24 27.23L45.39 26.39C45.34 26.37 45.31 26.33 45.29 26.28C45.27 26.23 45.27 26.19 45.29 26.14ZM54.86 30.5C54.83 30.57 54.77 30.61 54.69 30.61C54.66 30.61 54.63 30.6 54.61 30.59L52.76 29.75C52.71 29.73 52.67 29.69 52.66 29.64C52.64 29.59 52.64 29.55 52.66 29.5C52.68 29.45 52.72 29.42 52.77 29.4C52.82 29.38 52.87 29.38 52.91 29.4L54.77 30.24C54.82 30.26 54.85 30.3 54.87 30.35C54.89 30.4 54.88 30.45 54.86 30.5ZM63.52 44.58C63.52 48.02 60.55 51.29 55.16 53.76C49.96 56.15 42.88 57.66 35.22 58.01L35.19 58.01C35.12 58.01 35.04 58 34.97 57.97C34.9 57.94 34.84 57.9 34.78 57.85C34.73 57.8 34.69 57.74 34.66 57.67C34.63 57.6 34.61 57.53 34.61 57.45C34.61 57.37 34.62 57.3 34.65 57.23C34.67 57.16 34.71 57.1 34.77 57.04C34.82 56.99 34.88 56.94 34.95 56.91C35.02 56.88 35.09 56.87 35.17 56.86C50.42 56.17 62.38 50.78 62.38 44.59C62.38 42.66 61.19 40.71 58.94 38.97C58.88 38.92 58.82 38.87 58.78 38.8C58.74 38.73 58.71 38.66 58.7 38.58C58.68 38.5 58.69 38.43 58.7 38.35C58.72 38.27 58.76 38.2 58.81 38.14C58.85 38.08 58.91 38.03 58.98 37.99C59.05 37.95 59.13 37.93 59.21 37.92C59.28 37.91 59.36 37.92 59.44 37.95C59.51 37.97 59.58 38.01 59.64 38.06C62.18 40.02 63.52 42.28 63.52 44.58ZM30.23 57.49C30.22 57.59 30.19 57.68 30.14 57.76C30.08 57.85 30.01 57.91 29.92 57.96L26.24 59.88C26.18 59.92 26.1 59.94 26.03 59.95C25.95 59.96 25.88 59.95 25.81 59.93C25.73 59.91 25.67 59.87 25.61 59.82C25.55 59.78 25.5 59.72 25.47 59.65C25.43 59.59 25.41 59.51 25.4 59.44C25.4 59.36 25.4 59.29 25.43 59.22C25.45 59.15 25.48 59.08 25.53 59.02C25.58 58.96 25.63 58.92 25.7 58.88L27.43 57.97C11.71 57.07 0 51.4 0 44.58C0 42.13 1.51 39.74 4.36 37.68C4.43 37.63 4.49 37.6 4.57 37.58C4.64 37.56 4.72 37.55 4.8 37.56C4.88 37.58 4.95 37.6 5.01 37.64C5.08 37.68 5.14 37.73 5.18 37.8C5.23 37.86 5.26 37.93 5.28 38C5.3 38.08 5.3 38.16 5.28 38.23C5.27 38.31 5.24 38.38 5.2 38.45C5.15 38.51 5.1 38.57 5.03 38.61C2.49 40.45 1.15 42.51 1.15 44.58C1.15 50.72 12.74 56.03 27.72 56.83L25.96 55.63C25.9 55.59 25.85 55.54 25.8 55.47C25.76 55.41 25.73 55.34 25.72 55.27C25.71 55.19 25.71 55.12 25.72 55.04C25.74 54.97 25.77 54.9 25.81 54.84C25.85 54.77 25.91 54.72 25.97 54.68C26.03 54.64 26.1 54.61 26.18 54.6C26.25 54.58 26.33 54.58 26.4 54.6C26.47 54.61 26.54 54.64 26.61 54.69L29.98 56.98C30.06 57.04 30.13 57.11 30.17 57.2C30.22 57.29 30.24 57.38 30.23 57.49Z" fill="url(#paint_linear_9_190_0)" fill-opacity="1.000000" fill-rule="nonzero"/>
</svg>
