<svg width="60.000000" height="64.000000" viewBox="0 0 60 64" fill="none" xmlns="http://www.w3.org/2000/svg" xmlns:xlink="http://www.w3.org/1999/xlink">
	<desc>
			Created with Pixso.
	</desc>
	<defs>
		<linearGradient x1="0.000000" y1="32.000000" x2="60.000000" y2="32.000000" id="paint_linear_9_197_0" gradientUnits="userSpaceOnUse">
			<stop stop-color="#0CBAF1"/>
			<stop offset="1.000000" stop-color="#E95CE9"/>
		</linearGradient>
	</defs>
	<g opacity="0.860000">
		<path id="Vector" d="M35.56 44.34C35.59 44.38 35.6 44.42 35.61 44.46C35.61 44.5 35.61 44.54 35.6 44.58C35.59 44.63 35.57 44.66 35.54 44.7C35.52 44.73 35.48 44.76 35.45 44.78C32.43 46.49 29.28 47.9 26 49.02C27.54 50.73 26.96 58.95 26.47 63.71C26.47 63.75 26.46 63.79 26.44 63.82C26.42 63.86 26.4 63.89 26.37 63.91C26.34 63.94 26.31 63.96 26.27 63.97C26.23 63.99 26.2 64 26.16 64L26.13 64C26.08 63.99 26.04 63.98 26.01 63.96C25.97 63.94 25.93 63.91 25.91 63.88C25.88 63.85 25.86 63.81 25.85 63.77C25.84 63.73 25.83 63.68 25.84 63.64C27.18 50.58 25.55 49.42 25.44 49.35C25.37 49.34 25.3 49.31 25.25 49.26C23.45 49.86 21.61 50.33 19.74 50.67C19.28 50.77 18.81 50.82 18.34 50.83C16.79 50.83 15.39 50.25 14.59 49.23C13.84 48.27 13.25 46.5 14.63 43.54C14.08 43.1 12.84 41.81 13.82 39.79C13.84 39.74 13.88 39.7 13.93 39.66C13.98 39.63 14.04 39.62 14.1 39.62L19.31 39.62C19.35 39.62 19.39 39.63 19.42 39.65C19.46 39.66 19.49 39.69 19.52 39.72C19.54 39.75 19.57 39.78 19.58 39.81C19.59 39.85 19.6 39.89 19.6 39.93C19.6 39.97 19.59 40.01 19.58 40.04C19.57 40.08 19.54 40.11 19.52 40.14C19.49 40.17 19.46 40.19 19.42 40.21C19.39 40.23 19.35 40.24 19.31 40.24L14.31 40.24C14.25 40.37 14.2 40.5 14.17 40.64C14.13 40.77 14.11 40.91 14.1 41.05C14.09 41.19 14.09 41.33 14.11 41.46C14.12 41.6 14.15 41.74 14.19 41.87C14.23 42.01 14.28 42.14 14.35 42.26C14.41 42.38 14.48 42.5 14.57 42.61C14.65 42.72 14.75 42.83 14.85 42.92C14.96 43.01 15.07 43.1 15.19 43.17C15.22 43.19 15.25 43.22 15.27 43.25C15.3 43.28 15.32 43.31 15.33 43.35C15.34 43.39 15.34 43.43 15.34 43.47C15.34 43.51 15.32 43.54 15.31 43.58C14.21 45.8 14.14 47.62 15.09 48.83C15.98 49.97 17.76 50.45 19.63 50.04C19.72 50.03 26.89 48.9 35.13 44.21C35.17 44.19 35.21 44.18 35.25 44.18C35.29 44.17 35.33 44.17 35.38 44.19C35.42 44.2 35.45 44.22 35.49 44.25C35.52 44.27 35.55 44.3 35.56 44.34ZM50.6 43.06C50.04 46.76 52.52 53.35 56.49 58.73C56.51 58.76 56.53 58.8 56.54 58.84C56.55 58.88 56.55 58.92 56.54 58.96C56.54 59 56.52 59.04 56.5 59.07C56.48 59.11 56.45 59.14 56.42 59.16C56.39 59.19 56.35 59.21 56.31 59.21C56.27 59.22 56.23 59.23 56.19 59.22C56.15 59.21 56.11 59.2 56.07 59.18C56.04 59.16 56.01 59.13 55.98 59.1C51.86 53.51 49.39 46.87 49.98 42.96C50.17 41.69 51.22 39.35 52.23 37.08C52.93 35.51 53.65 33.89 54.04 32.73C54.04 32.73 54.04 32.72 54.04 32.71C54.1 32.58 54.15 32.44 54.21 32.3L49.45 32.3C49.45 32.38 49.44 32.44 49.4 32.5C49.01 33.15 48.57 33.76 48.08 34.33C47.96 34.77 47.33 37.01 45.94 37.71C45.66 37.86 45.37 37.93 45.05 37.93C44.73 37.92 44.43 37.86 44.14 37.73C42.91 37.2 43.03 35.93 43.27 35.32C43.29 35.29 43.31 35.26 43.34 35.23C43.37 35.2 43.4 35.18 43.44 35.17C43.48 35.15 43.51 35.15 43.55 35.15C43.59 35.15 43.63 35.15 43.67 35.17C43.71 35.18 43.74 35.2 43.77 35.23C43.8 35.26 43.82 35.29 43.84 35.33C43.85 35.36 43.86 35.4 43.87 35.44C43.87 35.48 43.87 35.52 43.85 35.56C43.81 35.67 43.43 36.73 44.39 37.14C44.59 37.24 44.8 37.29 45.02 37.29C45.24 37.29 45.45 37.24 45.65 37.14C46.91 36.51 47.47 34.13 47.48 34.11C47.49 34.06 47.51 34.02 47.54 33.98C48 33.45 48.41 32.89 48.78 32.3L43.81 32.3C43.78 32.3 43.75 32.29 43.73 32.29C43.24 32.14 42.78 31.93 42.35 31.66C41.92 31.39 41.54 31.07 41.2 30.69C41.14 30.76 41.06 30.79 40.98 30.79L39.62 30.79C38.68 32.36 37.56 33.42 36.26 33.42L36.18 33.42C35.74 33.68 33.77 34.81 31.89 34.81C31.76 34.81 31.62 34.81 31.49 34.79C31.16 34.94 30.8 35.02 30.43 35.03C30.36 35.03 30.29 35.02 30.22 35.01L10.1 33.93C10.13 33.95 10.15 33.97 10.16 33.99C10.91 34.97 13.09 35.03 13.87 34.97C13.92 34.97 13.97 34.98 14.01 34.99C14.06 35.01 14.09 35.04 14.13 35.07C14.16 35.11 14.18 35.15 14.2 35.19C14.21 35.24 14.22 35.29 14.21 35.33C14.12 35.95 13.99 37.71 14.4 38.5C14.42 38.54 14.43 38.58 14.44 38.62C14.44 38.66 14.44 38.7 14.42 38.74C14.41 38.78 14.39 38.82 14.36 38.85C14.34 38.88 14.31 38.91 14.27 38.93C14.22 38.95 14.17 38.97 14.12 38.97C14.06 38.97 14.01 38.95 13.96 38.92C13.91 38.89 13.87 38.85 13.84 38.8C13.38 37.92 13.47 36.34 13.54 35.62C12.66 35.63 10.55 35.53 9.66 34.36C9.64 34.33 9.62 34.29 9.61 34.25C9.6 34.21 9.6 34.17 9.6 34.13C9.61 34.09 9.62 34.05 9.64 34.02C9.66 33.98 9.69 33.95 9.72 33.93C9.72 33.93 9.74 33.93 9.75 33.92L5.9 33.71C5.8 33.71 3.23 33.64 2.98 32.03C0.66 31.47 0.47 28.9 0.46 28.67C-0.05 23.85 -0.14 19.02 0.18 14.18C0.24 12.47 1.76 11.91 2.31 11.85L2.63 11.79C2.89 11.42 3.77 10.46 5.96 10.13C6.04 10.13 10.48 9.53 17.21 9.21C21.29 3.1 30.04 -0.26 36.14 0.01C44.35 0.38 51.35 4.38 54.93 10.73L55.84 10.65C55.8 10.41 55.81 10.17 55.86 9.93C55.91 9.69 56 9.47 56.14 9.26C56.42 8.89 56.87 8.69 57.45 8.68L57.52 8.68C59.58 8.68 59.74 11.36 59.86 13.32C60.11 17.39 60.02 20.62 59.59 23.19C58.98 26.87 57.99 29.65 55.03 31.94C54.9 32.28 54.76 32.62 54.62 32.95C54.22 34.13 53.52 35.69 52.79 37.33C51.8 39.56 50.77 41.87 50.6 43.06ZM56.6 17.42L48.76 18.25C48.51 18.41 48.23 18.47 47.93 18.43L46.4 18.49C46.17 20.13 45.79 21.74 45.26 23.31C44.72 24.88 44.04 26.39 43.22 27.83C43.42 28.09 43.66 28.3 43.94 28.47C44.22 28.64 44.53 28.75 44.85 28.8C45.73 28.99 48.51 29.02 50.53 29.02C50.52 28.96 50.53 28.9 50.55 28.84C51.18 27.29 51.29 25.93 50.85 25.1C50.74 24.88 50.58 24.7 50.38 24.55C50.17 24.41 49.95 24.31 49.71 24.27C46.84 23.66 46.12 26.28 46.09 26.39C46.08 26.43 46.06 26.47 46.04 26.51C46.01 26.54 45.98 26.57 45.95 26.59C45.91 26.61 45.87 26.63 45.83 26.63C45.78 26.64 45.74 26.64 45.7 26.63C45.66 26.62 45.62 26.6 45.59 26.57C45.55 26.54 45.52 26.51 45.5 26.47C45.48 26.44 45.47 26.4 45.47 26.35C45.46 26.31 45.47 26.27 45.48 26.23C45.48 26.2 46.39 22.92 49.84 23.66C50 23.69 50.16 23.74 50.32 23.81C50.47 23.87 50.61 23.96 50.75 24.06C50.88 24.16 51.01 24.27 51.12 24.4C51.23 24.52 51.32 24.66 51.4 24.81C51.93 25.81 51.83 27.3 51.15 29.03C51.92 29.03 52.51 29.03 52.69 29.03C52.99 28.89 54.66 28.01 56.09 25.06C56.18 24.58 56.78 20.45 56.6 17.42ZM47.92 17.81L47.95 17.81C48.31 17.83 48.41 17.74 48.42 17.72L48.42 13.92C42.96 10.89 36.64 10.06 33.72 9.84C34.03 10.1 34.28 10.4 34.48 10.76C34.67 11.11 34.8 11.49 34.85 11.89C35.54 17.01 35.59 22.14 35.01 27.27C34.62 30.64 33.76 32.96 32.45 34.16C34.17 33.95 35.91 32.87 35.93 32.85L35.95 32.85C38.12 31.72 38.36 28.21 38.36 28.18L38.8 20.82C38.85 18.17 41.34 18.06 41.37 18.06L47.92 17.81ZM57.91 16.03L57.59 11.15L45.94 12.02C46.95 12.45 47.94 12.92 48.9 13.46C48.95 13.49 48.99 13.53 49.02 13.58C49.04 13.63 49.06 13.68 49.06 13.74L49.06 17.59L56.87 16.76C57.91 16.6 57.91 16.04 57.91 16.03ZM36.11 0.64C35.74 0.62 35.35 0.62 34.96 0.64C32.8 1.06 27.97 2.7 23.41 9.04C25.76 9.01 28.27 9.04 30.85 9.12C30.91 9.12 30.96 9.12 31.03 9.13C31.33 9.11 31.62 9.11 31.92 9.14C31.96 9.13 32 9.12 32.04 9.12C36.34 9.28 40.51 10.07 44.56 11.5L54.22 10.78C50.72 4.77 43.99 0.99 36.11 0.64ZM18 9.18C19.56 9.11 21.25 9.06 23.02 9.04C26.23 4.5 29.57 2.34 31.83 1.31C32.33 1.09 32.79 0.9 33.22 0.76C27.81 1.42 21.42 4.39 18 9.18ZM3.72 11.61C5.61 11.31 9.14 10.8 12.92 10.59C17.83 10.3 25.05 10.15 25.48 10.15C25.73 10.13 25.98 10.13 26.23 10.16C26.47 10.19 26.71 10.25 26.95 10.33C27.18 10.41 27.41 10.51 27.62 10.64C27.84 10.76 28.04 10.91 28.22 11.07C30.01 12.58 30.92 15.62 30.92 20.11C30.92 25.03 30.38 28.67 29.31 30.93C28.86 31.89 28.4 32.4 28.06 32.68L30.49 32.8C31.51 31.86 32.16 29.07 32.32 28.05C33.66 19.8 32.57 11.56 32.56 11.48C32.4 10.12 31.41 9.82 31.01 9.76C30.99 9.76 30.97 9.76 30.95 9.76L30.85 9.76C22.56 9.47 14.29 9.8 6.05 10.76C5.21 10.85 4.43 11.14 3.72 11.61ZM3.72 31.51L6.1 29.37C6.16 29.31 6.23 29.28 6.32 29.29L18.55 29.56C18.59 29.56 18.63 29.57 18.67 29.59C20.44 30.41 22.14 31.33 23.79 32.36L27.39 32.36C27.67 32.24 30.28 30.77 30.28 20.12C30.28 14.77 28.94 12.51 27.81 11.56C26.69 10.61 25.57 10.78 25.56 10.78L25.51 10.78C25.44 10.78 17.98 10.92 12.95 11.22C9.41 11.44 5.9 11.85 2.41 12.46L2.39 12.46C2.37 12.46 0.86 12.68 0.81 14.21C0.5 19.02 0.59 23.82 1.09 28.61C1.1 28.62 1.1 28.63 1.09 28.65C1.09 28.75 1.19 31.37 3.72 31.52L3.72 31.51ZM18.46 30.2L6.42 29.92L4.6 31.56L22.7 32.42C20.86 31.31 18.83 30.36 18.46 30.2L18.46 30.2ZM31.29 34.2C31.45 34.13 31.59 34.04 31.73 33.93C32.66 33.24 33.87 31.51 34.37 27.2C34.94 22.12 34.89 17.05 34.21 11.99C34 10.7 33.23 10.14 32.52 9.9C32.71 10.11 32.85 10.34 32.97 10.6C33.08 10.85 33.15 11.12 33.18 11.4C33.18 11.48 34.29 19.81 32.94 28.15C32.91 28.31 32.26 32.18 30.79 33.37C30.73 33.41 30.67 33.43 30.59 33.43L30.58 33.43L3.81 32.15L3.66 32.15C4.05 33.02 5.89 33.09 5.91 33.09L30.25 34.4L30.29 34.4C30.64 34.43 30.97 34.37 31.28 34.2L31.29 34.2ZM42.76 18.63L41.39 18.67C41.31 18.67 39.46 18.77 39.43 20.83L38.98 28.21C38.98 28.34 38.8 30.79 37.44 32.42C40.24 30.51 42.16 22.3 42.76 18.62L42.76 18.63ZM40.82 30.18C44.61 25.62 45.57 19.97 45.76 18.52L43.4 18.61C43.26 19.46 42.14 26.08 39.97 30.18L40.82 30.18ZM43.85 31.68L54.35 31.68C57.39 29.46 58.38 26.75 58.98 23.1C59.4 20.57 59.48 17.38 59.24 13.36C59.11 11.15 58.89 9.31 57.52 9.31L57.48 9.31C57.32 9.3 57.17 9.32 57.02 9.38C56.87 9.44 56.75 9.53 56.64 9.65C56.55 9.79 56.5 9.95 56.47 10.11C56.44 10.28 56.44 10.44 56.47 10.6L57.85 10.5C57.94 10.49 58.01 10.52 58.08 10.58C58.14 10.63 58.18 10.71 58.19 10.8L58.54 16C58.54 16.05 58.58 17.01 57.23 17.33C57.43 20.62 56.75 25.01 56.72 25.21C56.71 25.24 56.7 25.27 56.69 25.29C55.01 28.79 52.97 29.61 52.88 29.64C52.84 29.65 52.81 29.66 52.77 29.66C52.68 29.66 51.83 29.67 50.72 29.67C48.66 29.67 45.68 29.63 44.72 29.43C44.36 29.36 44.03 29.25 43.71 29.07C43.39 28.9 43.11 28.68 42.87 28.41C42.48 29.04 42.06 29.64 41.6 30.22C41.9 30.56 42.24 30.86 42.62 31.1C43.01 31.35 43.42 31.54 43.85 31.68L43.85 31.68Z" fill="url(#paint_linear_9_197_0)" fill-opacity="1.000000" fill-rule="nonzero"/>
	</g>
</svg>
