<svg width="21.291138" height="20.775391" viewBox="0 0 21.2911 20.7754" fill="none" xmlns="http://www.w3.org/2000/svg" xmlns:xlink="http://www.w3.org/1999/xlink">
	<desc>
			Created with Pixso.
	</desc>
	<defs/>
	<path id="Vector" d="M10.64 0C4.74 0 0 4.74 0 10.64C0 15.34 3.06 19.33 7.27 20.75C7.8 20.84 7.98 20.53 7.98 20.22C7.98 19.96 7.98 19.29 7.98 18.4C5.01 19.07 4.39 16.98 4.39 16.98C3.9 15.74 3.19 15.43 3.19 15.43C2.21 14.77 3.28 14.77 3.28 14.77C4.34 14.85 4.92 15.87 4.92 15.87C5.85 17.52 7.4 17.03 8.02 16.76C8.11 16.05 8.38 15.61 8.69 15.34C6.34 15.08 3.85 14.15 3.85 10.06C3.85 8.91 4.25 7.93 4.96 7.23C4.87 6.96 4.47 5.89 5.05 4.39C5.05 4.39 5.94 4.12 7.98 5.5C8.82 5.27 9.75 5.14 10.64 5.14C11.53 5.14 12.46 5.27 13.3 5.5C15.34 4.12 16.23 4.39 16.23 4.39C16.81 5.85 16.45 6.91 16.32 7.23C16.98 7.98 17.43 8.91 17.43 10.06C17.43 14.15 14.94 15.03 12.55 15.3C12.95 15.61 13.26 16.27 13.26 17.25C13.26 18.67 13.26 19.82 13.26 20.18C13.26 20.44 13.43 20.8 14.01 20.71C18.23 19.33 21.29 15.34 21.29 10.64C21.29 4.74 16.54 0 10.64 0Z" fill="#FFFFFF" fill-opacity="1.000000" fill-rule="evenodd"/>
</svg>
