<svg width="22.258057" height="22.259766" viewBox="0 0 22.2581 22.2598" fill="none" xmlns="http://www.w3.org/2000/svg" xmlns:xlink="http://www.w3.org/1999/xlink">
	<desc>
			Created with Pixso.
	</desc>
	<defs/>
	<path id="Vector" d="M11.12 2C14.1 2 14.45 2.01 15.62 2.07C16.33 2.07 17.03 2.2 17.69 2.45C18.17 2.63 18.6 2.92 18.97 3.28C19.33 3.65 19.62 4.08 19.8 4.56C20.05 5.22 20.17 5.92 20.18 6.63C20.24 7.8 20.25 8.15 20.25 11.12C20.25 14.1 20.24 14.45 20.18 15.62C20.17 16.33 20.05 17.03 19.8 17.69C19.62 18.17 19.33 18.6 18.97 18.97C18.6 19.33 18.17 19.62 17.69 19.8C17.03 20.05 16.33 20.17 15.62 20.18C14.45 20.24 14.1 20.25 11.12 20.25C8.15 20.25 7.8 20.24 6.63 20.18C5.92 20.17 5.22 20.05 4.56 19.8C4.08 19.62 3.64 19.33 3.28 18.97C2.92 18.6 2.63 18.17 2.45 17.69C2.2 17.03 2.07 16.33 2.06 15.62C2.01 14.45 2 14.1 2 11.12C2 8.15 2.01 7.8 2.06 6.63C2.07 5.92 2.2 5.22 2.45 4.56C2.63 4.08 2.92 3.65 3.28 3.28C3.64 2.92 4.08 2.63 4.56 2.45C5.22 2.2 5.92 2.07 6.63 2.07C7.8 2.01 8.15 2 11.12 2ZM11.12 0C8.1 0 7.72 0.01 6.54 0.06C5.61 0.08 4.7 0.25 3.83 0.58C3.09 0.86 2.42 1.3 1.86 1.86C1.3 2.42 0.86 3.09 0.58 3.83C0.25 4.7 0.08 5.61 0.06 6.54C0.01 7.72 0 8.1 0 11.12C0 14.15 0.01 14.53 0.06 15.71C0.08 16.64 0.26 17.55 0.58 18.41C0.86 19.16 1.3 19.83 1.86 20.39C2.42 20.95 3.09 21.39 3.83 21.67C4.7 22 5.61 22.17 6.54 22.19C7.72 22.24 8.1 22.25 11.13 22.25C14.15 22.25 14.53 22.24 15.71 22.19C16.64 22.17 17.55 22 18.42 21.67C19.16 21.38 19.83 20.95 20.39 20.39C20.95 19.83 21.38 19.15 21.67 18.41C21.99 17.55 22.17 16.64 22.19 15.71C22.24 14.52 22.25 14.15 22.25 11.12C22.25 8.1 22.24 7.72 22.19 6.54C22.17 5.61 21.99 4.7 21.67 3.83C21.39 3.09 20.95 2.42 20.39 1.86C19.83 1.3 19.16 0.86 18.41 0.58C17.55 0.25 16.64 0.08 15.71 0.06C14.53 0.01 14.14 0 11.12 0Z" fill="#FFFFFF" fill-opacity="1.000000" fill-rule="nonzero"/>
	<path id="Vector" d="M11.13 5.41C10 5.41 8.89 5.75 7.95 6.37C7.01 7 6.28 7.89 5.85 8.94C5.42 9.98 5.3 11.13 5.52 12.24C5.74 13.35 6.29 14.37 7.09 15.16C7.89 15.96 8.9 16.51 10.01 16.73C11.12 16.95 12.27 16.84 13.32 16.4C14.36 15.97 15.25 15.24 15.88 14.3C16.51 13.36 16.84 12.25 16.84 11.12C16.84 9.61 16.24 8.16 15.17 7.08C14.1 6.01 12.64 5.41 11.13 5.41ZM11.13 14.83C10.39 14.83 9.68 14.62 9.07 14.21C8.46 13.8 7.98 13.22 7.7 12.54C7.42 11.87 7.35 11.12 7.49 10.4C7.63 9.68 7.99 9.02 8.5 8.5C9.02 7.98 9.68 7.63 10.4 7.49C11.12 7.34 11.87 7.42 12.55 7.7C13.23 7.98 13.8 8.45 14.21 9.06C14.62 9.67 14.84 10.39 14.84 11.12C14.84 12.11 14.45 13.05 13.75 13.75C13.06 14.44 12.11 14.83 11.13 14.83Z" fill="#FFFFFF" fill-opacity="1.000000" fill-rule="nonzero"/>
	<path id="Vector" d="M18.4 5.18C18.4 5.92 17.8 6.52 17.06 6.52C16.33 6.52 15.73 5.92 15.73 5.18C15.73 4.44 16.33 3.85 17.06 3.85C17.8 3.85 18.4 4.44 18.4 5.18Z" fill="#FFFFFF" fill-opacity="1.000000" fill-rule="evenodd"/>
</svg>
