<svg width="17.916687" height="16.250000" viewBox="0 0 17.9167 16.25" fill="none" xmlns="http://www.w3.org/2000/svg" xmlns:xlink="http://www.w3.org/1999/xlink">
	<desc>
			Created with Pixso.
	</desc>
	<defs/>
	<path id="Combined-Shape" d="M13.04 0C15.82 0 17.91 2.26 17.91 5.26L17.91 10.99C17.91 12.52 17.37 13.91 16.38 14.9C15.5 15.78 14.35 16.25 13.06 16.25L4.85 16.25C3.56 16.25 2.41 15.78 1.53 14.9C0.54 13.91 0 12.52 0 10.99L0 5.26C0 2.26 2.09 0 4.86 0L13.04 0ZM13.04 1.25L4.86 1.25C2.77 1.25 1.25 2.93 1.25 5.26L1.25 10.99C1.25 12.19 1.66 13.26 2.41 14.01C3.06 14.66 3.9 15 4.85 15L13.04 15C13.05 14.99 13.05 15 13.06 15C14.01 15 14.85 14.66 15.5 14.01C16.25 13.26 16.66 12.19 16.66 10.99L16.66 5.26C16.66 2.93 15.14 1.25 13.04 1.25ZM14.36 5.1C14.58 5.37 14.53 5.76 14.27 5.98L10.56 8.99C10.1 9.36 9.53 9.55 8.98 9.55C8.42 9.55 7.86 9.36 7.4 9L3.66 5.98C3.39 5.77 3.35 5.37 3.57 5.1C3.78 4.84 4.18 4.79 4.44 5.01L8.18 8.02C8.65 8.39 9.31 8.39 9.78 8.02L13.48 5.01C13.75 4.79 14.14 4.83 14.36 5.1Z" fill="#B0B0B2" fill-opacity="1.000000" fill-rule="evenodd"/>
</svg>
