<svg width="13.750000" height="16.250000" viewBox="0 0 13.75 16.25" fill="none" xmlns="http://www.w3.org/2000/svg" xmlns:xlink="http://www.w3.org/1999/xlink">
	<desc>
			Created with Pixso.
	</desc>
	<defs/>
	<path id="Combined-Shape" d="M6.87 0C10.66 0 13.75 3.1 13.75 6.92C13.75 11.62 8.37 16.25 6.87 16.25C5.38 16.25 0 11.62 0 6.92C0 3.1 3.08 0 6.87 0ZM6.87 1.25C3.77 1.25 1.25 3.79 1.25 6.92C1.25 10.91 5.93 14.78 6.87 14.99C7.81 14.78 12.5 10.9 12.5 6.92C12.5 3.79 9.97 1.25 6.87 1.25ZM6.87 4.16C8.36 4.16 9.58 5.38 9.58 6.87C9.58 8.36 8.36 9.58 6.87 9.58C5.38 9.58 4.16 8.36 4.16 6.87C4.16 5.38 5.38 4.16 6.87 4.16ZM6.87 5.41C6.07 5.41 5.41 6.07 5.41 6.87C5.41 7.67 6.07 8.33 6.87 8.33C7.67 8.33 8.33 7.67 8.33 6.87C8.33 6.07 7.67 5.41 6.87 5.41Z" fill="#B0B0B2" fill-opacity="1.000000" fill-rule="evenodd"/>
</svg>
