<svg width="17.410889" height="17.083984" viewBox="0 0 17.4109 17.084" fill="none" xmlns="http://www.w3.org/2000/svg" xmlns:xlink="http://www.w3.org/1999/xlink">
	<desc>
			Created with Pixso.
	</desc>
	<defs/>
	<path id="Combined-Shape" d="M3.88 0C4.81 0.01 5.47 0.71 6.31 1.59C6.52 1.81 6.74 2.04 6.99 2.29C8.21 3.51 7.86 4.5 7.58 5.3C7.28 6.17 7.02 6.92 8.59 8.49C10.16 10.06 10.91 9.8 11.78 9.49C12.58 9.21 13.57 8.87 14.78 10.08C15.03 10.33 15.26 10.55 15.48 10.76C16.37 11.6 17.07 12.27 17.08 13.2C17.09 14 16.6 14.81 15.41 16L14.88 15.64L15.33 16.08C15.07 16.35 14.36 17.07 12.99 17.08L12.96 17.08C10.89 17.08 8.18 15.42 4.92 12.16C1.64 8.89 -0.02 6.17 6.1e-5 4.09C0 2.72 0.72 2.01 0.99 1.75L1.02 1.72L1.07 1.66C2.27 0.47 3.09 -0.02 3.88 0ZM3.86 1.25L3.85 1.25C3.48 1.25 2.91 1.62 2.12 2.39L1.96 2.55L1.96 2.55C1.96 2.55 1.95 2.56 1.92 2.58L1.87 2.64C1.67 2.84 1.25 3.25 1.25 4.1C1.24 5.29 2.02 7.5 5.8 11.28C9.56 15.04 11.77 15.83 12.96 15.83L12.98 15.83C13.83 15.82 14.24 15.41 14.44 15.21C14.49 15.15 14.54 15.1 14.58 15.07C15.41 14.24 15.83 13.61 15.83 13.22C15.82 12.81 15.32 12.33 14.62 11.66C14.4 11.45 14.15 11.22 13.9 10.97C13.24 10.31 12.91 10.42 12.19 10.67C11.2 11.02 9.83 11.5 7.71 9.37C5.58 7.25 6.06 5.88 6.4 4.89C6.65 4.17 6.77 3.84 6.11 3.18C5.85 2.92 5.62 2.67 5.4 2.45C4.74 1.75 4.26 1.25 3.86 1.25ZM11.03 2.96C12.77 3.3 14.11 4.64 14.44 6.37C14.51 6.71 14.29 7.04 13.95 7.1C13.91 7.11 13.87 7.11 13.83 7.11C13.54 7.11 13.28 6.91 13.22 6.61C12.98 5.38 12.03 4.43 10.8 4.19C10.46 4.12 10.24 3.79 10.3 3.45C10.37 3.11 10.7 2.89 11.03 2.96ZM10.98 0C14.38 0.38 17.02 3.01 17.4 6.41C17.44 6.75 17.19 7.06 16.85 7.1C16.83 7.1 16.8 7.11 16.78 7.11C16.47 7.11 16.2 6.87 16.16 6.55C15.84 3.74 13.66 1.55 10.85 1.24C10.5 1.2 10.26 0.9 10.29 0.55C10.33 0.21 10.64 -0.04 10.98 0Z" fill="#B0B0B2" fill-opacity="1.000000" fill-rule="evenodd"/>
</svg>
