<svg width="18.357178" height="14.837891" viewBox="0 0 18.3572 14.8379" fill="none" xmlns="http://www.w3.org/2000/svg" xmlns:xlink="http://www.w3.org/1999/xlink">
	<desc>
			Created with Pixso.
	</desc>
	<defs/>
	<path id="Vector" d="M18.35 1.72C17.66 2.02 16.94 2.21 16.17 2.33C16.94 1.87 17.55 1.14 17.82 0.26C17.09 0.68 16.29 0.99 15.41 1.18C14.72 0.45 13.72 0 12.65 0C10.59 0 8.91 1.68 8.91 3.74C8.91 4.05 8.94 4.32 9.02 4.58C5.92 4.43 3.13 2.94 1.26 0.65C0.95 1.22 0.76 1.83 0.76 2.52C0.76 3.82 1.41 4.97 2.44 5.66C1.83 5.62 1.26 5.46 0.72 5.2L0.72 5.24C0.72 7.07 2.02 8.6 3.74 8.94C3.44 9.02 3.09 9.06 2.75 9.06C2.52 9.06 2.25 9.02 2.02 8.98C2.52 10.47 3.9 11.58 5.54 11.58C4.24 12.58 2.63 13.19 0.87 13.19C0.57 13.19 0.26 13.19 0 13.15C1.68 14.22 3.63 14.83 5.77 14.83C12.69 14.83 16.48 9.1 16.48 4.13C16.48 3.97 16.48 3.78 16.48 3.63C17.2 3.13 17.86 2.48 18.35 1.72Z" fill="#FFFFFF" fill-opacity="1.000000" fill-rule="nonzero"/>
</svg>
