<svg width="46.496948" height="48.000977" viewBox="0 0 46.4969 48.001" fill="none" xmlns="http://www.w3.org/2000/svg" xmlns:xlink="http://www.w3.org/1999/xlink">
	<desc>
			Created with Pixso.
	</desc>
	<defs>
		<linearGradient x1="6.896484" y1="22.490280" x2="19.863373" y2="22.490280" id="paint_linear_84_3626_0" gradientUnits="userSpaceOnUse">
			<stop stop-color="#0CBAF1"/>
			<stop offset="1.000000" stop-color="#E95CE9"/>
		</linearGradient>
		<linearGradient x1="0.000061" y1="16.962641" x2="31.817417" y2="16.962641" id="paint_linear_84_3624_0" gradientUnits="userSpaceOnUse">
			<stop stop-color="#0CBAF1"/>
			<stop offset="1.000000" stop-color="#E95CE9"/>
		</linearGradient>
		<linearGradient x1="6.974487" y1="13.538160" x2="13.482172" y2="13.538160" id="paint_linear_84_3628_0" gradientUnits="userSpaceOnUse">
			<stop stop-color="#0CBAF1"/>
			<stop offset="1.000000" stop-color="#E95CE9"/>
		</linearGradient>
		<linearGradient x1="17.176819" y1="17.251049" x2="23.684504" y2="17.251049" id="paint_linear_84_3630_0" gradientUnits="userSpaceOnUse">
			<stop stop-color="#0CBAF1"/>
			<stop offset="1.000000" stop-color="#E95CE9"/>
		</linearGradient>
		<linearGradient x1="7.265076" y1="9.952051" x2="15.106779" y2="9.952051" id="paint_linear_84_3632_0" gradientUnits="userSpaceOnUse">
			<stop stop-color="#0CBAF1"/>
			<stop offset="1.000000" stop-color="#E95CE9"/>
		</linearGradient>
		<linearGradient x1="18.801270" y1="14.142517" x2="25.250504" y2="14.142517" id="paint_linear_84_3634_0" gradientUnits="userSpaceOnUse">
			<stop stop-color="#0CBAF1"/>
			<stop offset="1.000000" stop-color="#E95CE9"/>
		</linearGradient>
		<linearGradient x1="17.632385" y1="31.038769" x2="46.496948" y2="31.038769" id="paint_linear_84_3636_0" gradientUnits="userSpaceOnUse">
			<stop stop-color="#0CBAF1"/>
			<stop offset="1.000000" stop-color="#E95CE9"/>
		</linearGradient>
		<linearGradient x1="27.840393" y1="36.967819" x2="40.807281" y2="36.967819" id="paint_linear_84_3638_0" gradientUnits="userSpaceOnUse">
			<stop stop-color="#0CBAF1"/>
			<stop offset="1.000000" stop-color="#E95CE9"/>
		</linearGradient>
		<linearGradient x1="22.774292" y1="30.421879" x2="28.624260" y2="30.421879" id="paint_linear_84_3640_0" gradientUnits="userSpaceOnUse">
			<stop stop-color="#0CBAF1"/>
			<stop offset="1.000000" stop-color="#E95CE9"/>
		</linearGradient>
		<linearGradient x1="32.318726" y1="27.243387" x2="39.133564" y2="27.243387" id="paint_linear_84_3642_0" gradientUnits="userSpaceOnUse">
			<stop stop-color="#0CBAF1"/>
			<stop offset="1.000000" stop-color="#E95CE9"/>
		</linearGradient>
		<linearGradient x1="31.390198" y1="24.028223" x2="39.231899" y2="24.028223" id="paint_linear_84_3644_0" gradientUnits="userSpaceOnUse">
			<stop stop-color="#0CBAF1"/>
			<stop offset="1.000000" stop-color="#E95CE9"/>
		</linearGradient>
	</defs>
	<path id="path3991 (Stroke)" d="M17.8 23.65C16.38 25.31 14.03 26 11.85 25.21L11.61 25.87L11.85 25.21C9.68 24.42 8.32 22.38 8.3 20.19C9.52 21.21 11.04 22.08 12.76 22.71L12.76 22.71C14.49 23.34 16.21 23.64 17.8 23.65ZM11.37 26.54C14.66 27.73 18.26 26.24 19.78 23.19C19.9 22.96 19.88 22.68 19.73 22.47C19.58 22.26 19.33 22.15 19.07 22.18C17.36 22.38 15.32 22.14 13.24 21.39C11.17 20.63 9.45 19.5 8.27 18.25C8.1 18.06 7.83 17.98 7.58 18.05C7.33 18.11 7.14 18.31 7.08 18.56C6.29 21.88 8.09 25.34 11.37 26.54L11.37 26.54Z" fill="url(#paint_linear_84_3626_0)" fill-opacity="1.000000" fill-rule="evenodd"/>
	<path id="path3987 (Stroke)" d="M12.43 32.26C10.33 32.97 8.03 32.13 6.88 30.25L6.29 30.6L6.88 30.25L2.98 23.85C1.27 21.04 0.93 17.6 2.05 14.51L6.02 3.62L5.36 3.38L6.02 3.62C6.65 1.87 8.59 0.97 10.33 1.61L28.19 8.1L28.43 7.44L28.19 8.1C29.94 8.74 30.84 10.67 30.2 12.42L26.24 23.31C25.11 26.4 22.64 28.81 19.53 29.87L12.43 32.26L12.43 32.26ZM12.88 33.6C10.16 34.51 7.17 33.43 5.68 30.98L1.78 24.58L2.38 24.21L1.78 24.58C-0.15 21.4 -0.54 17.52 0.73 14.03L4.7 3.14C5.6 0.66 8.34 -0.62 10.82 0.29L28.67 6.78C31.15 7.68 32.43 10.42 31.52 12.9L27.56 23.79C26.29 27.28 23.5 30.01 19.98 31.2L19.77 30.58L19.98 31.2L12.88 33.6C12.88 33.6 12.88 33.6 12.88 33.6Z" fill="url(#paint_linear_84_3624_0)" fill-opacity="1.000000" fill-rule="evenodd"/>
	<path id="path3995 (Stroke)" d="M12.94 15.42C13.32 15.33 13.55 14.95 13.46 14.57C13.16 13.38 12.23 12.35 10.93 11.88L12.94 15.42ZM12.94 15.42C12.57 15.52 12.19 15.29 12.09 14.91L12.94 15.42ZM12.09 14.91C11.92 14.21 11.34 13.52 10.45 13.2L12.09 14.91ZM7.1 13.3C7.33 13.61 7.77 13.68 8.09 13.46C8.67 13.03 9.56 12.88 10.45 13.2L10.45 13.2L7.1 13.3ZM7.1 13.3C6.88 12.98 6.95 12.54 7.26 12.32L7.1 13.3ZM7.26 12.32C8.25 11.6 9.63 11.41 10.93 11.88L7.26 12.32Z" fill="url(#paint_linear_84_3628_0)" fill-opacity="1.000000" fill-rule="evenodd"/>
	<path id="path3999 (Stroke)" d="M23.15 19.14C23.52 19.04 23.75 18.66 23.66 18.29C23.36 17.1 22.43 16.06 21.13 15.59L23.15 19.14ZM23.15 19.14C22.77 19.23 22.39 19 22.29 18.63L23.15 19.14ZM22.29 18.63C22.12 17.92 21.54 17.24 20.65 16.91L22.29 18.63ZM17.31 17.01C17.53 17.33 17.97 17.4 18.29 17.17C18.88 16.74 19.76 16.59 20.65 16.91L20.65 16.91L17.31 17.01ZM17.31 17.01C17.08 16.7 17.15 16.26 17.46 16.03L17.31 17.01ZM17.46 16.03C18.45 15.31 19.83 15.12 21.13 15.59L17.46 16.03Z" fill="url(#paint_linear_84_3630_0)" fill-opacity="1.000000" fill-rule="evenodd"/>
	<path id="path4003 (Stroke)" d="M15.06 10.52C15.19 10.16 15 9.75 14.64 9.62C12.61 8.88 10.89 8.83 9.67 8.97C9.05 9.04 8.57 9.16 8.23 9.26C8.06 9.32 7.92 9.36 7.83 9.4C7.78 9.42 7.74 9.43 7.72 9.45C7.7 9.45 7.69 9.46 7.68 9.46C7.68 9.46 7.68 9.46 7.67 9.46L7.67 9.47L7.67 9.47L7.67 9.47C7.67 9.47 7.67 9.47 7.96 10.11L7.67 9.47C7.31 9.63 7.16 10.05 7.33 10.4C7.49 10.75 7.91 10.91 8.26 10.74C8.26 10.74 8.26 10.74 8.26 10.74C8.26 10.74 8.26 10.74 8.27 10.74C8.28 10.73 8.31 10.72 8.34 10.71C8.4 10.69 8.5 10.65 8.63 10.61C8.9 10.53 9.31 10.43 9.83 10.37C10.86 10.25 12.36 10.29 14.16 10.94C14.52 11.07 14.93 10.89 15.06 10.52ZM8.26 10.74C8.26 10.74 8.26 10.74 8.26 10.74C8.26 10.74 8.26 10.74 8.26 10.74L8.26 10.74Z" fill="url(#paint_linear_84_3632_0)" fill-opacity="1.000000" fill-rule="evenodd"/>
	<path id="path4007 (Stroke)" d="M24.84 16.78C25.19 16.61 25.34 16.19 25.18 15.84L24.54 16.14C25.18 15.84 25.18 15.84 25.18 15.84L25.18 15.84L25.18 15.84L25.18 15.83C25.17 15.83 25.17 15.83 25.17 15.82C25.17 15.82 25.16 15.8 25.16 15.79C25.14 15.76 25.12 15.73 25.1 15.68C25.05 15.6 24.98 15.47 24.88 15.33C24.69 15.03 24.39 14.62 23.97 14.18C23.12 13.28 21.77 12.21 19.74 11.48C19.38 11.34 18.97 11.53 18.84 11.9C18.71 12.26 18.89 12.66 19.26 12.8C21.06 13.45 22.23 14.39 22.95 15.14C23.3 15.52 23.55 15.86 23.7 16.09C23.78 16.21 23.83 16.3 23.87 16.36C23.88 16.39 23.89 16.41 23.9 16.43C23.9 16.43 23.91 16.44 23.91 16.44C23.91 16.44 23.91 16.44 23.91 16.44C24.07 16.79 24.49 16.94 24.84 16.78Z" fill="url(#paint_linear_84_3634_0)" fill-opacity="1.000000" fill-rule="evenodd"/>
	<path id="path4011 (Stroke)" d="M39.61 44.32C38.46 46.21 36.15 47.05 34.06 46.34L26.96 43.94C26.96 43.94 26.96 43.94 26.96 43.94C23.84 42.89 21.37 40.48 20.25 37.39C20.25 37.39 20.25 37.39 20.25 37.39L18.99 33.93C18.86 33.57 18.46 33.38 18.09 33.51C17.73 33.65 17.54 34.05 17.67 34.41L18.93 37.87L18.93 37.87C20.2 41.36 22.99 44.09 26.51 45.28L26.51 45.28L33.61 47.67C36.33 48.59 39.32 47.5 40.81 45.05L44.71 38.65L44.11 38.29L44.71 38.65C46.64 35.48 47.03 31.6 45.75 28.1L41.79 17.21C40.89 14.74 38.15 13.46 35.67 14.36L35.67 14.36L32.52 15.51C32.16 15.64 31.97 16.04 32.1 16.41C32.23 16.77 32.64 16.96 33 16.83L36.15 15.68C37.9 15.05 39.83 15.95 40.47 17.7L44.43 28.58C45.56 31.67 45.22 35.11 43.51 37.92L39.61 44.32L40.21 44.69L39.61 44.32Z" fill="url(#paint_linear_84_3636_0)" fill-opacity="1.000000" fill-rule="evenodd"/>
	<path id="path4015 (Stroke)" d="M28.52 41.4C28.77 41.47 29.04 41.39 29.22 41.2C30.4 39.95 32.11 38.82 34.19 38.06L33.95 37.4L34.19 38.06C36.26 37.31 38.31 37.07 40.02 37.27C40.27 37.3 40.53 37.19 40.67 36.98C40.82 36.77 40.84 36.49 40.73 36.26C39.2 33.21 35.6 31.72 32.31 32.91L32.31 32.91C29.03 34.11 27.23 37.57 28.02 40.88C28.08 41.14 28.27 41.33 28.52 41.4ZM29.24 39.26C29.26 37.07 30.62 35.03 32.8 34.23L32.56 33.57L32.8 34.23C34.97 33.44 37.32 34.14 38.75 35.8C37.16 35.81 35.43 36.11 33.71 36.74L33.71 36.74C31.99 37.37 30.46 38.24 29.24 39.26ZM32.56 33.57L32.55 33.57L32.56 33.57Z" fill="url(#paint_linear_84_3638_0)" fill-opacity="1.000000" fill-rule="evenodd"/>
	<path id="path4019 (Stroke)" d="M26.07 30.86C25.3 31.4 24.4 31.48 23.72 31.23C23.36 31.09 22.95 31.27 22.82 31.63C22.68 32 22.86 32.4 23.22 32.54C24.37 32.98 25.75 32.8 26.88 32.01L26.88 32.01C28.01 31.22 28.64 29.97 28.62 28.75C28.61 28.36 28.29 28.05 27.9 28.06C27.52 28.07 27.21 28.39 27.21 28.78C27.23 29.5 26.84 30.32 26.07 30.86L26.07 30.86Z" fill="url(#paint_linear_84_3640_0)" fill-opacity="1.000000" fill-rule="evenodd"/>
	<path id="path4023 (Stroke)" d="M32.47 27.35C33.24 28.3 34.52 28.84 35.9 28.72C37.27 28.61 38.44 27.85 39.04 26.78C39.23 26.44 39.11 26.01 38.77 25.83C38.43 25.64 38 25.76 37.81 26.1C37.46 26.73 36.72 27.24 35.78 27.32L35.78 27.32C34.84 27.41 34.02 27.03 33.56 26.46C33.32 26.16 32.88 26.12 32.57 26.36C32.27 26.6 32.23 27.05 32.47 27.35Z" fill="url(#paint_linear_84_3642_0)" fill-opacity="1.000000" fill-rule="evenodd"/>
	<path id="path4027 (Stroke)" d="M31.43 24.6C31.56 24.96 31.96 25.15 32.33 25.02C34.13 24.36 35.63 24.33 36.66 24.45C37.18 24.51 37.58 24.6 37.85 24.69C37.99 24.73 38.09 24.76 38.15 24.79C38.18 24.8 38.2 24.81 38.22 24.81C38.22 24.82 38.23 24.82 38.23 24.82L38.23 24.82L38.23 24.82L38.23 24.82C38.23 24.82 38.23 24.82 38.51 24.21L38.23 24.82C38.23 24.82 38.23 24.82 38.23 24.82C38.23 24.82 38.23 24.82 38.23 24.82L38.23 24.82C38.23 24.82 38.23 24.82 38.23 24.82C38.58 24.98 39 24.83 39.16 24.48C39.33 24.13 39.17 23.71 38.82 23.54L38.52 24.18C38.82 23.54 38.82 23.54 38.82 23.54L38.82 23.54L38.82 23.54L38.81 23.54C38.81 23.54 38.81 23.54 38.8 23.54C38.79 23.53 38.78 23.53 38.77 23.52C38.74 23.51 38.71 23.49 38.66 23.48C38.56 23.44 38.43 23.39 38.26 23.34C37.92 23.24 37.43 23.12 36.82 23.05C35.6 22.91 33.88 22.96 31.85 23.7C31.48 23.83 31.3 24.23 31.43 24.6Z" fill="url(#paint_linear_84_3644_0)" fill-opacity="1.000000" fill-rule="evenodd"/>
</svg>
