<svg width="48.000000" height="48.000000" viewBox="0 0 48 48" fill="none" xmlns="http://www.w3.org/2000/svg" xmlns:xlink="http://www.w3.org/1999/xlink">
	<desc>
			Created with Pixso.
	</desc>
	<defs>
		<linearGradient x1="0.000000" y1="24.000000" x2="48.000000" y2="24.000000" id="paint_linear_84_3465_0" gradientUnits="userSpaceOnUse">
			<stop stop-color="#0CBAF1"/>
			<stop offset="1.000000" stop-color="#E95CE9"/>
		</linearGradient>
	</defs>
	<path id="Vector" d="M45.83 7.87L36 7.87C35.61 7.87 35.29 8.18 35.29 8.57C35.29 8.96 35.61 9.28 36 9.28L45.83 9.28C46.25 9.28 46.59 9.62 46.59 10.04L46.59 37.11C46.59 37.53 46.25 37.87 45.83 37.87L2.16 37.87C1.74 37.87 1.4 37.53 1.4 37.11L1.4 10.04C1.4 9.62 1.74 9.28 2.16 9.28L17.61 9.28L17.61 10.68L3.51 10.68C3.12 10.68 2.81 11 2.81 11.39L2.81 29.96C2.81 30.35 3.12 30.67 3.51 30.67C3.9 30.67 4.21 30.35 4.21 29.96L4.21 12.09L17.61 12.09L17.61 15.86L14.6 17.3C14.36 17.41 14.2 17.66 14.2 17.93L14.2 29.4C14.2 29.67 14.35 29.92 14.6 30.04L23.69 34.38C23.89 34.47 24.11 34.47 24.3 34.38L29.41 31.94C29.76 31.77 29.91 31.35 29.74 31C29.57 30.65 29.15 30.5 28.8 30.67L24.7 32.63L24.7 22.72L32.39 19.05L32.39 28.96L31.34 29.46C30.99 29.62 30.84 30.04 31.01 30.39C31.18 30.74 31.6 30.89 31.95 30.72L33.39 30.04C33.64 29.92 33.79 29.67 33.79 29.4L33.79 17.93C33.79 17.66 33.64 17.42 33.39 17.3L30.38 15.86L30.38 12.09L43.78 12.09L43.78 35.06L4.21 35.06L4.21 32.96C4.21 32.58 3.9 32.26 3.51 32.26C3.12 32.26 2.81 32.58 2.81 32.96L2.81 35.76C2.81 36.15 3.12 36.46 3.51 36.46L44.48 36.46C44.87 36.46 45.18 36.15 45.18 35.76L45.18 11.39C45.18 11 44.87 10.68 44.48 10.68L30.38 10.68L30.38 9.28L33 9.28C33.38 9.28 33.7 8.96 33.7 8.57C33.7 8.18 33.38 7.87 33 7.87L30.38 7.87L30.38 6.46L36.69 6.46C37.08 6.46 37.39 6.15 37.39 5.76L37.39 4.09C38.21 3.8 38.8 3.02 38.8 2.1C38.8 0.94 37.85 0 36.69 0C35.52 0 34.58 0.94 34.58 2.1C34.58 3.02 35.16 3.8 35.98 4.09L35.98 5.06L29.68 5.06C29.29 5.06 28.98 5.37 28.98 5.76L28.98 7.87L24.7 7.87L24.7 4.09C25.52 3.8 26.1 3.02 26.1 2.1C26.1 0.94 25.16 0 24 0C22.83 0 21.89 0.94 21.89 2.1C21.89 3.02 22.47 3.8 23.29 4.09L23.29 7.87L19.01 7.87L19.01 5.76C19.01 5.37 18.7 5.06 18.31 5.06L12.01 5.06L12.01 4.09C12.83 3.8 13.41 3.02 13.41 2.1C13.41 0.94 12.47 0 11.3 0C10.14 0 9.19 0.94 9.19 2.1C9.19 3.02 9.78 3.8 10.6 4.09L10.6 5.76C10.6 6.15 10.92 6.46 11.3 6.46L17.61 6.46L17.61 7.87L2.16 7.87C0.97 7.87 0 8.84 0 10.04L0 37.11C0 38.31 0.97 39.28 2.16 39.28L17.4 39.28C17.13 41.86 15.43 43.36 14.89 43.78L11.9 43.78C10.74 43.78 9.79 44.72 9.79 45.89C9.79 47.05 10.74 48 11.9 48L36.09 48C37.25 48 38.2 47.05 38.2 45.89C38.2 44.72 37.25 43.78 36.09 43.78L33.1 43.78C32.57 43.36 30.86 41.84 30.59 39.28L45.83 39.28C47.02 39.28 48 38.31 48 37.11L48 10.04C48 8.84 47.02 7.87 45.83 7.87ZM36.69 1.4C37.07 1.4 37.39 1.72 37.39 2.1C37.39 2.49 37.07 2.81 36.69 2.81C36.3 2.81 35.98 2.49 35.98 2.1C35.98 1.72 36.3 1.4 36.69 1.4ZM24 1.4C24.38 1.4 24.7 1.72 24.7 2.1C24.7 2.49 24.38 2.81 24 2.81C23.61 2.81 23.29 2.49 23.29 2.1C23.29 1.72 23.61 1.4 24 1.4ZM11.3 1.4C11.69 1.4 12.01 1.72 12.01 2.1C12.01 2.49 11.69 2.81 11.3 2.81C10.92 2.81 10.6 2.49 10.6 2.1C10.6 1.72 10.92 1.4 11.3 1.4ZM19.01 12.09L23.29 12.09L23.29 13.15L19.01 15.19L19.01 12.09ZM31.46 17.93L24 21.5L16.53 17.93L24 14.37L31.46 17.93ZM15.6 19.05L23.29 22.72L23.29 32.63L15.6 28.96L15.6 19.05ZM28.98 15.19L24.7 13.15L24.7 12.09L28.98 12.09L28.98 15.19ZM28.98 9.28L28.98 10.68L24.7 10.68L24.7 9.28L28.98 9.28ZM23.29 9.28L23.29 10.68L19.01 10.68L19.01 9.28L23.29 9.28ZM36.79 45.89C36.79 46.27 36.48 46.59 36.09 46.59L11.9 46.59C11.51 46.59 11.2 46.27 11.2 45.89C11.2 45.5 11.51 45.18 11.9 45.18L36.09 45.18C36.48 45.18 36.79 45.5 36.79 45.89ZM31.09 43.78L16.9 43.78C17.73 42.81 18.64 41.31 18.82 39.28L29.17 39.28C29.35 41.31 30.26 42.81 31.09 43.78Z" fill="url(#paint_linear_84_3465_0)" fill-opacity="1.000000" fill-rule="nonzero"/>
</svg>
