<svg width="38.345215" height="48.000000" viewBox="0 0 38.3452 48" fill="none" xmlns="http://www.w3.org/2000/svg" xmlns:xlink="http://www.w3.org/1999/xlink">
	<desc>
			Created with Pixso.
	</desc>
	<defs>
		<linearGradient x1="4.265259" y1="22.750782" x2="34.080353" y2="22.750782" id="paint_linear_84_3495_0" gradientUnits="userSpaceOnUse">
			<stop stop-color="#0CBAF1"/>
			<stop offset="1.000000" stop-color="#E95CE9"/>
		</linearGradient>
		<linearGradient x1="13.457520" y1="43.825455" x2="24.894854" y2="43.825455" id="paint_linear_84_3497_0" gradientUnits="userSpaceOnUse">
			<stop stop-color="#0CBAF1"/>
			<stop offset="1.000000" stop-color="#E95CE9"/>
		</linearGradient>
		<linearGradient x1="13.303345" y1="17.798840" x2="25.042488" y2="17.798840" id="paint_linear_84_3499_0" gradientUnits="userSpaceOnUse">
			<stop stop-color="#0CBAF1"/>
			<stop offset="1.000000" stop-color="#E95CE9"/>
		</linearGradient>
		<linearGradient x1="14.604248" y1="33.462845" x2="23.741028" y2="33.462845" id="paint_linear_84_3502_0" gradientUnits="userSpaceOnUse">
			<stop stop-color="#0CBAF1"/>
			<stop offset="1.000000" stop-color="#E95CE9"/>
		</linearGradient>
		<linearGradient x1="18.469482" y1="15.706469" x2="19.875732" y2="15.706469" id="paint_linear_84_3504_0" gradientUnits="userSpaceOnUse">
			<stop stop-color="#0CBAF1"/>
			<stop offset="1.000000" stop-color="#E95CE9"/>
		</linearGradient>
		<linearGradient x1="14.604736" y1="29.828125" x2="23.740580" y2="29.828125" id="paint_linear_84_3506_0" gradientUnits="userSpaceOnUse">
			<stop stop-color="#0CBAF1"/>
			<stop offset="1.000000" stop-color="#E95CE9"/>
		</linearGradient>
		<linearGradient x1="18.463135" y1="1.353750" x2="19.869385" y2="1.353750" id="paint_linear_84_3508_0" gradientUnits="userSpaceOnUse">
			<stop stop-color="#0CBAF1"/>
			<stop offset="1.000000" stop-color="#E95CE9"/>
		</linearGradient>
		<linearGradient x1="35.679199" y1="19.765625" x2="38.345261" y2="19.765625" id="paint_linear_84_3510_0" gradientUnits="userSpaceOnUse">
			<stop stop-color="#0CBAF1"/>
			<stop offset="1.000000" stop-color="#E95CE9"/>
		</linearGradient>
		<linearGradient x1="0.000000" y1="19.765625" x2="2.666062" y2="19.765625" id="paint_linear_84_3512_0" gradientUnits="userSpaceOnUse">
			<stop stop-color="#0CBAF1"/>
			<stop offset="1.000000" stop-color="#E95CE9"/>
		</linearGradient>
		<linearGradient x1="30.638428" y1="6.746305" x2="32.935585" y2="6.746305" id="paint_linear_84_3514_0" gradientUnits="userSpaceOnUse">
			<stop stop-color="#0CBAF1"/>
			<stop offset="1.000000" stop-color="#E95CE9"/>
		</linearGradient>
		<linearGradient x1="5.409424" y1="32.784389" x2="7.706581" y2="32.784389" id="paint_linear_84_3516_0" gradientUnits="userSpaceOnUse">
			<stop stop-color="#0CBAF1"/>
			<stop offset="1.000000" stop-color="#E95CE9"/>
		</linearGradient>
		<linearGradient x1="30.638428" y1="32.784389" x2="32.935585" y2="32.784389" id="paint_linear_84_3518_0" gradientUnits="userSpaceOnUse">
			<stop stop-color="#0CBAF1"/>
			<stop offset="1.000000" stop-color="#E95CE9"/>
		</linearGradient>
		<linearGradient x1="5.409668" y1="6.746305" x2="7.706825" y2="6.746305" id="paint_linear_84_3520_0" gradientUnits="userSpaceOnUse">
			<stop stop-color="#0CBAF1"/>
			<stop offset="1.000000" stop-color="#E95CE9"/>
		</linearGradient>
		<linearGradient x1="13.457886" y1="43.591797" x2="22.164635" y2="43.591797" id="paint_linear_84_3522_0" gradientUnits="userSpaceOnUse">
			<stop stop-color="#0CBAF1"/>
			<stop offset="1.000000" stop-color="#E95CE9"/>
		</linearGradient>
		<linearGradient x1="15.367798" y1="25.151907" x2="22.977484" y2="25.151907" id="paint_linear_84_3500_0" gradientUnits="userSpaceOnUse">
			<stop stop-color="#0CBAF1"/>
			<stop offset="1.000000" stop-color="#E95CE9"/>
		</linearGradient>
	</defs>
	<path id="path4161 (Stroke)" d="M14.13 39.65C13.1 39.65 12.27 38.81 12.27 37.78L12.27 37.78L12.26 36.08C12.26 36.08 12.26 36.08 12.26 36.08C12.25 33.31 11.23 30.62 9.33 28.59L9.33 28.59C7.08 26.2 5.7 22.99 5.67 19.47C5.6 12.08 11.59 5.95 18.98 5.85C22.91 5.79 26.47 7.42 28.97 10.07C29.24 10.35 29.69 10.36 29.97 10.09C30.25 9.83 30.26 9.38 29.99 9.1C27.23 6.18 23.3 4.38 18.96 4.44C10.79 4.56 4.19 11.31 4.26 19.48C4.29 23.37 5.82 26.91 8.3 29.55C9.95 31.31 10.85 33.66 10.85 36.09L10.85 36.09L10.86 37.79C10.86 37.79 10.86 37.79 10.86 37.79C10.86 39.59 12.33 41.05 14.13 41.05L24.23 41.05C26.04 41.05 27.5 39.58 27.5 37.78L27.5 37.77L27.49 36.01C27.49 36.01 27.49 36.01 27.49 36.01C27.49 33.62 28.36 31.31 29.99 29.59L29.52 29.15L29.99 29.59C32.52 26.92 34.08 23.32 34.08 19.35C34.08 16.46 33.26 13.77 31.84 11.49C31.63 11.16 31.2 11.06 30.87 11.26C30.54 11.47 30.44 11.9 30.64 12.23C31.93 14.3 32.67 16.73 32.67 19.35C32.67 22.94 31.26 26.21 28.97 28.63C27.08 30.62 26.08 33.28 26.08 36.01L26.08 36.02L26.09 37.78C26.09 37.78 26.09 37.78 26.09 37.78C26.09 38.81 25.26 39.64 24.23 39.64L14.13 39.65Z" fill="url(#paint_linear_84_3495_0)" fill-opacity="1.000000" fill-rule="evenodd"/>
	<path id="path4165 (Stroke)" d="M16.59 48C14.85 48 13.45 46.58 13.45 44.84L16.59 48ZM16.59 48L21.73 47.99C23.46 47.99 24.86 46.6 24.87 44.87L24.89 40.35C24.89 40.16 24.82 39.99 24.68 39.85C24.55 39.72 24.37 39.65 24.19 39.65L14.18 39.65C13.79 39.65 13.47 39.96 13.47 40.35L13.45 44.84L16.59 48ZM14.86 44.85L14.88 41.05L23.48 41.05L23.46 44.87C23.46 45.82 22.69 46.59 21.73 46.59L16.59 46.59C15.63 46.59 14.85 45.81 14.86 44.85Z" fill="url(#paint_linear_84_3497_0)" fill-opacity="1.000000" fill-rule="evenodd"/>
	<path id="path4169 (Stroke)" d="M15.36 23.77C15.38 24.14 15.69 24.43 16.06 24.43L22.27 24.43C22.62 24.43 22.91 24.17 22.96 23.82C23.04 23.3 23.19 22.59 23.55 21.81L23.55 21.81C23.92 21 24.38 20.38 24.76 19.96L24.76 19.96C25.06 19.63 25.13 19.14 24.91 18.74L15.36 23.77ZM16.27 21.48C16.5 22.04 16.62 22.57 16.69 23.02L16.27 21.48ZM16.69 23.02L21.68 23.02C21.79 22.5 21.97 21.89 22.27 21.23C22.66 20.37 23.14 19.69 23.56 19.2C23.01 18.19 22.37 17.12 21.64 16.01L21.64 16.01C20.81 14.75 19.97 13.63 19.16 12.62C18.33 13.63 17.46 14.78 16.62 16.08C15.91 17.15 15.31 18.19 14.78 19.17C15.26 19.67 15.86 20.43 16.27 21.48L16.69 23.02ZM14.67 19.39C14.67 19.39 14.67 19.39 14.67 19.39ZM23.72 19.02C23.72 19.02 23.72 19.02 23.72 19.02C23.72 19.02 23.72 19.02 23.72 19.02ZM23.67 19.41C23.67 19.41 23.67 19.41 23.67 19.41ZM15.36 23.77C15.33 23.31 15.24 22.69 14.97 22L15.36 23.77ZM14.97 22L14.97 22ZM14.97 22C14.59 21.05 14.03 20.39 13.62 19.99L14.97 22ZM13.62 19.99C13.28 19.66 13.2 19.14 13.42 18.73L13.62 19.99ZM24.91 18.74C24.32 17.63 23.62 16.46 22.82 15.24C21.93 13.9 21.04 12.7 20.18 11.64L24.91 18.74ZM13.42 18.73C13.99 17.65 14.66 16.5 15.44 15.31L13.42 18.73ZM18.15 11.63C17.27 12.7 16.35 13.93 15.44 15.31L15.44 15.31L18.15 11.63ZM20.18 11.64C19.65 11 18.68 11 18.15 11.63L18.15 11.63L20.18 11.64Z" fill="url(#paint_linear_84_3499_0)" fill-opacity="1.000000" fill-rule="evenodd"/>
	<path id="path4175 (Stroke)" d="M23.03 41.05C23.42 41.05 23.74 40.74 23.74 40.35L23.74 27.32C23.74 26.51 23.08 25.86 22.28 25.86L16.06 25.86C15.25 25.86 14.6 26.51 14.6 27.32L14.6 37.31C14.6 37.7 14.91 38.01 15.3 38.01C15.69 38.01 16.01 37.7 16.01 37.31L16.01 27.32C16.01 27.29 16.03 27.27 16.06 27.27L22.28 27.27C22.31 27.27 22.33 27.29 22.33 27.32L22.33 40.35C22.33 40.74 22.64 41.05 23.03 41.05Z" fill="url(#paint_linear_84_3502_0)" fill-opacity="1.000000" fill-rule="evenodd"/>
	<path id="path4179 (Stroke)" d="M19.17 20.24C19.56 20.24 19.87 19.93 19.87 19.54L19.87 11.86C19.87 11.47 19.56 11.16 19.17 11.16C18.78 11.16 18.46 11.47 18.46 11.86L18.46 19.54C18.46 19.93 18.78 20.24 19.17 20.24Z" fill="url(#paint_linear_84_3504_0)" fill-opacity="1.000000" fill-rule="evenodd"/>
	<path id="path4183 (Stroke)" d="M14.6 29.82C14.6 30.21 14.91 30.53 15.3 30.53L23.03 30.53C23.42 30.53 23.74 30.21 23.74 29.82C23.74 29.43 23.42 29.12 23.03 29.12L15.3 29.12C14.91 29.12 14.6 29.43 14.6 29.82Z" fill="url(#paint_linear_84_3506_0)" fill-opacity="1.000000" fill-rule="evenodd"/>
	<path id="path4187 (Stroke)" d="M19.16 2.7C19.55 2.7 19.86 2.39 19.86 2L19.86 0.7C19.86 0.31 19.55 0 19.16 0C18.77 0 18.46 0.31 18.46 0.7L18.46 2C18.46 2.39 18.77 2.7 19.16 2.7Z" fill="url(#paint_linear_84_3508_0)" fill-opacity="1.000000" fill-rule="evenodd"/>
	<path id="path4191 (Stroke)" d="M35.67 19.76C35.67 20.15 35.99 20.46 36.38 20.46L37.64 20.46C38.03 20.46 38.34 20.15 38.34 19.76C38.34 19.37 38.03 19.06 37.64 19.06L36.38 19.06C35.99 19.06 35.67 19.37 35.67 19.76Z" fill="url(#paint_linear_84_3510_0)" fill-opacity="1.000000" fill-rule="evenodd"/>
	<path id="path4195 (Stroke)" d="M0 19.76C0 20.15 0.31 20.46 0.7 20.46L1.96 20.46C2.35 20.46 2.66 20.15 2.66 19.76C2.66 19.37 2.35 19.06 1.96 19.06L0.7 19.06C0.31 19.06 0 19.37 0 19.76Z" fill="url(#paint_linear_84_3512_0)" fill-opacity="1.000000" fill-rule="evenodd"/>
	<path id="path4199 (Stroke)" d="M30.85 7.71C31.13 7.98 31.57 7.97 31.84 7.69L32.73 6.77C33 6.49 33 6.05 32.72 5.78C32.44 5.51 31.99 5.51 31.72 5.79L30.83 6.71C30.56 6.99 30.57 7.44 30.85 7.71Z" fill="url(#paint_linear_84_3514_0)" fill-opacity="1.000000" fill-rule="evenodd"/>
	<path id="path4203 (Stroke)" d="M5.62 33.74C5.9 34.01 6.34 34.01 6.61 33.73L7.5 32.81C7.77 32.53 7.77 32.08 7.49 31.81C7.21 31.54 6.76 31.55 6.49 31.83L5.6 32.75C5.33 33.03 5.34 33.47 5.62 33.74Z" fill="url(#paint_linear_84_3516_0)" fill-opacity="1.000000" fill-rule="evenodd"/>
	<path id="path4207 (Stroke)" d="M32.72 33.74C33 33.47 33 33.03 32.73 32.75L31.84 31.83C31.57 31.55 31.13 31.54 30.85 31.81C30.57 32.08 30.56 32.53 30.83 32.81L31.72 33.73C31.99 34.01 32.44 34.01 32.72 33.74Z" fill="url(#paint_linear_84_3518_0)" fill-opacity="1.000000" fill-rule="evenodd"/>
	<path id="path4211 (Stroke)" d="M7.49 7.71C7.77 7.44 7.77 6.99 7.5 6.71L6.61 5.79C6.34 5.51 5.9 5.51 5.62 5.78C5.34 6.05 5.33 6.49 5.6 6.77L6.49 7.69C6.76 7.97 7.21 7.98 7.49 7.71Z" fill="url(#paint_linear_84_3520_0)" fill-opacity="1.000000" fill-rule="evenodd"/>
	<path id="path4215 (Stroke)" d="M13.45 43.59C13.45 43.98 13.77 44.29 14.16 44.29L21.46 44.29C21.84 44.29 22.16 43.98 22.16 43.59C22.16 43.2 21.84 42.88 21.46 42.88L14.16 42.88C13.77 42.88 13.45 43.2 13.45 43.59Z" fill="url(#paint_linear_84_3522_0)" fill-opacity="1.000000" fill-rule="evenodd"/>
	<path id="path4171 (Stroke)" d="M15.36 26.57C15.36 26.96 15.68 27.27 16.07 27.27L22.27 27.27C22.66 27.27 22.97 26.96 22.97 26.57L22.97 23.73C22.97 23.34 22.66 23.02 22.27 23.02L16.07 23.02C15.68 23.02 15.36 23.34 15.36 23.73L15.36 26.57ZM16.77 25.86L16.77 24.43L21.57 24.43L21.57 25.86L16.77 25.86Z" fill="url(#paint_linear_84_3500_0)" fill-opacity="1.000000" fill-rule="evenodd"/>
</svg>
