<svg width="48.000610" height="29.921875" viewBox="0 0 48.0006 29.9219" fill="none" xmlns="http://www.w3.org/2000/svg" xmlns:xlink="http://www.w3.org/1999/xlink">
	<desc>
			Created with Pixso.
	</desc>
	<defs>
		<linearGradient x1="21.229858" y1="19.664963" x2="26.770483" y2="19.664963" id="paint_linear_84_3554_0" gradientUnits="userSpaceOnUse">
			<stop stop-color="#0CBAF1"/>
			<stop offset="1.000000" stop-color="#E95CE9"/>
		</linearGradient>
		<linearGradient x1="28.583496" y1="24.965155" x2="34.087799" y2="24.965155" id="paint_linear_84_3556_0" gradientUnits="userSpaceOnUse">
			<stop stop-color="#0CBAF1"/>
			<stop offset="1.000000" stop-color="#E95CE9"/>
		</linearGradient>
		<linearGradient x1="0.000000" y1="14.961594" x2="48.000565" y2="14.961594" id="paint_linear_84_3558_0" gradientUnits="userSpaceOnUse">
			<stop stop-color="#0CBAF1"/>
			<stop offset="1.000000" stop-color="#E95CE9"/>
		</linearGradient>
		<linearGradient x1="14.880493" y1="18.819366" x2="22.747711" y2="18.819366" id="paint_linear_84_3560_0" gradientUnits="userSpaceOnUse">
			<stop stop-color="#0CBAF1"/>
			<stop offset="1.000000" stop-color="#E95CE9"/>
		</linearGradient>
		<linearGradient x1="25.252686" y1="18.819366" x2="33.119904" y2="18.819366" id="paint_linear_84_3562_0" gradientUnits="userSpaceOnUse">
			<stop stop-color="#0CBAF1"/>
			<stop offset="1.000000" stop-color="#E95CE9"/>
		</linearGradient>
		<linearGradient x1="4.571045" y1="12.016422" x2="15.995138" y2="12.016422" id="paint_linear_84_3564_0" gradientUnits="userSpaceOnUse">
			<stop stop-color="#0CBAF1"/>
			<stop offset="1.000000" stop-color="#E95CE9"/>
		</linearGradient>
		<linearGradient x1="36.819702" y1="9.895969" x2="42.246513" y2="9.895969" id="paint_linear_84_3566_0" gradientUnits="userSpaceOnUse">
			<stop stop-color="#0CBAF1"/>
			<stop offset="1.000000" stop-color="#E95CE9"/>
		</linearGradient>
		<linearGradient x1="32.578857" y1="14.136204" x2="38.005669" y2="14.136204" id="paint_linear_84_3568_0" gradientUnits="userSpaceOnUse">
			<stop stop-color="#0CBAF1"/>
			<stop offset="1.000000" stop-color="#E95CE9"/>
		</linearGradient>
		<linearGradient x1="20.029663" y1="10.718548" x2="28.190506" y2="10.718548" id="paint_linear_84_3570_0" gradientUnits="userSpaceOnUse">
			<stop stop-color="#0CBAF1"/>
			<stop offset="1.000000" stop-color="#E95CE9"/>
		</linearGradient>
		<linearGradient x1="13.373657" y1="2.954071" x2="16.528484" y2="2.954071" id="paint_linear_84_3572_0" gradientUnits="userSpaceOnUse">
			<stop stop-color="#0CBAF1"/>
			<stop offset="1.000000" stop-color="#E95CE9"/>
		</linearGradient>
		<linearGradient x1="17.885864" y1="3.204651" x2="34.626808" y2="3.204651" id="paint_linear_84_3574_0" gradientUnits="userSpaceOnUse">
			<stop stop-color="#0CBAF1"/>
			<stop offset="1.000000" stop-color="#E95CE9"/>
		</linearGradient>
	</defs>
	<path id="path4053 (Stroke)" d="M26.06 18.96C24.68 18.96 23.31 18.96 21.93 18.96C21.54 18.95 21.23 19.27 21.22 19.66C21.22 20.05 21.54 20.36 21.93 20.36C23.31 20.37 24.68 20.37 26.06 20.36C26.45 20.36 26.77 20.05 26.77 19.66C26.76 19.27 26.45 18.95 26.06 18.96Z" fill="url(#paint_linear_84_3554_0)" fill-opacity="1.000000" fill-rule="evenodd"/>
	<path id="path4057 (Stroke)" d="M33.98 28.25C34.18 27.91 34.08 27.48 33.75 27.28C31.87 26.12 30.45 24.23 29.97 21.9C29.89 21.52 29.52 21.28 29.14 21.36C28.76 21.43 28.51 21.81 28.59 22.19C29.16 24.91 30.82 27.13 33.01 28.48C33.34 28.68 33.78 28.58 33.98 28.25Z" fill="url(#paint_linear_84_3556_0)" fill-opacity="1.000000" fill-rule="evenodd"/>
	<path id="path4061 (Stroke)" d="M7.61 29.64C12.95 30.93 18.29 27.54 19.4 22.19C19.48 21.81 19.23 21.43 18.85 21.36C18.47 21.28 18.1 21.52 18.02 21.9C17.07 26.48 12.51 29.38 7.94 28.28L7.94 28.28C7.88 28.26 7.82 28.25 7.76 28.23L7.76 28.23C3.48 27.2 0.74 22.99 1.54 18.66C2.22 14.99 3.14 11.29 4.23 7.54C5.24 4.12 8.33 1.73 11.89 1.61L11.89 1.61C19.96 1.33 28.03 1.33 36.1 1.61L36.1 1.61C39.66 1.73 42.75 4.12 43.76 7.54C44.85 11.29 45.77 14.99 46.45 18.66C47.25 22.99 44.51 27.2 40.23 28.23L40.23 28.23C40.2 28.24 40.17 28.25 40.14 28.25L40.14 28.25L40.14 28.25C40.11 28.26 40.08 28.27 40.05 28.28L7.61 29.64ZM7.61 29.64C7.55 29.63 7.49 29.61 7.43 29.6L7.43 29.6C7.43 29.6 7.43 29.6 7.43 29.6C2.42 28.39 -0.78 23.47 0.16 18.4L0.16 18.4C0.85 14.68 1.78 10.93 2.88 7.15L2.88 7.15C4.06 3.14 7.67 0.35 11.85 0.21C19.95 -0.07 28.04 -0.07 36.15 0.21C40.32 0.35 43.93 3.14 45.11 7.15L45.11 7.15C46.21 10.93 47.14 14.68 47.83 18.4C48.77 23.47 45.57 28.39 40.56 29.6C40.53 29.61 40.5 29.62 40.47 29.62C40.44 29.63 40.41 29.64 40.38 29.64L40.38 29.64C38.81 30.02 37.25 30 35.78 29.64C35.41 29.54 35.18 29.16 35.27 28.79C35.36 28.41 35.74 28.18 36.12 28.27C37.37 28.58 38.71 28.6 40.05 28.28L7.61 29.64Z" fill="url(#paint_linear_84_3558_0)" fill-opacity="1.000000" fill-rule="evenodd"/>
	<path id="path4065 (Stroke)" d="M18.81 21.34C17.41 21.34 16.28 20.21 16.28 18.81C16.28 17.42 17.41 16.29 18.81 16.29C20.2 16.29 21.34 17.42 21.34 18.81C21.34 20.21 20.2 21.34 18.81 21.34ZM14.88 18.81C14.88 20.99 16.64 22.75 18.81 22.75C20.98 22.75 22.74 20.99 22.74 18.81C22.74 16.64 20.98 14.88 18.81 14.88C16.64 14.88 14.88 16.64 14.88 18.81Z" fill="url(#paint_linear_84_3560_0)" fill-opacity="1.000000" fill-rule="evenodd"/>
	<path id="path4069 (Stroke)" d="M29.18 21.34C27.79 21.34 26.65 20.21 26.65 18.81C26.65 17.42 27.79 16.29 29.18 16.29C30.58 16.29 31.71 17.42 31.71 18.81C31.71 20.21 30.58 21.34 29.18 21.34ZM25.25 18.81C25.25 20.99 27.01 22.75 29.18 22.75C31.35 22.75 33.11 20.99 33.11 18.81C33.11 16.64 31.35 14.88 29.18 14.88C27.01 14.88 25.25 16.64 25.25 18.81Z" fill="url(#paint_linear_84_3562_0)" fill-opacity="1.000000" fill-rule="evenodd"/>
	<path id="path4073 (Stroke)" d="M10.26 17.72L10.3 17.72C11.83 17.72 13.07 16.5 13.11 14.98L13.11 14.98C13.11 14.94 13.11 14.89 13.11 14.85C13.16 14.85 13.2 14.84 13.25 14.84L13.25 14.84C14.77 14.8 15.99 13.56 15.99 12.03L15.99 11.99C15.99 10.46 14.77 9.22 13.25 9.18L13.25 9.18C13.2 9.18 13.16 9.18 13.11 9.18C13.11 9.13 13.11 9.09 13.11 9.04L13.11 9.04C13.07 7.52 11.83 6.3 10.3 6.3L10.26 6.3C8.73 6.3 7.49 7.52 7.45 9.04L7.45 9.04C7.45 9.09 7.44 9.13 7.44 9.18C7.4 9.18 7.35 9.18 7.31 9.18L7.31 9.18C5.79 9.22 4.57 10.46 4.57 11.99L4.57 12.03C4.57 13.56 5.79 14.8 7.31 14.84L7.31 14.84C7.35 14.84 7.4 14.85 7.44 14.85C7.44 14.89 7.45 14.94 7.45 14.98L7.45 14.98C7.49 16.5 8.73 17.72 10.26 17.72ZM10.3 16.32L10.26 16.32C10.26 16.32 10.26 16.32 10.26 16.32C10.26 16.32 10.26 16.32 10.26 16.32C9.5 16.32 8.87 15.71 8.85 14.94L10.3 16.32ZM10.3 16.32C10.3 16.32 10.3 16.32 10.3 16.32C10.3 16.32 10.3 16.32 10.3 16.32L10.3 16.32ZM10.3 16.32C11.06 16.32 11.68 15.71 11.7 14.94L10.3 16.32ZM8.85 14.94C8.84 14.68 8.84 14.41 8.83 14.15C8.83 13.77 8.52 13.46 8.14 13.46C7.88 13.45 7.61 13.44 7.35 13.44L8.85 14.94ZM11.7 14.94C11.71 14.68 11.72 14.41 11.72 14.15L11.7 14.94ZM13.21 13.44C12.94 13.44 12.68 13.45 12.41 13.46C12.03 13.46 11.73 13.77 11.72 14.15L13.21 13.44ZM13.21 13.44C13.98 13.42 14.58 12.79 14.58 12.03C14.58 12.03 14.58 12.03 14.58 12.03L14.58 11.99L13.21 13.44ZM5.97 12.03C5.97 12.03 5.97 12.03 5.97 12.03L5.97 11.99C5.97 11.99 5.97 11.99 5.97 11.99C5.97 11.99 5.97 11.99 5.97 11.99C5.97 11.23 6.58 10.61 7.35 10.59C7.61 10.58 7.88 10.57 8.14 10.57C8.52 10.56 8.83 10.25 8.83 9.88C8.84 9.61 8.84 9.35 8.85 9.08L5.97 12.03ZM5.97 12.03C5.97 12.03 5.97 12.03 5.97 12.03ZM5.97 12.03C5.97 12.79 6.58 13.42 7.35 13.44L5.97 12.03ZM14.58 11.99C14.58 11.23 13.98 10.61 13.21 10.59L14.58 11.99ZM13.21 10.59C12.94 10.58 12.68 10.57 12.41 10.57C12.03 10.56 11.73 10.26 11.72 9.88C11.72 9.61 11.71 9.35 11.7 9.08L13.21 10.59ZM8.85 9.08C8.87 8.31 9.5 7.71 10.26 7.71L10.3 7.71C11.06 7.71 11.68 8.31 11.7 9.08L8.85 9.08Z" fill="url(#paint_linear_84_3564_0)" fill-opacity="1.000000" fill-rule="evenodd"/>
	<path id="path4077 (Stroke)" d="M40.45 10.82C39.94 11.33 39.11 11.33 38.6 10.82C38.09 10.3 38.09 9.48 38.6 8.97C39.11 8.46 39.94 8.46 40.45 8.97C40.96 9.48 40.96 10.3 40.45 10.82ZM37.61 11.81C38.67 12.87 40.39 12.87 41.45 11.81C42.51 10.75 42.51 9.03 41.45 7.97C40.39 6.91 38.67 6.91 37.61 7.97C36.55 9.03 36.55 10.75 37.61 11.81Z" fill="url(#paint_linear_84_3566_0)" fill-opacity="1.000000" fill-rule="evenodd"/>
	<path id="path4081 (Stroke)" d="M36.21 15.06C35.7 15.57 34.87 15.57 34.36 15.06C33.85 14.54 33.85 13.72 34.36 13.21C34.87 12.7 35.7 12.7 36.21 13.21C36.72 13.72 36.72 14.54 36.21 15.06ZM33.37 16.05C34.43 17.11 36.15 17.11 37.21 16.05C38.27 14.99 38.27 13.27 37.21 12.21C36.15 11.15 34.43 11.15 33.37 12.21C32.31 13.27 32.31 14.99 33.37 16.05Z" fill="url(#paint_linear_84_3568_0)" fill-opacity="1.000000" fill-rule="evenodd"/>
	<path id="path4085 (Stroke)" d="M20.02 10.71C20.02 11.82 20.92 12.71 22.02 12.71L26.19 12.71C27.29 12.71 28.19 11.82 28.19 10.71C28.19 9.61 27.29 8.71 26.19 8.71L22.02 8.71C20.92 8.71 20.02 9.61 20.02 10.71ZM22.02 11.31C21.7 11.31 21.43 11.04 21.43 10.71C21.43 10.39 21.7 10.12 22.02 10.12L26.19 10.12C26.51 10.12 26.78 10.39 26.78 10.71C26.78 11.04 26.51 11.31 26.19 11.31L22.02 11.31Z" fill="url(#paint_linear_84_3570_0)" fill-opacity="1.000000" fill-rule="evenodd"/>
	<path id="path4089 (Stroke)" d="M16.44 5.39C16.62 5.05 16.49 4.62 16.15 4.44C15.44 4.06 14.93 3.33 14.85 2.48C14.8 1.93 14.78 1.38 14.77 0.83C14.77 0.45 14.46 0.13 14.07 0.14C13.68 0.14 13.37 0.45 13.37 0.84C13.37 1.43 13.4 2.02 13.45 2.6L13.45 2.6C13.57 3.94 14.37 5.08 15.49 5.68C15.83 5.86 16.26 5.73 16.44 5.39Z" fill="url(#paint_linear_84_3572_0)" fill-opacity="1.000000" fill-rule="evenodd"/>
	<path id="path4093 (Stroke)" d="M30.78 4.72C26.73 4.88 22.67 4.9 18.61 4.77C18.22 4.76 17.89 5.06 17.88 5.45C17.87 5.84 18.17 6.17 18.56 6.18C22.65 6.31 26.75 6.29 30.84 6.13L30.78 4.72ZM33.14 2.48C33.03 3.72 32.02 4.68 30.78 4.72L30.78 4.72L33.14 2.48ZM33.14 2.48C33.19 1.93 33.21 1.38 33.22 0.84C33.22 0.45 33.53 0.13 33.92 0.14C34.31 0.14 34.62 0.45 34.62 0.84C34.62 1.43 34.59 2.02 34.54 2.6L34.54 2.6C34.36 4.54 32.79 6.05 30.84 6.13L33.14 2.48Z" fill="url(#paint_linear_84_3574_0)" fill-opacity="1.000000" fill-rule="evenodd"/>
</svg>
