<svg width="43.175781" height="48.000000" viewBox="0 0 43.1758 48" fill="none" xmlns="http://www.w3.org/2000/svg" xmlns:xlink="http://www.w3.org/1999/xlink">
	<desc>
			Created with Pixso.
	</desc>
	<defs>
		<linearGradient x1="4.937866" y1="4.947391" x2="11.438303" y2="4.947391" id="paint_linear_84_3583_0" gradientUnits="userSpaceOnUse">
			<stop stop-color="#0CBAF1"/>
			<stop offset="1.000000" stop-color="#E95CE9"/>
		</linearGradient>
		<linearGradient x1="14.092285" y1="4.947391" x2="20.592815" y2="4.947391" id="paint_linear_84_3585_0" gradientUnits="userSpaceOnUse">
			<stop stop-color="#0CBAF1"/>
			<stop offset="1.000000" stop-color="#E95CE9"/>
		</linearGradient>
		<linearGradient x1="23.247070" y1="4.947391" x2="29.747601" y2="4.947391" id="paint_linear_84_3587_0" gradientUnits="userSpaceOnUse">
			<stop stop-color="#0CBAF1"/>
			<stop offset="1.000000" stop-color="#E95CE9"/>
		</linearGradient>
		<linearGradient x1="32.401855" y1="4.947391" x2="38.902386" y2="4.947391" id="paint_linear_84_3589_0" gradientUnits="userSpaceOnUse">
			<stop stop-color="#0CBAF1"/>
			<stop offset="1.000000" stop-color="#E95CE9"/>
		</linearGradient>
		<linearGradient x1="11.498779" y1="30.908850" x2="29.731796" y2="30.908850" id="paint_linear_84_3591_0" gradientUnits="userSpaceOnUse">
			<stop stop-color="#0CBAF1"/>
			<stop offset="1.000000" stop-color="#E95CE9"/>
		</linearGradient>
		<linearGradient x1="23.932983" y1="23.549225" x2="27.959503" y2="23.549225" id="paint_linear_84_3593_0" gradientUnits="userSpaceOnUse">
			<stop stop-color="#0CBAF1"/>
			<stop offset="1.000000" stop-color="#E95CE9"/>
		</linearGradient>
		<linearGradient x1="18.902466" y1="24.207586" x2="23.117714" y2="24.207586" id="paint_linear_84_3595_0" gradientUnits="userSpaceOnUse">
			<stop stop-color="#0CBAF1"/>
			<stop offset="1.000000" stop-color="#E95CE9"/>
		</linearGradient>
		<linearGradient x1="24.060303" y1="28.511148" x2="28.692739" y2="28.511148" id="paint_linear_84_3597_0" gradientUnits="userSpaceOnUse">
			<stop stop-color="#0CBAF1"/>
			<stop offset="1.000000" stop-color="#E95CE9"/>
		</linearGradient>
		<linearGradient x1="27.304932" y1="30.981050" x2="34.847191" y2="30.981050" id="paint_linear_84_3599_0" gradientUnits="userSpaceOnUse">
			<stop stop-color="#0CBAF1"/>
			<stop offset="1.000000" stop-color="#E95CE9"/>
		</linearGradient>
		<linearGradient x1="16.632935" y1="21.572718" x2="18.810852" y2="21.572718" id="paint_linear_84_3601_0" gradientUnits="userSpaceOnUse">
			<stop stop-color="#0CBAF1"/>
			<stop offset="1.000000" stop-color="#E95CE9"/>
		</linearGradient>
		<linearGradient x1="6.676758" y1="36.247356" x2="28.437740" y2="36.247356" id="paint_linear_84_3603_0" gradientUnits="userSpaceOnUse">
			<stop stop-color="#0CBAF1"/>
			<stop offset="1.000000" stop-color="#E95CE9"/>
		</linearGradient>
		<linearGradient x1="10.959473" y1="36.361664" x2="20.088146" y2="36.361664" id="paint_linear_84_3605_0" gradientUnits="userSpaceOnUse">
			<stop stop-color="#0CBAF1"/>
			<stop offset="1.000000" stop-color="#E95CE9"/>
		</linearGradient>
		<linearGradient x1="9.370117" y1="40.252068" x2="15.915792" y2="40.252068" id="paint_linear_84_3607_0" gradientUnits="userSpaceOnUse">
			<stop stop-color="#0CBAF1"/>
			<stop offset="1.000000" stop-color="#E95CE9"/>
		</linearGradient>
		<linearGradient x1="8.246094" y1="43.001202" x2="12.966176" y2="43.001202" id="paint_linear_84_3609_0" gradientUnits="userSpaceOnUse">
			<stop stop-color="#0CBAF1"/>
			<stop offset="1.000000" stop-color="#E95CE9"/>
		</linearGradient>
		<linearGradient x1="12.083496" y1="33.610195" x2="23.037861" y2="33.610195" id="paint_linear_84_3611_0" gradientUnits="userSpaceOnUse">
			<stop stop-color="#0CBAF1"/>
			<stop offset="1.000000" stop-color="#E95CE9"/>
		</linearGradient>
		<linearGradient x1="0.000244" y1="23.221870" x2="43.175774" y2="23.221870" id="paint_linear_84_3613_0" gradientUnits="userSpaceOnUse">
			<stop stop-color="#0CBAF1"/>
			<stop offset="1.000000" stop-color="#E95CE9"/>
		</linearGradient>
		<linearGradient x1="0.000244" y1="14.189575" x2="43.175774" y2="14.189575" id="paint_linear_84_3615_0" gradientUnits="userSpaceOnUse">
			<stop stop-color="#0CBAF1"/>
			<stop offset="1.000000" stop-color="#E95CE9"/>
		</linearGradient>
	</defs>
	<path id="path3732 (Stroke)" d="M4.93 6.64C4.93 8.43 6.39 9.89 8.18 9.89C8.57 9.89 8.88 9.58 8.88 9.19C8.88 8.8 8.57 8.48 8.18 8.48C7.17 8.48 6.34 7.65 6.34 6.64L6.34 3.24C6.34 2.23 7.17 1.4 8.18 1.4C9.2 1.4 10.03 2.23 10.03 3.24L10.03 4.94C10.03 5.33 10.34 5.65 10.73 5.65C11.12 5.65 11.43 5.33 11.43 4.94L11.43 3.24C11.43 1.45 9.97 0 8.18 0C6.39 0 4.93 1.46 4.93 3.24L4.93 6.64Z" fill="url(#paint_linear_84_3583_0)" fill-opacity="1.000000" fill-rule="evenodd"/>
	<path id="path3736 (Stroke)" d="M14.09 6.64C14.09 8.43 15.55 9.89 17.34 9.89C17.72 9.89 18.04 9.58 18.04 9.19C18.04 8.8 17.72 8.48 17.34 8.48C16.32 8.48 15.49 7.65 15.49 6.64L15.49 3.24C15.49 2.23 16.32 1.4 17.34 1.4C18.35 1.4 19.18 2.23 19.18 3.24L19.18 4.94C19.18 5.33 19.5 5.65 19.88 5.65C20.27 5.65 20.59 5.33 20.59 4.94L20.59 3.24C20.59 1.45 19.13 0 17.34 0C15.55 0 14.09 1.46 14.09 3.24L14.09 6.64Z" fill="url(#paint_linear_84_3585_0)" fill-opacity="1.000000" fill-rule="evenodd"/>
	<path id="path3740 (Stroke)" d="M23.24 6.64C23.24 8.43 24.7 9.89 26.49 9.89C26.88 9.89 27.19 9.58 27.19 9.19C27.19 8.8 26.88 8.48 26.49 8.48C25.48 8.48 24.65 7.65 24.65 6.64L24.65 3.24C24.65 2.23 25.48 1.4 26.49 1.4C27.51 1.4 28.34 2.23 28.34 3.24L28.34 4.94C28.34 5.33 28.65 5.65 29.04 5.65C29.43 5.65 29.74 5.33 29.74 4.94L29.74 3.24C29.74 1.45 28.28 0 26.49 0C24.7 0 23.24 1.46 23.24 3.24L23.24 6.64Z" fill="url(#paint_linear_84_3587_0)" fill-opacity="1.000000" fill-rule="evenodd"/>
	<path id="path3744 (Stroke)" d="M32.4 6.64C32.4 8.43 33.86 9.89 35.65 9.89C36.04 9.89 36.35 9.58 36.35 9.19C36.35 8.8 36.04 8.48 35.65 8.48C34.63 8.48 33.8 7.65 33.8 6.64L33.8 3.24C33.8 2.23 34.63 1.4 35.65 1.4C36.66 1.4 37.49 2.23 37.49 3.24L37.49 4.94C37.49 5.33 37.81 5.65 38.19 5.65C38.58 5.65 38.9 5.33 38.9 4.94L38.9 3.24C38.9 1.46 37.44 0 35.65 0C33.86 0 32.4 1.45 32.4 3.24L32.4 6.64Z" fill="url(#paint_linear_84_3589_0)" fill-opacity="1.000000" fill-rule="evenodd"/>
	<path id="path3748 (Stroke)" d="M29.57 38.09C29.82 37.79 29.77 37.35 29.46 37.1L12.64 23.61C12.33 23.37 11.89 23.41 11.65 23.72C11.41 24.02 11.45 24.46 11.76 24.71L28.58 38.2C28.89 38.44 29.33 38.39 29.57 38.09Z" fill="url(#paint_linear_84_3591_0)" fill-opacity="1.000000" fill-rule="evenodd"/>
	<path id="path3752 (Stroke)" d="M24.19 25.73C24.49 25.97 24.94 25.92 25.18 25.62L27.8 22.35C28.04 22.05 27.99 21.6 27.69 21.36C27.39 21.12 26.95 21.17 26.7 21.47L24.08 24.74C23.84 25.04 23.89 25.48 24.19 25.73Z" fill="url(#paint_linear_84_3593_0)" fill-opacity="1.000000" fill-rule="evenodd"/>
	<path id="path3756 (Stroke)" d="M19.14 26.7C19.43 26.95 19.87 26.92 20.13 26.63C21.06 25.57 22.18 24.2 23.03 22.56C23.21 22.22 23.08 21.79 22.73 21.61C22.39 21.43 21.97 21.57 21.79 21.91C21.01 23.4 19.98 24.66 19.07 25.71C18.82 26 18.85 26.44 19.14 26.7Z" fill="url(#paint_linear_84_3595_0)" fill-opacity="1.000000" fill-rule="evenodd"/>
	<path id="path3760 (Stroke)" d="M24.34 30.87C24.65 31.1 25.1 31.03 25.33 30.72C26.14 29.61 27.16 28.33 28.44 27.25C28.73 27 28.77 26.55 28.52 26.26C28.27 25.96 27.83 25.92 27.53 26.17C26.12 27.36 25.03 28.75 24.19 29.89C23.96 30.2 24.03 30.64 24.34 30.87Z" fill="url(#paint_linear_84_3597_0)" fill-opacity="1.000000" fill-rule="evenodd"/>
	<path id="path3764 (Stroke)" d="M27.6 33.48C27.91 33.71 28.35 33.63 28.58 33.32C29.68 31.76 31.28 29.88 34.17 29.75C34.56 29.73 34.86 29.4 34.84 29.01C34.82 28.62 34.49 28.32 34.11 28.34C30.52 28.51 28.58 30.88 27.43 32.5C27.21 32.82 27.28 33.26 27.6 33.48Z" fill="url(#paint_linear_84_3599_0)" fill-opacity="1.000000" fill-rule="evenodd"/>
	<path id="path3768 (Stroke)" d="M16.97 23.75C17.31 23.95 17.74 23.84 17.94 23.5C18.37 22.78 18.96 21.61 18.77 19.91C18.73 19.52 18.38 19.25 17.99 19.29C17.61 19.33 17.33 19.68 17.37 20.07C17.51 21.33 17.09 22.18 16.73 22.79C16.53 23.12 16.64 23.55 16.97 23.75Z" fill="url(#paint_linear_84_3601_0)" fill-opacity="1.000000" fill-rule="evenodd"/>
	<path id="path3772 (Stroke)" d="M8.08 47.97C8.35 47.92 8.65 47.81 8.95 47.67C8.97 47.66 8.98 47.65 9 47.65L28.07 37.23C28.27 37.12 28.41 36.91 28.43 36.68C28.45 36.44 28.35 36.21 28.17 36.07L13.93 24.64C13.75 24.5 13.5 24.45 13.28 24.52C13.05 24.59 12.88 24.77 12.82 25L6.79 45.86C6.79 45.87 6.78 45.89 6.78 45.9C6.71 46.24 6.66 46.57 6.67 46.85C6.69 47.13 6.77 47.51 7.1 47.77C7.42 48.03 7.81 48.02 8.08 47.97ZM8.15 46.22L13.87 26.4L26.47 36.5L8.34 46.4C8.25 46.44 8.17 46.48 8.1 46.5C8.11 46.42 8.13 46.33 8.15 46.22Z" fill="url(#paint_linear_84_3603_0)" fill-opacity="1.000000" fill-rule="evenodd"/>
	<path id="path3776 (Stroke)" d="M19.82 41.72C20.12 41.48 20.17 41.04 19.93 40.74L12.21 31.1C11.96 30.8 11.52 30.75 11.22 30.99C10.91 31.23 10.87 31.68 11.11 31.98L18.83 41.61C19.07 41.92 19.52 41.97 19.82 41.72Z" fill="url(#paint_linear_84_3605_0)" fill-opacity="1.000000" fill-rule="evenodd"/>
	<path id="path3780 (Stroke)" d="M15.65 44C15.95 43.76 16 43.32 15.76 43.01L10.62 36.6C10.37 36.3 9.93 36.25 9.63 36.49C9.33 36.74 9.28 37.18 9.52 37.48L14.66 43.89C14.9 44.2 15.34 44.24 15.65 44Z" fill="url(#paint_linear_84_3607_0)" fill-opacity="1.000000" fill-rule="evenodd"/>
	<path id="path3784 (Stroke)" d="M12.7 45.61C13 45.37 13.05 44.93 12.81 44.62L9.49 40.49C9.25 40.19 8.81 40.14 8.5 40.38C8.2 40.62 8.15 41.07 8.4 41.37L11.71 45.5C11.95 45.81 12.39 45.85 12.7 45.61Z" fill="url(#paint_linear_84_3609_0)" fill-opacity="1.000000" fill-rule="evenodd"/>
	<path id="path3788 (Stroke)" d="M22.77 40.11C23.07 39.87 23.12 39.43 22.88 39.12L18.85 34.1C18.61 33.79 18.16 33.74 17.86 33.99C17.56 34.23 17.51 34.67 17.75 34.98L21.78 40C22.02 40.31 22.47 40.36 22.77 40.11ZM16.67 32.5C16.97 32.25 17.02 31.81 16.77 31.51L13.33 27.21C13.09 26.9 12.65 26.86 12.34 27.1C12.04 27.34 11.99 27.78 12.23 28.09L15.68 32.39C15.92 32.69 16.36 32.74 16.67 32.5Z" fill="url(#paint_linear_84_3611_0)" fill-opacity="1.000000" fill-rule="evenodd"/>
	<path id="path3792 (Stroke)" d="M0 41.07C0 41.69 0.5 42.19 1.12 42.19L8.78 42.19C9.17 42.19 9.49 41.88 9.49 41.49C9.49 41.1 9.17 40.79 8.78 40.79L1.4 40.79L1.4 5.65L41.76 5.65L41.76 40.79L18.8 40.79C18.41 40.79 18.1 41.1 18.1 41.49C18.1 41.88 18.41 42.19 18.8 42.19L42.04 42.19C42.66 42.19 43.17 41.69 43.17 41.07L43.17 5.37C43.17 4.75 42.66 4.24 42.04 4.24L1.12 4.24C0.5 4.24 0 4.75 0 5.37L0 41.07Z" fill="url(#paint_linear_84_3613_0)" fill-opacity="1.000000" fill-rule="evenodd"/>
	<path id="path3796 (Stroke)" d="M0 15.83C0 16.22 0.31 16.54 0.7 16.54L19.84 16.54C20.23 16.54 20.54 16.22 20.54 15.83C20.54 15.45 20.23 15.13 19.84 15.13L0.7 15.13C0.31 15.13 0 15.45 0 15.83ZM22.38 15.83C22.38 16.22 22.69 16.54 23.08 16.54L42.47 16.54C42.86 16.54 43.17 16.22 43.17 15.83C43.17 15.45 42.86 15.13 42.47 15.13L23.08 15.13C22.69 15.13 22.38 15.45 22.38 15.83ZM0 12.53C0 12.92 0.31 13.24 0.7 13.24L42.47 13.24C42.86 13.24 43.17 12.92 43.17 12.53C43.17 12.15 42.86 11.83 42.47 11.83L0.7 11.83C0.31 11.83 0 12.15 0 12.53Z" fill="url(#paint_linear_84_3615_0)" fill-opacity="1.000000" fill-rule="evenodd"/>
</svg>
