<svg xmlns="http://www.w3.org/2000/svg" width="1097" height="721" fill="none"><g stroke="#fff" stroke-opacity=".4" clip-path="url(#a)"><path d="M-88.193 0 1408.61 728.783M-176.241 42.87 1320.57 771.651M-264.289 85.74 1232.52 814.521M-352.336 128.608 1144.47 857.391M-440.383 171.479 1056.42 900.261M-528.43 214.348 968.377 943.13M-616.478 257.218 880.33 986.001M-704.526 300.087 792.281 1028.87M-792.574 342.957 704.234 1071.74M-880.62 385.826 616.187 1114.61M-968.668 428.695 528.139 1157.48M-1056.71 471.565 440.093 1200.35M-1144.76 514.435 352.045 1243.22M-1232.81 557.305 263.996 1286.09M-1320.86 600.174 175.949 1328.96M-1408.91 643.044 87.902 1371.83M-1496.95 685.913-.145 1414.7M87.902 85.74-1408.91 814.521M175.949 128.608-1320.86 857.391M263.997 171.479-1232.81 900.261M352.045 214.348-1144.76 943.13M440.092 257.218-1056.72 986.001M528.139 300.087-968.668 1028.87M616.187 342.957-880.621 1071.74M704.217 385.826-792.59 1114.61M792.265 428.695-704.543 1157.48M880.312 471.565-616.496 1200.35M968.359 514.435-528.448 1243.22M1056.41 557.305-440.401 1286.09M1144.45 600.174-352.353 1328.96M1232.5 643.044-264.306 1371.83" opacity=".2"/></g><defs><clipPath id="a"><path fill="#fff" d="M-1585 0h2682v721h-2682z"/></clipPath></defs></svg>