<svg width="2993.958740" height="1458.273438" viewBox="0 0 2993.96 1458.27" fill="none" xmlns="http://www.w3.org/2000/svg" xmlns:xlink="http://www.w3.org/1999/xlink">
	<desc>
			Created with Pixso.
	</desc>
	<defs/>
	<g opacity="0.200000">
		<path id="Vector" d="" fill="#FFFFFF" fill-opacity="0.400000" fill-rule="nonzero"/>
		<path id="Vector" d="M1496.81 0.7L2993.61 729.49L2993.96 728.78L1497.15 0L1496.81 0.7Z" fill="#FFFFFF" fill-opacity="0.400000" fill-rule="evenodd"/>
	</g>
	<g opacity="0.200000">
		<path id="Vector" d="" fill="#FFFFFF" fill-opacity="0.400000" fill-rule="nonzero"/>
		<path id="Vector" d="M1408.76 43.57L2905.57 772.35L2905.91 771.65L1409.1 42.86L1408.76 43.57Z" fill="#FFFFFF" fill-opacity="0.400000" fill-rule="evenodd"/>
	</g>
	<g opacity="0.200000">
		<path id="Vector" d="" fill="#FFFFFF" fill-opacity="0.400000" fill-rule="nonzero"/>
		<path id="Vector" d="M1320.71 86.44L2817.52 815.22L2817.86 814.52L1321.06 85.73L1320.71 86.44Z" fill="#FFFFFF" fill-opacity="0.400000" fill-rule="evenodd"/>
	</g>
	<g opacity="0.200000">
		<path id="Vector" d="" fill="#FFFFFF" fill-opacity="0.400000" fill-rule="nonzero"/>
		<path id="Vector" d="M1232.66 129.31L2729.47 858.09L2729.82 857.39L1233.01 128.6L1232.66 129.31Z" fill="#FFFFFF" fill-opacity="0.400000" fill-rule="evenodd"/>
	</g>
	<g opacity="0.200000">
		<path id="Vector" d="" fill="#FFFFFF" fill-opacity="0.400000" fill-rule="nonzero"/>
		<path id="Vector" d="M1144.62 172.18L2641.42 900.96L2641.77 900.26L1144.96 171.47L1144.62 172.18Z" fill="#FFFFFF" fill-opacity="0.400000" fill-rule="evenodd"/>
	</g>
	<g opacity="0.200000">
		<path id="Vector" d="" fill="#FFFFFF" fill-opacity="0.400000" fill-rule="nonzero"/>
		<path id="Vector" d="M1056.56 215.05L2553.37 943.83L2553.72 943.13L1056.91 214.34L1056.56 215.05Z" fill="#FFFFFF" fill-opacity="0.400000" fill-rule="evenodd"/>
	</g>
	<g opacity="0.200000">
		<path id="Vector" d="" fill="#FFFFFF" fill-opacity="0.400000" fill-rule="nonzero"/>
		<path id="Vector" d="M968.52 257.92L2465.33 986.7L2465.67 986L968.86 257.21L968.52 257.92Z" fill="#FFFFFF" fill-opacity="0.400000" fill-rule="evenodd"/>
	</g>
	<g opacity="0.200000">
		<path id="Vector" d="" fill="#FFFFFF" fill-opacity="0.400000" fill-rule="nonzero"/>
		<path id="Vector" d="M880.47 300.79L2377.28 1029.57L2377.62 1028.87L880.81 300.08L880.47 300.79Z" fill="#FFFFFF" fill-opacity="0.400000" fill-rule="evenodd"/>
	</g>
	<g opacity="0.200000">
		<path id="Vector" d="" fill="#FFFFFF" fill-opacity="0.400000" fill-rule="nonzero"/>
		<path id="Vector" d="M792.42 343.66L2289.23 1072.44L2289.58 1071.74L792.77 342.95L792.42 343.66Z" fill="#FFFFFF" fill-opacity="0.400000" fill-rule="evenodd"/>
	</g>
	<g opacity="0.200000">
		<path id="Vector" d="" fill="#FFFFFF" fill-opacity="0.400000" fill-rule="nonzero"/>
		<path id="Vector" d="M704.37 386.53L2201.19 1115.31L2201.53 1114.61L704.72 385.82L704.37 386.53Z" fill="#FFFFFF" fill-opacity="0.400000" fill-rule="evenodd"/>
	</g>
	<g opacity="0.200000">
		<path id="Vector" d="" fill="#FFFFFF" fill-opacity="0.400000" fill-rule="nonzero"/>
		<path id="Vector" d="M616.33 429.4L2113.13 1158.18L2113.48 1157.48L616.67 428.69L616.33 429.4Z" fill="#FFFFFF" fill-opacity="0.400000" fill-rule="evenodd"/>
	</g>
	<g opacity="0.200000">
		<path id="Vector" d="" fill="#FFFFFF" fill-opacity="0.400000" fill-rule="nonzero"/>
		<path id="Vector" d="M528.28 472.27L2025.09 1201.06L2025.44 1200.35L528.63 471.56L528.28 472.27Z" fill="#FFFFFF" fill-opacity="0.400000" fill-rule="evenodd"/>
	</g>
	<g opacity="0.200000">
		<path id="Vector" d="" fill="#FFFFFF" fill-opacity="0.400000" fill-rule="nonzero"/>
		<path id="Vector" d="M440.23 515.14L1937.04 1243.92L1937.39 1243.22L440.58 514.43L440.23 515.14Z" fill="#FFFFFF" fill-opacity="0.400000" fill-rule="evenodd"/>
	</g>
	<g opacity="0.200000">
		<path id="Vector" d="" fill="#FFFFFF" fill-opacity="0.400000" fill-rule="nonzero"/>
		<path id="Vector" d="M352.18 558.01L1849 1286.79L1849.34 1286.09L352.53 557.3L352.18 558.01Z" fill="#FFFFFF" fill-opacity="0.400000" fill-rule="evenodd"/>
	</g>
	<g opacity="0.200000">
		<path id="Vector" d="" fill="#FFFFFF" fill-opacity="0.400000" fill-rule="nonzero"/>
		<path id="Vector" d="M264.14 600.88L1760.95 1329.66L1761.29 1328.96L264.48 600.17L264.14 600.88Z" fill="#FFFFFF" fill-opacity="0.400000" fill-rule="evenodd"/>
	</g>
	<g opacity="0.200000">
		<path id="Vector" d="" fill="#FFFFFF" fill-opacity="0.400000" fill-rule="nonzero"/>
		<path id="Vector" d="M176.09 643.75L1672.9 1372.53L1673.25 1371.83L176.43 643.04L176.09 643.75Z" fill="#FFFFFF" fill-opacity="0.400000" fill-rule="evenodd"/>
	</g>
	<g opacity="0.200000">
		<path id="Vector" d="" fill="#FFFFFF" fill-opacity="0.400000" fill-rule="nonzero"/>
		<path id="Vector" d="M88.04 686.62L1584.85 1415.4L1585.2 1414.7L88.39 685.91L88.04 686.62Z" fill="#FFFFFF" fill-opacity="0.400000" fill-rule="evenodd"/>
	</g>
	<g opacity="0.200000">
		<path id="Vector" d="" fill="#FFFFFF" fill-opacity="0.400000" fill-rule="nonzero"/>
		<path id="Vector" d="M0 729.49L1496.81 1458.27L1497.15 1457.57L0.34 728.78L0 729.49Z" fill="#FFFFFF" fill-opacity="0.400000" fill-rule="evenodd"/>
	</g>
	<g opacity="0.200000">
		<path id="Vector" d="" fill="#FFFFFF" fill-opacity="0.400000" fill-rule="nonzero"/>
		<path id="Vector" d="M1672.9 85.73L176.09 814.52L176.43 815.22L1673.25 86.44L1672.9 85.73Z" fill="#FFFFFF" fill-opacity="0.400000" fill-rule="evenodd"/>
	</g>
	<g opacity="0.200000">
		<path id="Vector" d="" fill="#FFFFFF" fill-opacity="0.400000" fill-rule="nonzero"/>
		<path id="Vector" d="M1760.95 128.6L264.14 857.39L264.48 858.09L1761.29 129.31L1760.95 128.6Z" fill="#FFFFFF" fill-opacity="0.400000" fill-rule="evenodd"/>
	</g>
	<g opacity="0.200000">
		<path id="Vector" d="" fill="#FFFFFF" fill-opacity="0.400000" fill-rule="nonzero"/>
		<path id="Vector" d="M1849 171.47L352.18 900.26L352.53 900.96L1849.34 172.18L1849 171.47Z" fill="#FFFFFF" fill-opacity="0.400000" fill-rule="evenodd"/>
	</g>
	<g opacity="0.200000">
		<path id="Vector" d="" fill="#FFFFFF" fill-opacity="0.400000" fill-rule="nonzero"/>
		<path id="Vector" d="M1937.04 214.34L440.23 943.13L440.58 943.83L1937.39 215.05L1937.04 214.34Z" fill="#FFFFFF" fill-opacity="0.400000" fill-rule="evenodd"/>
	</g>
	<g opacity="0.200000">
		<path id="Vector" d="" fill="#FFFFFF" fill-opacity="0.400000" fill-rule="nonzero"/>
		<path id="Vector" d="M2025.09 257.21L528.28 986L528.62 986.7L2025.44 257.92L2025.09 257.21Z" fill="#FFFFFF" fill-opacity="0.400000" fill-rule="evenodd"/>
	</g>
	<g opacity="0.200000">
		<path id="Vector" d="" fill="#FFFFFF" fill-opacity="0.400000" fill-rule="nonzero"/>
		<path id="Vector" d="M2113.13 300.08L616.33 1028.87L616.67 1029.57L2113.48 300.79L2113.13 300.08Z" fill="#FFFFFF" fill-opacity="0.400000" fill-rule="evenodd"/>
	</g>
	<g opacity="0.200000">
		<path id="Vector" d="" fill="#FFFFFF" fill-opacity="0.400000" fill-rule="nonzero"/>
		<path id="Vector" d="M2201.19 342.95L704.37 1071.74L704.72 1072.44L2201.53 343.66L2201.19 342.95Z" fill="#FFFFFF" fill-opacity="0.400000" fill-rule="evenodd"/>
	</g>
	<g opacity="0.200000">
		<path id="Vector" d="" fill="#FFFFFF" fill-opacity="0.400000" fill-rule="nonzero"/>
		<path id="Vector" d="M2289.22 385.82L792.4 1114.61L792.75 1115.31L2289.56 386.53L2289.22 385.82Z" fill="#FFFFFF" fill-opacity="0.400000" fill-rule="evenodd"/>
	</g>
	<g opacity="0.200000">
		<path id="Vector" d="" fill="#FFFFFF" fill-opacity="0.400000" fill-rule="nonzero"/>
		<path id="Vector" d="M2377.26 428.69L880.45 1157.48L880.8 1158.18L2377.61 429.4L2377.26 428.69Z" fill="#FFFFFF" fill-opacity="0.400000" fill-rule="evenodd"/>
	</g>
	<g opacity="0.200000">
		<path id="Vector" d="" fill="#FFFFFF" fill-opacity="0.400000" fill-rule="nonzero"/>
		<path id="Vector" d="M2465.31 471.56L968.5 1200.35L968.84 1201.06L2465.65 472.27L2465.31 471.56Z" fill="#FFFFFF" fill-opacity="0.400000" fill-rule="evenodd"/>
	</g>
	<g opacity="0.200000">
		<path id="Vector" d="" fill="#FFFFFF" fill-opacity="0.400000" fill-rule="nonzero"/>
		<path id="Vector" d="M2553.36 514.43L1056.55 1243.22L1056.9 1243.92L2553.7 515.14L2553.36 514.43Z" fill="#FFFFFF" fill-opacity="0.400000" fill-rule="evenodd"/>
	</g>
	<g opacity="0.200000">
		<path id="Vector" d="" fill="#FFFFFF" fill-opacity="0.400000" fill-rule="nonzero"/>
		<path id="Vector" d="M2641.41 557.3L1144.6 1286.09L1144.93 1286.79L2641.75 558.01L2641.41 557.3Z" fill="#FFFFFF" fill-opacity="0.400000" fill-rule="evenodd"/>
	</g>
	<g opacity="0.200000">
		<path id="Vector" d="" fill="#FFFFFF" fill-opacity="0.400000" fill-rule="nonzero"/>
		<path id="Vector" d="M2729.45 600.17L1232.65 1328.96L1232.99 1329.66L2729.8 600.88L2729.45 600.17Z" fill="#FFFFFF" fill-opacity="0.400000" fill-rule="evenodd"/>
	</g>
	<g opacity="0.200000">
		<path id="Vector" d="" fill="#FFFFFF" fill-opacity="0.400000" fill-rule="nonzero"/>
		<path id="Vector" d="M2817.5 643.04L1320.69 1371.83L1321.04 1372.53L2817.85 643.75L2817.5 643.04Z" fill="#FFFFFF" fill-opacity="0.400000" fill-rule="evenodd"/>
	</g>
</svg>
