<svg width="100.000000" height="71.000000" viewBox="0 0 100 71" fill="none" xmlns="http://www.w3.org/2000/svg" xmlns:xlink="http://www.w3.org/1999/xlink">
	<desc>
			Created with Pixso.
	</desc>
	<defs/>
	<path id="Vector" d="M16.46 70.64C7.38 70.64 0 63.26 0 54.17C0 45.09 7.38 37.71 16.46 37.71C25.54 37.71 32.93 45.09 32.93 54.17C32.93 63.31 25.54 70.64 16.46 70.64Z" fill="#00093C" fill-opacity="1.000000" fill-rule="nonzero"/>
	<path id="Vector" d="M16.46 70.64C7.38 70.64 0 63.26 0 54.17C0 45.09 7.38 37.71 16.46 37.71C25.54 37.71 32.93 45.09 32.93 54.17C32.93 63.31 25.54 70.64 16.46 70.64Z" fill="#00093C" fill-opacity="1.000000" fill-rule="nonzero"/>
	<path id="Vector" d="M55.39 1.83L37.52 31.02C37.02 31.87 37.57 32.92 38.52 32.92L56.38 32.92L74.25 32.92C75.2 32.92 75.75 31.82 75.25 31.02L57.38 1.83C56.88 1.08 55.83 1.08 55.39 1.83Z" fill="#00093C" fill-opacity="1.000000" fill-rule="nonzero"/>
	<path id="Vector" d="M32.58 6.77L26.14 0.33C25.69 -0.12 24.89 -0.12 24.45 0.33L17.36 7.42C16.91 7.87 16.11 7.87 15.66 7.42L8.58 0.33C8.13 -0.12 7.33 -0.12 6.88 0.33L0.44 6.77C0 7.22 0 8.02 0.44 8.47L7.53 15.55C7.98 16 7.98 16.8 7.53 17.25L0.44 24.33C0 24.78 0 25.58 0.44 26.03L6.88 32.47C7.33 32.92 8.13 32.92 8.58 32.47L15.66 25.38C16.11 24.93 16.91 24.93 17.36 25.38L24.45 32.47C24.89 32.92 25.69 32.92 26.14 32.47L32.58 26.03C33.03 25.58 33.03 24.78 32.58 24.33L25.49 17.25C25.04 16.8 25.04 16 25.49 15.55L32.58 8.47C33.08 8.02 33.08 7.27 32.58 6.77Z" fill="#00093C" fill-opacity="1.000000" fill-rule="nonzero"/>
	<path id="Vector" d="M40.66 49.08L40.66 51.18L44.31 51.18L44.31 52.63L40.66 52.63L40.66 55.47L38.87 55.47L38.87 47.64L44.75 47.64L44.75 49.08L40.66 49.08Z" fill="#000000" fill-opacity="1.000000" fill-rule="nonzero"/>
	<path id="Vector" d="M47.2 54.67C46.6 54.07 46.25 53.18 46.25 52.03L46.25 47.64L48.05 47.64L48.05 51.93C48.05 53.33 48.65 54.02 49.8 54.02C50.34 54.02 50.79 53.87 51.09 53.53C51.39 53.18 51.54 52.68 51.54 51.93L51.54 47.64L53.34 47.64L53.34 52.03C53.34 53.18 53.04 54.07 52.39 54.67C51.79 55.27 50.89 55.62 49.8 55.62C48.7 55.62 47.8 55.27 47.2 54.67Z" fill="#000000" fill-opacity="1.000000" fill-rule="nonzero"/>
	<path id="Vector" d="M56.93 49.13L54.44 49.13L54.44 47.64L61.22 47.64L61.22 49.13L58.73 49.13L58.73 55.47L56.93 55.47L56.93 49.13Z" fill="#000000" fill-opacity="1.000000" fill-rule="nonzero"/>
	<path id="Vector" d="M63.27 54.67C62.67 54.07 62.32 53.18 62.32 52.03L62.32 47.64L64.12 47.64L64.12 51.93C64.12 53.33 64.71 54.02 65.86 54.02C66.41 54.02 66.86 53.87 67.16 53.53C67.46 53.18 67.61 52.68 67.61 51.93L67.61 47.64L69.41 47.64L69.41 52.03C69.41 53.18 69.11 54.07 68.46 54.67C67.86 55.27 66.96 55.62 65.86 55.62C64.76 55.62 63.92 55.27 63.27 54.67Z" fill="#000000" fill-opacity="1.000000" fill-rule="nonzero"/>
	<path id="Vector" d="M76.49 55.47L75 53.28L74.9 53.28L73.3 53.28L73.3 55.47L71.5 55.47L71.5 47.69L74.9 47.69C75.59 47.69 76.19 47.79 76.69 48.04C77.19 48.29 77.59 48.59 77.89 49.04C78.14 49.43 78.29 49.98 78.29 50.53C78.29 51.13 78.14 51.63 77.89 52.03C77.59 52.43 77.19 52.78 76.69 52.98L78.44 55.47L76.49 55.47ZM76.04 49.48C75.75 49.23 75.34 49.13 74.8 49.13L73.3 49.13L73.3 51.88L74.8 51.88C75.34 51.88 75.75 51.78 76.04 51.53C76.34 51.28 76.44 50.98 76.44 50.53C76.49 50.03 76.34 49.73 76.04 49.48Z" fill="#000000" fill-opacity="1.000000" fill-rule="nonzero"/>
	<path id="Vector" d="M86.12 54.02L86.12 55.47L80.08 55.47L80.08 47.64L85.97 47.64L85.97 49.08L81.88 49.08L81.88 50.78L85.47 50.78L85.47 52.23L81.88 52.23L81.88 54.02L86.12 54.02Z" fill="#000000" fill-opacity="1.000000" fill-rule="nonzero"/>
	<path id="Vector" d="M44.01 68.25L40.36 68.25L39.66 69.94L37.82 69.94L41.31 62.16L43.11 62.16L46.6 69.94L44.71 69.94L44.01 68.25ZM43.46 66.9L42.21 63.9L40.96 66.9L43.46 66.9Z" fill="#000000" fill-opacity="1.000000" fill-rule="nonzero"/>
	<path id="Vector" d="M49.2 69.54C48.55 69.19 48.05 68.7 47.7 68.1C47.35 67.5 47.15 66.8 47.15 66C47.15 65.25 47.35 64.55 47.7 63.91C48.05 63.31 48.6 62.81 49.2 62.46C49.85 62.11 50.54 61.96 51.34 61.96C52.04 61.96 52.64 62.06 53.19 62.31C53.74 62.56 54.19 62.91 54.59 63.36L53.44 64.4C52.89 63.81 52.24 63.51 51.49 63.51C50.99 63.51 50.59 63.61 50.19 63.81C49.8 64 49.5 64.3 49.3 64.7C49.1 65.1 49 65.5 49 66C49 66.5 49.1 66.9 49.3 67.3C49.5 67.7 49.8 68 50.19 68.2C50.59 68.4 50.99 68.5 51.49 68.5C52.29 68.5 52.94 68.2 53.44 67.55L54.59 68.6C54.24 69.04 53.74 69.39 53.19 69.64C52.64 69.89 52.04 69.99 51.34 69.99C50.59 70.04 49.85 69.89 49.2 69.54Z" fill="#000000" fill-opacity="1.000000" fill-rule="nonzero"/>
	<path id="Vector" d="M61.12 68.25L57.48 68.25L56.78 69.94L54.93 69.94L58.43 62.16L60.22 62.16L63.72 69.94L61.82 69.94L61.12 68.25ZM60.57 66.9L59.33 63.9L58.08 66.9L60.57 66.9Z" fill="#000000" fill-opacity="1.000000" fill-rule="nonzero"/>
	<path id="Vector" d="M64.87 62.11L68.41 62.11C69.26 62.11 70.01 62.26 70.66 62.61C71.3 62.91 71.8 63.41 72.15 63.96C72.5 64.55 72.7 65.2 72.7 66C72.7 66.8 72.5 67.45 72.15 68.05C71.8 68.65 71.3 69.09 70.66 69.39C70.01 69.69 69.26 69.89 68.41 69.89L64.87 69.89L64.87 62.11ZM68.31 68.45C69.11 68.45 69.71 68.25 70.16 67.8C70.6 67.35 70.85 66.75 70.85 66.05C70.85 65.3 70.6 64.7 70.16 64.3C69.71 63.85 69.06 63.66 68.31 63.66L66.66 63.66L66.66 68.5L68.31 68.5L68.31 68.45Z" fill="#000000" fill-opacity="1.000000" fill-rule="nonzero"/>
	<path id="Vector" d="M80.43 68.5L80.43 69.94L74.4 69.94L74.4 62.11L80.28 62.11L80.28 63.56L76.19 63.56L76.19 65.25L79.83 65.25L79.83 66.65L76.19 66.65L76.19 68.5L80.43 68.5Z" fill="#000000" fill-opacity="1.000000" fill-rule="nonzero"/>
	<path id="Vector" d="M89.32 69.94L89.32 65.25L87.02 69.09L86.22 69.09L83.93 65.35L83.93 69.94L82.23 69.94L82.23 62.11L83.73 62.11L86.62 66.95L89.52 62.11L91.01 62.11L91.01 69.94L89.32 69.94Z" fill="#000000" fill-opacity="1.000000" fill-rule="nonzero"/>
	<path id="Vector" d="M96.95 67.15L96.95 69.94L95.15 69.94L95.15 67.15L92.11 62.11L94.06 62.11L96.15 65.6L98.2 62.11L100 62.11L96.95 67.15Z" fill="#000000" fill-opacity="1.000000" fill-rule="nonzero"/>
</svg>
