<svg width="84.000000" height="59.000000" viewBox="0 0 84 59" fill="none" xmlns="http://www.w3.org/2000/svg" xmlns:xlink="http://www.w3.org/1999/xlink">
	<desc>
			Created with Pixso.
	</desc>
	<defs/>
	<path id="Vector" d="M13.66 58.64C6.13 58.64 0 52.51 0 44.97C0 37.43 6.13 31.3 13.66 31.3C21.2 31.3 27.33 37.43 27.33 44.97C27.33 52.55 21.2 58.64 13.66 58.64Z" fill="#FFFFFF" fill-opacity="1.000000" fill-rule="nonzero"/>
	<path id="Vector" d="M13.66 58.64C6.13 58.64 0 52.51 0 44.97C0 37.43 6.13 31.3 13.66 31.3C21.2 31.3 27.33 37.43 27.33 44.97C27.33 52.55 21.2 58.64 13.66 58.64Z" fill="#FFFFFF" fill-opacity="1.000000" fill-rule="nonzero"/>
	<path id="Vector" d="M45.98 1.52L31.15 25.75C30.73 26.45 31.19 27.32 31.97 27.32L46.8 27.32L61.63 27.32C62.42 27.32 62.88 26.41 62.46 25.75L47.63 1.52C47.22 0.9 46.35 0.9 45.98 1.52Z" fill="#FFFFFF" fill-opacity="1.000000" fill-rule="nonzero"/>
	<path id="Vector" d="M27.04 5.62L21.7 0.27C21.33 -0.1 20.66 -0.1 20.29 0.27L14.41 6.16C14.04 6.53 13.38 6.53 13 6.16L7.12 0.27C6.75 -0.1 6.08 -0.1 5.71 0.27L0.37 5.62C0 5.99 0 6.65 0.37 7.03L6.25 12.91C6.62 13.28 6.62 13.94 6.25 14.32L0.37 20.2C0 20.57 0 21.23 0.37 21.61L5.71 26.95C6.08 27.32 6.75 27.32 7.12 26.95L13 21.07C13.38 20.7 14.04 20.7 14.41 21.07L20.29 26.95C20.66 27.32 21.33 27.32 21.7 26.95L27.04 21.61C27.42 21.23 27.42 20.57 27.04 20.2L21.16 14.32C20.79 13.94 20.79 13.28 21.16 12.91L27.04 7.03C27.46 6.65 27.46 6.03 27.04 5.62Z" fill="#FFFFFF" fill-opacity="1.000000" fill-rule="nonzero"/>
	<path id="Vector" d="M33.75 40.74L33.75 42.48L36.78 42.48L36.78 43.69L33.75 43.69L33.75 46.05L32.26 46.05L32.26 39.54L37.15 39.54L37.15 40.74L33.75 40.74Z" fill="#FFFFFF" fill-opacity="1.000000" fill-rule="nonzero"/>
	<path id="Vector" d="M39.18 45.38C38.68 44.89 38.39 44.14 38.39 43.19L38.39 39.54L39.89 39.54L39.89 43.11C39.89 44.27 40.38 44.84 41.33 44.84C41.79 44.84 42.16 44.72 42.41 44.43C42.66 44.14 42.78 43.73 42.78 43.11L42.78 39.54L44.28 39.54L44.28 43.19C44.28 44.14 44.03 44.89 43.49 45.38C42.99 45.88 42.25 46.17 41.33 46.17C40.42 46.17 39.68 45.88 39.18 45.38Z" fill="#FFFFFF" fill-opacity="1.000000" fill-rule="nonzero"/>
	<path id="Vector" d="M47.26 40.79L45.19 40.79L45.19 39.54L50.82 39.54L50.82 40.79L48.75 40.79L48.75 46.05L47.26 46.05L47.26 40.79Z" fill="#FFFFFF" fill-opacity="1.000000" fill-rule="nonzero"/>
	<path id="Vector" d="M52.52 45.38C52.02 44.89 51.73 44.14 51.73 43.19L51.73 39.54L53.22 39.54L53.22 43.11C53.22 44.27 53.72 44.84 54.67 44.84C55.13 44.84 55.5 44.72 55.75 44.43C56 44.14 56.12 43.73 56.12 43.11L56.12 39.54L57.61 39.54L57.61 43.19C57.61 44.14 57.36 44.89 56.83 45.38C56.33 45.88 55.58 46.17 54.67 46.17C53.76 46.17 53.06 45.88 52.52 45.38Z" fill="#FFFFFF" fill-opacity="1.000000" fill-rule="nonzero"/>
	<path id="Vector" d="M63.5 46.05L62.25 44.22L62.17 44.22L60.85 44.22L60.85 46.05L59.35 46.05L59.35 39.58L62.17 39.58C62.75 39.58 63.25 39.67 63.66 39.87C64.08 40.08 64.41 40.33 64.66 40.7C64.86 41.04 64.99 41.49 64.99 41.95C64.99 42.44 64.86 42.86 64.66 43.19C64.41 43.52 64.08 43.81 63.66 43.98L65.11 46.05L63.5 46.05ZM63.12 41.08C62.88 40.87 62.54 40.79 62.09 40.79L60.85 40.79L60.85 43.06L62.09 43.06C62.54 43.06 62.88 42.98 63.12 42.77C63.37 42.57 63.46 42.32 63.46 41.95C63.5 41.53 63.37 41.28 63.12 41.08Z" fill="#FFFFFF" fill-opacity="1.000000" fill-rule="nonzero"/>
	<path id="Vector" d="M71.49 44.84L71.49 46.05L66.48 46.05L66.48 39.54L71.37 39.54L71.37 40.74L67.97 40.74L67.97 42.15L70.95 42.15L70.95 43.35L67.97 43.35L67.97 44.84L71.49 44.84Z" fill="#FFFFFF" fill-opacity="1.000000" fill-rule="nonzero"/>
	<path id="Vector" d="M36.53 56.65L33.51 56.65L32.93 58.06L31.39 58.06L34.29 51.6L35.78 51.6L38.68 58.06L37.11 58.06L36.53 56.65ZM36.08 55.53L35.04 53.05L34 55.53L36.08 55.53Z" fill="#FFFFFF" fill-opacity="1.000000" fill-rule="nonzero"/>
	<path id="Vector" d="M40.84 57.73C40.3 57.44 39.89 57.02 39.59 56.53C39.31 56.03 39.14 55.45 39.14 54.79C39.14 54.17 39.31 53.59 39.59 53.05C39.89 52.55 40.34 52.14 40.84 51.85C41.38 51.56 41.96 51.43 42.62 51.43C43.2 51.43 43.7 51.51 44.15 51.72C44.61 51.93 44.98 52.22 45.31 52.59L44.36 53.46C43.9 52.96 43.36 52.72 42.74 52.72C42.33 52.72 42 52.8 41.67 52.96C41.33 53.13 41.09 53.38 40.92 53.71C40.75 54.04 40.67 54.37 40.67 54.79C40.67 55.2 40.75 55.53 40.92 55.86C41.09 56.2 41.33 56.44 41.67 56.61C42 56.78 42.33 56.86 42.74 56.86C43.41 56.86 43.94 56.61 44.36 56.07L45.31 56.94C45.02 57.31 44.61 57.6 44.15 57.81C43.7 58.02 43.2 58.1 42.62 58.1C42 58.14 41.38 58.02 40.84 57.73Z" fill="#FFFFFF" fill-opacity="1.000000" fill-rule="nonzero"/>
	<path id="Vector" d="M50.74 56.65L47.71 56.65L47.13 58.06L45.6 58.06L48.5 51.6L49.99 51.6L52.89 58.06L51.32 58.06L50.74 56.65ZM50.28 55.53L49.25 53.05L48.21 55.53L50.28 55.53Z" fill="#FFFFFF" fill-opacity="1.000000" fill-rule="nonzero"/>
	<path id="Vector" d="M53.84 51.56L56.79 51.56C57.49 51.56 58.11 51.68 58.65 51.97C59.19 52.22 59.6 52.63 59.89 53.09C60.18 53.58 60.35 54.12 60.35 54.79C60.35 55.45 60.18 55.99 59.89 56.49C59.6 56.98 59.19 57.35 58.65 57.6C58.11 57.85 57.49 58.02 56.79 58.02L53.84 58.02L53.84 51.56ZM56.7 56.82C57.37 56.82 57.86 56.65 58.24 56.28C58.61 55.91 58.82 55.41 58.82 54.83C58.82 54.21 58.61 53.71 58.24 53.38C57.86 53.01 57.32 52.84 56.7 52.84L55.33 52.84L55.33 56.86L56.7 56.86L56.7 56.82Z" fill="#FFFFFF" fill-opacity="1.000000" fill-rule="nonzero"/>
	<path id="Vector" d="M66.77 56.86L66.77 58.06L61.76 58.06L61.76 51.56L66.65 51.56L66.65 52.76L63.25 52.76L63.25 54.16L66.27 54.16L66.27 55.33L63.25 55.33L63.25 56.86L66.77 56.86Z" fill="#FFFFFF" fill-opacity="1.000000" fill-rule="nonzero"/>
	<path id="Vector" d="M74.14 58.06L74.14 54.16L72.24 57.35L71.57 57.35L69.67 54.25L69.67 58.06L68.26 58.06L68.26 51.56L69.5 51.56L71.9 55.57L74.31 51.56L75.55 51.56L75.55 58.06L74.14 58.06Z" fill="#FFFFFF" fill-opacity="1.000000" fill-rule="nonzero"/>
	<path id="Vector" d="M80.48 55.74L80.48 58.06L78.99 58.06L78.99 55.74L76.46 51.56L78.08 51.56L79.82 54.46L81.51 51.56L83 51.56L80.48 55.74Z" fill="#FFFFFF" fill-opacity="1.000000" fill-rule="nonzero"/>
</svg>
