<svg width="47.639648" height="6.950195" viewBox="0 0 47.6396 6.9502" fill="none" xmlns="http://www.w3.org/2000/svg" xmlns:xlink="http://www.w3.org/1999/xlink">
	<desc>
			Created with Pixso.
	</desc>
	<defs>
		<linearGradient x1="0.000000" y1="3.475342" x2="47.639614" y2="3.475342" id="paint_linear_10_222_0" gradientUnits="userSpaceOnUse">
			<stop stop-color="#0CBAF1"/>
			<stop offset="1.000000" stop-color="#E95CE9"/>
		</linearGradient>
	</defs>
	<path id="Vector" d="M43.47 1.85C42.96 1.87 42.45 1.89 41.94 1.92C40.78 1.98 39.62 2.03 38.46 2.11C37.59 2.17 36.73 2.27 35.87 2.39C35.64 2.42 35.4 2.4 35.17 2.44C33.02 2.77 30.84 2.87 28.68 3.16C27.7 3.29 26.71 3.37 25.74 3.52C23.58 3.87 21.39 4.07 19.22 4.39C17.78 4.6 16.33 4.81 14.89 5.02C13.42 5.23 11.95 5.44 10.48 5.65C9.3 5.83 8.12 6 6.94 6.18C6.35 6.28 5.76 6.29 5.17 6.36C4.1 6.47 3.03 6.63 1.96 6.72C1.79 6.74 1.64 6.73 1.48 6.68C1.31 6.62 1.12 6.69 0.93 6.69L0 6.73C0.22 6.63 0.45 6.59 0.7 6.59C0.92 6.56 1.08 6.51 1.08 6.28C1.09 6.25 1.12 6.23 1.17 6.17L0.03 6.28C0.2 6.14 0.25 6.12 0.79 6.07C1.05 6.07 1.3 6.03 1.54 5.97C1.79 5.88 1.99 5.71 2.28 5.68C2.19 5.61 2.1 5.64 1.97 5.62C2.35 5.54 2.68 5.48 3.02 5.42C3.07 5.41 3.13 5.42 3.17 5.36C3.21 5.29 2.97 5.15 3.24 5.11C3.36 5.09 3.36 4.91 3.5 4.87C3.57 4.85 3.62 4.79 3.59 4.72C3.55 4.64 3.47 4.68 3.41 4.69C2.96 4.74 2.51 4.8 2.06 4.85C1.89 4.89 1.73 4.87 1.57 4.81C1.73 4.78 1.89 4.76 2.05 4.73C2.22 4.7 2.39 4.66 2.56 4.63C3.38 4.5 4.19 4.37 5 4.24C6.35 4.03 7.71 3.82 9.06 3.61C10.07 3.45 11.07 3.28 12.08 3.14C12.8 3.04 13.52 2.92 14.24 2.81C14.99 2.7 15.73 2.57 16.47 2.46C17.24 2.35 18.01 2.24 18.78 2.13C19.57 2.02 20.36 1.92 21.15 1.81C22.54 1.61 23.93 1.47 25.33 1.32C26.89 1.15 28.45 1 30.01 0.85C31.27 0.73 32.53 0.63 33.79 0.52C34.64 0.45 35.5 0.4 36.36 0.37C38.03 0.29 39.7 0.19 41.37 0.13C43.26 0.06 45.15 0.04 47.05 0C47.24 -0.01 47.44 0.01 47.63 0.05C47.35 0.08 47.06 0.12 46.78 0.13C46.17 0.15 45.57 0.12 44.97 0.17C44.18 0.25 43.39 0.16 42.6 0.26C42.17 0.32 41.73 0.35 41.29 0.35C41.26 0.35 41.23 0.34 41.22 0.35C40.89 0.62 40.47 0.48 40.1 0.55C39.67 0.64 39.23 0.69 38.79 0.72C37.38 0.82 35.97 0.92 34.56 1.04C32.86 1.18 31.16 1.32 29.46 1.52C29.36 1.53 29.25 1.51 29.16 1.62C29.26 1.7 29.38 1.66 29.48 1.66C30.75 1.58 32.02 1.5 33.29 1.42C33.62 1.39 33.96 1.38 34.29 1.34C34.72 1.31 35.15 1.32 35.57 1.37C35.69 1.39 35.81 1.39 35.92 1.38C37.51 1.26 39.1 1.22 40.69 1.12C41.04 1.08 41.4 1.07 41.76 1.09C42.15 1.14 42.54 1.1 42.91 1.27C43.18 1.38 43.45 1.41 43.73 1.37C43.87 1.35 44 1.36 44.13 1.39C44.01 1.47 43.87 1.5 43.71 1.49C43.64 1.48 43.58 1.49 43.51 1.52C43.27 1.58 43.27 1.61 43.44 1.79C43.46 1.8 43.46 1.83 43.46 1.84L43.47 1.85ZM16.34 5.15C16.24 5.1 16.13 5.06 16.01 5.05C15.9 5.04 15.78 5.05 15.67 5.08C15.4 5.14 15.13 5.19 14.85 5.22C13.83 5.33 12.81 5.5 11.79 5.65C9.11 6.02 6.44 6.42 3.76 6.74C3.69 6.74 3.61 6.73 3.58 6.79C3.59 6.82 3.6 6.84 3.62 6.86C3.64 6.89 3.66 6.9 3.69 6.92C3.72 6.93 3.75 6.94 3.78 6.94C3.81 6.95 3.84 6.95 3.87 6.94C4.24 6.88 4.63 6.86 5.01 6.81C7.14 6.52 9.27 6.17 11.41 5.93C11.51 5.92 11.62 5.89 11.72 5.88C12.52 5.78 13.31 5.6 14.11 5.5C14.77 5.42 15.42 5.32 16.07 5.22C16.17 5.22 16.25 5.19 16.33 5.14L16.34 5.15ZM14.67 5.33C14.64 5.36 14.6 5.37 14.56 5.38C14.52 5.38 14.48 5.38 14.44 5.36C14.51 5.32 14.59 5.31 14.67 5.33ZM16.33 5.14C16.41 5.16 16.49 5.17 16.57 5.15C17.08 5.07 17.59 4.99 18.11 4.92C19.33 4.76 20.56 4.6 21.79 4.44C22.11 4.39 22.43 4.35 22.76 4.31C22.66 4.27 22.56 4.25 22.46 4.25C22.35 4.24 22.25 4.26 22.16 4.3C21.92 4.39 21.63 4.36 21.37 4.4C21 4.42 20.64 4.47 20.27 4.54C20 4.63 19.71 4.64 19.43 4.6L19.96 4.52C19.36 4.56 18.76 4.63 18.17 4.73C17.66 4.79 17.15 4.87 16.64 4.94C16.55 4.95 16.46 4.97 16.37 4.99C16.28 5.02 16.29 5.08 16.34 5.15L16.33 5.14ZM17.76 4.86C17.98 4.78 18.2 4.75 18.43 4.78C18.21 4.84 17.99 4.87 17.76 4.86L17.76 4.86ZM35.26 2.77L37.59 2.54L37.59 2.52L35.27 2.75L35.26 2.77ZM44.54 1.74C44.58 1.83 44.67 1.81 44.75 1.8C44.97 1.79 45.18 1.77 45.4 1.72L44.54 1.74L44.54 1.74ZM21.98 4.24L21.2 4.32L21.21 4.34L21.98 4.27L21.98 4.24ZM44.54 1.74C44.18 1.77 43.81 1.71 43.46 1.85C43.46 1.85 43.47 1.84 43.47 1.84C43.83 1.85 44.19 1.82 44.54 1.74L44.54 1.74ZM33.78 2.91L34.25 2.86L34.24 2.85L33.77 2.89L33.78 2.91ZM29.64 3.3L29.17 3.35L29.18 3.37L29.64 3.32L29.64 3.3ZM24.79 3.89C24.6 3.92 24.46 3.88 24.33 3.96C24.49 3.98 24.65 3.96 24.79 3.89ZM30.07 3.28L30.47 3.24C30.33 3.22 30.2 3.23 30.07 3.28ZM24.57 4.07L24.97 4.03C24.83 4.02 24.69 3.94 24.57 4.07ZM31.91 3.07C31.77 3.07 31.64 3.1 31.52 3.15C31.68 3.12 31.78 3.14 31.91 3.07ZM34.61 2.83C34.69 2.84 34.77 2.83 34.84 2.8C34.76 2.8 34.68 2.78 34.61 2.83L34.61 2.83ZM23.63 4.05C23.66 4.04 23.66 4.02 23.62 4L23.28 4.06C23.45 4.05 23.54 4.05 23.63 4.05ZM23.48 4.18C23.61 4.19 23.73 4.17 23.85 4.12C23.7 4.13 23.6 4.08 23.48 4.18ZM27.95 3.53C27.89 3.52 27.83 3.53 27.77 3.56C27.84 3.56 27.9 3.57 27.95 3.53ZM26.03 3.73L26.19 3.72L26.03 3.71L26.03 3.73ZM31.1 3.17C31.13 3.18 31.16 3.18 31.18 3.18C31.21 3.18 31.24 3.17 31.26 3.15C31.2 3.14 31.15 3.12 31.1 3.17L31.1 3.17ZM28.84 3.39C28.82 3.39 28.8 3.39 28.78 3.39C28.76 3.39 28.75 3.4 28.73 3.41L28.8 3.41C28.81 3.4 28.83 3.39 28.84 3.39L28.84 3.39Z" fill="url(#paint_linear_10_222_0)" fill-opacity="1.000000" fill-rule="nonzero"/>
</svg>
